SplineFontDB: 1.0
FontName: THNiramitAS-Bold
FullName: THNiramitAS-Bold
FamilyName: TH Niramit AS
Weight: Bold
Copyright: Copyright (c) 2006 by Department of Intellectual Property (DIP), Ministry of Commerce and Software Industry Promotion Agency (Public Organization) (SIPA). All rights reserved.
Version: 1.1
ItalicAngle: 0
UnderlinePosition: -35
UnderlineWidth: 30
Ascent: 800
Descent: 200
Order2: 1
XUID: [1021 375 425136265 10673306]
FSType: 0
OS2Version: 3
OS2_WeightWidthSlopeOnly: 0
OS2_UseTypoMetrics: 1
CreationTime: 1157457558
ModificationTime: 1174407211
PfmFamily: 17
TTFWeight: 700
TTFWidth: 5
LineGap: 60
VLineGap: 0
Panose: 2 0 5 6 0 0 0 2 0 4
OS2TypoAscent: 0
OS2TypoAOffset: 1
OS2TypoDescent: 0
OS2TypoDOffset: 1
OS2TypoLinegap: 0
OS2WinAscent: 15
OS2WinAOffset: 1
OS2WinDescent: 1
OS2WinDOffset: 1
HheadAscent: -105
HheadAOffset: 1
HheadDescent: 299
HheadDOffset: 1
OS2SubXSize: 700
OS2SubYSize: 650
OS2SubXOff: 0
OS2SubYOff: 140
OS2SupXSize: 700
OS2SupYSize: 650
OS2SupXOff: 0
OS2SupYOff: 477
OS2StrikeYSize: 30
OS2StrikeYPos: 250
OS2FamilyClass: 773
OS2Vendor: 'IPTH'
ScriptLang: 2
 1 latn 1 dflt 
 0 
ChainSub: coverage 0 0 'liga' 0 0 0 1
 1 0 1
  Coverage: 64 uni0E48.alt2 uni0E49.alt2 uni0E4A.alt2 uni0E4B.alt2 uni0E4C.alt2
  FCoverage: 7 uni0E33
 1
  SeqLookup: 0 'L027'
EndFPST
ChainSub: coverage 0 0 'liga' 0 0 0 1
 1 1 0
  Coverage: 7 uni0E47
  BCoverage: 12 uni0E2C.alt1
 1
  SeqLookup: 0 'L026'
EndFPST
ChainSub: coverage 0 0 'liga' 0 0 0 1
 1 0 1
  Coverage: 7 uni0E2C
  FCoverage: 39 uni0E34 uni0E35 uni0E36 uni0E37 uni0E47
 1
  SeqLookup: 0 'L026'
EndFPST
ChainSub: coverage 0 0 'liga' 0 0 0 1
 1 0 1
  Coverage: 15 uni0E0E uni0E0F
  FCoverage: 38 uni0E38.alt1 uni0E39.alt1 uni0E3A.alt1
 1
  SeqLookup: 0 'L026'
EndFPST
ChainSub: coverage 0 0 'liga' 0 0 0 1
 1 1 0
  Coverage: 5 a b c
  BCoverage: 23 uni0E1B uni0E1D uni0E1F
 1
  SeqLookup: 0 'L026'
EndFPST
ChainSub: coverage 0 0 'liga' 0 0 0 1
 1 0 1
  Coverage: 5 a b c

StartChar: .notdef
Encoding: 65536 -1 0
Width: 500
Flags: W
Fore
402 35 m 1,0,-1
 402 660 l 1,1,-1
 97 660 l 1,2,-1
 97 35 l 1,3,-1
 402 35 l 1,0,-1
436 0 m 1,4,-1
 63 0 l 1,5,-1
 63 695 l 1,6,-1
 436 695 l 1,7,-1
 436 0 l 1,4,-1
EndSplineSet
EndChar
StartChar: numbersign
Encoding: 35 35 4
Width: 403
Flags: W
Fore
373 300 m 1,0,-1
 308 300 l 1,1,-1
 291 193 l 1,2,-1
 359 193 l 1,3,-1
 350 144 l 1,4,-1
 283 144 l 1,5,-1
 259 -5 l 1,6,-1
 210 -4 l 1,7,-1
 233 144 l 1,8,-1
 141 144 l 1,9,-1
 117 -5 l 1,10,-1
 68 -4 l 1,11,-1
 91 144 l 1,12,-1
 21 144 l 1,13,-1
 28 193 l 1,14,-1
 99 193 l 1,15,-1
 116 300 l 1,16,-1
 44 300 l 1,17,-1
 51 349 l 1,18,-1
 124 349 l 1,19,-1
 145 478 l 1,20,-1
 195 477 l 1,21,-1
 174 349 l 1,22,-1
 266 349 l 1,23,-1
 286 476 l 1,24,-1
 336 477 l 1,25,-1
 316 349 l 1,26,-1
 382 349 l 1,27,-1
 373 300 l 1,0,-1
166 300 m 1,28,-1
 149 193 l 1,29,-1
 241 193 l 1,30,-1
 258 300 l 1,31,-1
 166 300 l 1,28,-1
EndSplineSet
EndChar
StartChar: dollar
Encoding: 36 36 5
Width: 387
Flags: W
Fore
364 118 m 0,0,1
 364 87 364 87 352.5 62.5 c 128,-1,2
 341 38 341 38 321.5 20 c 128,-1,3
 302 2 302 2 276.5 -8.5 c 128,-1,4
 251 -19 251 -19 222 -21 c 1,5,-1
 222 -68 l 1,6,-1
 176 -68 l 1,7,-1
 176 -21 l 1,8,9
 133 -17 133 -17 93 4 c 128,-1,10
 53 25 53 25 21 65 c 1,11,-1
 78 116 l 1,12,13
 92 94 92 94 115 73.5 c 128,-1,14
 138 53 138 53 176 48 c 1,15,-1
 176 199 l 1,16,17
 149 210 149 210 132 217.5 c 128,-1,18
 115 225 115 225 110 227 c 0,19,20
 92 236 92 236 76 253 c 128,-1,21
 60 270 60 270 50 292.5 c 128,-1,22
 40 315 40 315 39 341.5 c 128,-1,23
 38 368 38 368 52 395 c 0,24,25
 69 429 69 429 100.5 448.5 c 128,-1,26
 132 468 132 468 176 472 c 1,27,-1
 176 512 l 1,28,-1
 222 512 l 1,29,-1
 222 471 l 1,30,31
 252 467 252 467 282 454.5 c 128,-1,32
 312 442 312 442 341 418 c 1,33,-1
 304 357 l 1,34,35
 286 376 286 376 265.5 386 c 128,-1,36
 245 396 245 396 222 401 c 1,37,-1
 222 261 l 1,38,39
 247 249 247 249 272 238.5 c 128,-1,40
 297 228 297 228 317.5 213 c 128,-1,41
 338 198 338 198 351 176 c 128,-1,42
 364 154 364 154 364 118 c 0,0,1
176 404 m 1,43,44
 150 401 150 401 130.5 383 c 128,-1,45
 111 365 111 365 109 343 c 0,46,47
 108 327 108 327 113.5 317 c 128,-1,48
 119 307 119 307 128.5 300.5 c 128,-1,49
 138 294 138 294 150.5 289.5 c 128,-1,50
 163 285 163 285 176 279 c 1,51,-1
 176 404 l 1,43,44
294 114 m 0,52,53
 294 125 294 125 287.5 135 c 128,-1,54
 281 145 281 145 270.5 153 c 128,-1,55
 260 161 260 161 247.5 168 c 128,-1,56
 235 175 235 175 222 180 c 1,57,-1
 222 50 l 1,58,59
 234 52 234 52 247 57 c 128,-1,60
 260 62 260 62 270.5 69.5 c 128,-1,61
 281 77 281 77 287.5 88 c 128,-1,62
 294 99 294 99 294 114 c 0,52,53
EndSplineSet
EndChar
StartChar: percent
Encoding: 37 37 6
Width: 567
Flags: W
Fore
236 347 m 0,0,1
 236 323 236 323 229.5 300 c 128,-1,2
 223 277 223 277 210.5 258.5 c 128,-1,3
 198 240 198 240 179.5 229 c 128,-1,4
 161 218 161 218 137 218 c 0,5,6
 112 218 112 218 93.5 229.5 c 128,-1,7
 75 241 75 241 62.5 259.5 c 128,-1,8
 50 278 50 278 44 301 c 128,-1,9
 38 324 38 324 38 347 c 0,10,11
 38 368 38 368 44 391 c 128,-1,12
 50 414 50 414 62 433 c 128,-1,13
 74 452 74 452 92.5 464 c 128,-1,14
 111 476 111 476 137 476 c 0,15,16
 162 476 162 476 180.5 464.5 c 128,-1,17
 199 453 199 453 211.5 434.5 c 128,-1,18
 224 416 224 416 230 393 c 128,-1,19
 236 370 236 370 236 347 c 0,0,1
185 347 m 0,20,21
 185 357 185 357 182.5 370 c 128,-1,22
 180 383 180 383 174.5 394.5 c 128,-1,23
 169 406 169 406 160 414 c 128,-1,24
 151 422 151 422 137 422 c 0,25,26
 120 422 120 422 110.5 412 c 128,-1,27
 101 402 101 402 96 389.5 c 128,-1,28
 91 377 91 377 90 364.5 c 128,-1,29
 89 352 89 352 89 347 c 0,30,31
 89 337 89 337 91 324 c 128,-1,32
 93 311 93 311 98.5 299.5 c 128,-1,33
 104 288 104 288 113.5 280 c 128,-1,34
 123 272 123 272 137 272 c 0,35,36
 150 272 150 272 159.5 279.5 c 128,-1,37
 169 287 169 287 174.5 298 c 128,-1,38
 180 309 180 309 182.5 322.5 c 128,-1,39
 185 336 185 336 185 347 c 0,20,21
125 -22 m 1,40,-1
 384 506 l 1,41,-1
 444 506 l 1,42,-1
 185 -22 l 1,43,-1
 125 -22 l 1,40,-1
528 128 m 0,44,45
 528 104 528 104 521.5 81 c 128,-1,46
 515 58 515 58 502.5 39.5 c 128,-1,47
 490 21 490 21 471.5 10 c 128,-1,48
 453 -1 453 -1 429 -1 c 0,49,50
 404 -1 404 -1 385.5 10.5 c 128,-1,51
 367 22 367 22 354.5 40.5 c 128,-1,52
 342 59 342 59 336 82 c 128,-1,53
 330 105 330 105 330 128 c 0,54,55
 330 149 330 149 336 172 c 128,-1,56
 342 195 342 195 354 214 c 128,-1,57
 366 233 366 233 384.5 245 c 128,-1,58
 403 257 403 257 429 257 c 0,59,60
 454 257 454 257 472.5 245.5 c 128,-1,61
 491 234 491 234 503.5 215.5 c 128,-1,62
 516 197 516 197 522 174 c 128,-1,63
 528 151 528 151 528 128 c 0,44,45
477 128 m 0,64,65
 477 138 477 138 474.5 151 c 128,-1,66
 472 164 472 164 466.5 175.5 c 128,-1,67
 461 187 461 187 452 195 c 128,-1,68
 443 203 443 203 429 203 c 0,69,70
 412 203 412 203 402.5 193 c 128,-1,71
 393 183 393 183 388 170.5 c 128,-1,72
 383 158 383 158 382 145.5 c 128,-1,73
 381 133 381 133 381 128 c 0,74,75
 381 118 381 118 383 105 c 128,-1,76
 385 92 385 92 390.5 80.5 c 128,-1,77
 396 69 396 69 405.5 61 c 128,-1,78
 415 53 415 53 429 53 c 0,79,80
 442 53 442 53 451.5 60.5 c 128,-1,81
 461 68 461 68 466.5 79 c 128,-1,82
 472 90 472 90 474.5 103.5 c 128,-1,83
 477 117 477 117 477 128 c 0,64,65
EndSplineSet
EndChar
StartChar: ampersand
Encoding: 38 38 7
Width: 469
Flags: W
Fore
358 1 m 1,0,-1
 319 49 l 1,1,2
 267 -9 267 -9 198 -9 c 0,3,4
 165 -9 165 -9 135 1.5 c 128,-1,5
 105 12 105 12 83 31.5 c 128,-1,6
 61 51 61 51 48 78 c 128,-1,7
 35 105 35 105 35 139 c 0,8,9
 35 165 35 165 43.5 186 c 128,-1,10
 52 207 52 207 65.5 224 c 128,-1,11
 79 241 79 241 95.5 255 c 128,-1,12
 112 269 112 269 128 281 c 1,13,14
 111 303 111 303 96.5 329.5 c 128,-1,15
 82 356 82 356 82 388 c 0,16,17
 82 433 82 433 112 459 c 128,-1,18
 142 485 142 485 186 485 c 0,19,20
 231 485 231 485 261 460 c 128,-1,21
 291 435 291 435 291 390 c 0,22,23
 291 349 291 349 270 320.5 c 128,-1,24
 249 292 249 292 226 272 c 1,25,-1
 317 165 l 1,26,27
 325 180 325 180 330 203.5 c 128,-1,28
 335 227 335 227 336 258 c 1,29,-1
 401 258 l 1,30,31
 399 212 399 212 389 179.5 c 128,-1,32
 379 147 379 147 362 111 c 1,33,-1
 453 1 l 1,34,-1
 358 1 l 1,0,-1
224 394 m 0,35,36
 224 408 224 408 214.5 417 c 128,-1,37
 205 426 205 426 191 426 c 0,38,39
 179 426 179 426 167.5 419 c 128,-1,40
 156 412 156 412 156 394 c 0,41,42
 156 367 156 367 185 329 c 1,43,44
 200 344 200 344 212 359 c 128,-1,45
 224 374 224 374 224 394 c 0,35,36
171 228 m 1,46,47
 129 193 129 193 118.5 174 c 128,-1,48
 108 155 108 155 108 148 c 0,49,50
 108 110 108 110 133 86 c 128,-1,51
 158 62 158 62 195 62 c 0,52,53
 218 62 218 62 237 71.5 c 128,-1,54
 256 81 256 81 276 103 c 1,55,-1
 171 228 l 1,46,47
EndSplineSet
EndChar
StartChar: quotesingle
Encoding: 39 39 8
Width: 183
Flags: W
Fore
115 307 m 1,0,-1
 71 307 l 1,1,-1
 61 393 l 1,2,-1
 61 469 l 1,3,-1
 124 469 l 1,4,-1
 124 393 l 1,5,-1
 115 307 l 1,0,-1
EndSplineSet
EndChar
StartChar: parenleft
Encoding: 40 40 9
Width: 244
Flags: W
Fore
147 -74 m 1,0,1
 49 63 49 63 49 201 c 0,2,3
 49 269 49 269 71.5 334.5 c 128,-1,4
 94 400 94 400 147 480 c 1,5,-1
 195 480 l 1,6,7
 107 340 107 340 107 199 c 0,8,9
 107 127 107 127 129 59.5 c 128,-1,10
 151 -8 151 -8 197 -74 c 1,11,-1
 147 -74 l 1,0,1
EndSplineSet
EndChar
StartChar: parenright
Encoding: 41 41 10
Width: 245
Flags: W
Fore
200 201 m 0,0,1
 200 63 200 63 102 -74 c 1,2,-1
 52 -74 l 1,3,4
 98 -8 98 -8 120 59.5 c 128,-1,5
 142 127 142 127 142 199 c 0,6,7
 142 340 142 340 54 480 c 1,8,-1
 102 480 l 1,9,10
 154 400 154 400 177 334.5 c 128,-1,11
 200 269 200 269 200 201 c 0,0,1
EndSplineSet
EndChar
StartChar: asterisk
Encoding: 42 42 11
Width: 367
Flags: W
Fore
313 356 m 1,0,1
 318 340 318 340 306.5 325.5 c 128,-1,2
 295 311 295 311 277 313 c 1,3,-1
 220 328 l 1,4,-1
 259 282 l 2,5,6
 272 267 272 267 263.5 250 c 128,-1,7
 255 233 255 233 238 228 c 0,8,9
 227 224 227 224 213 229.5 c 128,-1,10
 199 235 199 235 196 248 c 2,11,-1
 183 306 l 1,12,13
 175 288 175 288 168.5 267.5 c 128,-1,14
 162 247 162 247 159 242 c 0,15,16
 153 229 153 229 138.5 226.5 c 128,-1,17
 124 224 124 224 112 231 c 0,18,19
 101 237 101 237 97 251.5 c 128,-1,20
 93 266 93 266 99 277 c 0,21,22
 100 279 100 279 105 284.5 c 128,-1,23
 110 290 110 290 117 297 c 128,-1,24
 124 304 124 304 131 311.5 c 128,-1,25
 138 319 138 319 144 327 c 1,26,-1
 87 313 l 2,27,28
 74 308 74 308 62 316.5 c 128,-1,29
 50 325 50 325 47 338 c 0,30,31
 42 356 42 356 53.5 370.5 c 128,-1,32
 65 385 65 385 83 383 c 0,33,34
 91 381 91 381 101.5 379 c 128,-1,35
 112 377 112 377 121 375 c 0,36,37
 132 372 132 372 142 369 c 1,38,-1
 101 415 l 2,39,40
 89 429 89 429 97 446.5 c 128,-1,41
 105 464 105 464 122 469 c 0,42,43
 135 473 135 473 147 466.5 c 128,-1,44
 159 460 159 460 164 449 c 1,45,-1
 181 387 l 1,46,47
 185 396 185 396 188 406.5 c 128,-1,48
 191 417 191 417 193.5 427 c 128,-1,49
 196 437 196 437 197.5 444.5 c 128,-1,50
 199 452 199 452 201 454 c 2,51,52
 207 464 207 464 221 468.5 c 128,-1,53
 235 473 235 473 248 465 c 0,54,55
 260 459 260 459 264 445 c 128,-1,56
 268 431 268 431 262 419 c 0,57,58
 259 414 259 414 245 399 c 128,-1,59
 231 384 231 384 220 369 c 1,60,-1
 273 384 l 2,61,62
 287 388 287 388 299 379 c 128,-1,63
 311 370 311 370 313 356 c 1,0,1
EndSplineSet
EndChar
StartChar: plus
Encoding: 43 43 12
Width: 400
Flags: W
Fore
166 140 m 1,0,-1
 46 140 l 1,1,-1
 46 208 l 1,2,-1
 166 208 l 1,3,-1
 166 328 l 1,4,-1
 234 328 l 1,5,-1
 234 208 l 1,6,-1
 354 208 l 1,7,-1
 354 140 l 1,8,-1
 234 140 l 1,9,-1
 234 20 l 1,10,-1
 166 20 l 1,11,-1
 166 140 l 1,0,-1
EndSplineSet
EndChar
StartChar: comma
Encoding: 44 44 13
Width: 244
Flags: W
Fore
173 42 m 0,0,1
 173 -3 173 -3 150 -38.5 c 128,-1,2
 127 -74 127 -74 89 -106 c 1,3,-1
 51 -81 l 1,4,5
 58 -77 58 -77 68 -67.5 c 128,-1,6
 78 -58 78 -58 87.5 -47 c 128,-1,7
 97 -36 97 -36 105 -24.5 c 128,-1,8
 113 -13 113 -13 116 -5 c 1,9,10
 94 -5 94 -5 79 10.5 c 128,-1,11
 64 26 64 26 64 47 c 256,12,13
 64 68 64 68 79.5 84 c 128,-1,14
 95 100 95 100 117 100 c 0,15,16
 140 100 140 100 156.5 84 c 128,-1,17
 173 68 173 68 173 42 c 0,0,1
EndSplineSet
EndChar
StartChar: hyphen
Encoding: 45 45 14
Width: 400
Flags: W
Fore
46 140 m 1,0,-1
 46 208 l 1,1,-1
 354 208 l 1,2,-1
 354 140 l 1,3,-1
 46 140 l 1,0,-1
EndSplineSet
EndChar
StartChar: period
Encoding: 46 46 15
Width: 206
Flags: W
Fore
152 48 m 256,0,1
 152 27 152 27 138 13.5 c 128,-1,2
 124 0 124 0 103 0 c 256,3,4
 82 0 82 0 68 13.5 c 128,-1,5
 54 27 54 27 54 48 c 256,6,7
 54 69 54 69 68 83.5 c 128,-1,8
 82 98 82 98 103 98 c 256,9,10
 124 98 124 98 138 83.5 c 128,-1,11
 152 69 152 69 152 48 c 256,0,1
EndSplineSet
EndChar
StartChar: slash
Encoding: 47 47 16
Width: 195
Flags: W
Fore
-13 -63 m 1,0,-1
 149 514 l 1,1,-1
 209 514 l 1,2,-1
 47 -63 l 1,3,-1
 -13 -63 l 1,0,-1
EndSplineSet
EndChar
StartChar: zero
Encoding: 48 48 17
Width: 400
Flags: W
Fore
370 240 m 256,0,1
 370 191 370 191 361.5 146 c 128,-1,2
 353 101 353 101 332.5 67 c 128,-1,3
 312 33 312 33 279.5 13 c 128,-1,4
 247 -7 247 -7 199 -7 c 256,5,6
 151 -7 151 -7 118 13 c 128,-1,7
 85 33 85 33 65 67 c 128,-1,8
 45 101 45 101 36 146 c 128,-1,9
 27 191 27 191 27 240 c 0,10,11
 27 322 27 322 46.5 370.5 c 128,-1,12
 66 419 66 419 93.5 445 c 128,-1,13
 121 471 121 471 150 479 c 128,-1,14
 179 487 179 487 199 487 c 0,15,16
 247 487 247 487 279.5 467 c 128,-1,17
 312 447 312 447 332.5 413 c 128,-1,18
 353 379 353 379 361.5 334 c 128,-1,19
 370 289 370 289 370 240 c 256,0,1
312 240 m 0,20,21
 312 277 312 277 307.5 310.5 c 128,-1,22
 303 344 303 344 290.5 369.5 c 128,-1,23
 278 395 278 395 256 410.5 c 128,-1,24
 234 426 234 426 200 426 c 256,25,26
 166 426 166 426 144 410.5 c 128,-1,27
 122 395 122 395 109 369.5 c 128,-1,28
 96 344 96 344 91 310 c 128,-1,29
 86 276 86 276 86 240 c 0,30,31
 86 203 86 203 91 169.5 c 128,-1,32
 96 136 96 136 109 110.5 c 128,-1,33
 122 85 122 85 144 70 c 128,-1,34
 166 55 166 55 200 55 c 0,35,36
 235 55 235 55 257 72 c 128,-1,37
 279 89 279 89 291 116 c 128,-1,38
 303 143 303 143 307.5 175.5 c 128,-1,39
 312 208 312 208 312 240 c 0,20,21
EndSplineSet
EndChar
StartChar: one
Encoding: 49 49 18
Width: 295
Flags: W
Fore
230 448 m 1,0,1
 231 440 231 440 224.5 432.5 c 128,-1,2
 218 425 218 425 211 422 c 1,3,-1
 211 0 l 1,4,-1
 151 0 l 1,5,-1
 151 375 l 1,6,7
 143 369 143 369 132.5 359.5 c 128,-1,8
 122 350 122 350 111 342 c 0,9,10
 99 332 99 332 86 322 c 1,11,-1
 42 362 l 1,12,-1
 175 474 l 1,13,-1
 175 475 l 1,14,15
 191 485 191 485 205 480.5 c 128,-1,16
 219 476 219 476 230 450 c 1,17,-1
 230 448 l 1,18,-1
 230 448 l 1,0,1
EndSplineSet
EndChar
StartChar: two
Encoding: 50 50 19
Width: 389
Flags: W
Fore
326 0 m 1,0,-1
 58 0 l 2,1,2
 21 -4 21 -4 28 33 c 0,3,4
 30 47 30 47 33.5 54.5 c 128,-1,5
 37 62 37 62 50 61 c 1,6,7
 58 74 58 74 70.5 88 c 128,-1,8
 83 102 83 102 96.5 115 c 128,-1,9
 110 128 110 128 122.5 139 c 128,-1,10
 135 150 135 150 143 157 c 0,11,12
 168 178 168 178 191.5 200.5 c 128,-1,13
 215 223 215 223 233 246.5 c 128,-1,14
 251 270 251 270 261 293.5 c 128,-1,15
 271 317 271 317 271 339 c 0,16,17
 270 373 270 373 254.5 392.5 c 128,-1,18
 239 412 239 412 217.5 419.5 c 128,-1,19
 196 427 196 427 172 422.5 c 128,-1,20
 148 418 148 418 130.5 404 c 128,-1,21
 113 390 113 390 105.5 367 c 128,-1,22
 98 344 98 344 109 314 c 1,23,-1
 53 300 l 1,24,25
 45 342 45 342 49 374.5 c 128,-1,26
 53 407 53 407 74 432 c 0,27,28
 103 466 103 466 147 477 c 128,-1,29
 191 488 191 488 232 476 c 128,-1,30
 273 464 273 464 302 429.5 c 128,-1,31
 331 395 331 395 331 338 c 0,32,33
 331 305 331 305 317.5 274 c 128,-1,34
 304 243 304 243 282.5 214.5 c 128,-1,35
 261 186 261 186 235 161 c 128,-1,36
 209 136 209 136 184 115 c 0,37,38
 167 101 167 101 151.5 86.5 c 128,-1,39
 136 72 136 72 126 61 c 1,40,-1
 289 61 l 1,41,42
 292 67 292 67 300 80 c 128,-1,43
 308 93 308 93 310 98 c 1,44,45
 311.5 97.5 l 130,-1,46
 313 97 313 97 317.5 94.5 c 128,-1,47
 322 92 322 92 332 86.5 c 128,-1,48
 342 81 342 81 360 72 c 1,49,-1
 326 0 l 1,0,-1
EndSplineSet
EndChar
StartChar: three
Encoding: 51 51 20
Width: 398
Flags: W
Fore
367 165 m 0,0,1
 367 133 367 133 357 102 c 128,-1,2
 347 71 347 71 328 46.5 c 128,-1,3
 309 22 309 22 280.5 6.5 c 128,-1,4
 252 -9 252 -9 215 -9 c 0,5,6
 176 -9 176 -9 146 -1 c 128,-1,7
 116 7 116 7 93 25 c 128,-1,8
 70 43 70 43 52.5 71.5 c 128,-1,9
 35 100 35 100 22 140 c 1,10,-1
 78 157 l 1,11,12
 93 100 93 100 125 70.5 c 128,-1,13
 157 41 157 41 211 44 c 0,14,15
 246 46 246 46 267.5 66.5 c 128,-1,16
 289 87 289 87 298 115 c 128,-1,17
 307 143 307 143 303.5 173.5 c 128,-1,18
 300 204 300 204 285.5 227 c 128,-1,19
 271 250 271 250 244.5 259.5 c 128,-1,20
 218 269 218 269 181 256 c 1,21,22
 179 254 179 254 173.5 248 c 128,-1,23
 168 242 168 242 163 236 c 0,24,25
 154 227 154 227 144 229 c 128,-1,26
 134 231 134 231 126 238.5 c 128,-1,27
 118 246 118 246 115.5 256.5 c 128,-1,28
 113 267 113 267 119 276 c 0,29,30
 145 309 145 309 169 337 c 0,31,32
 189 361 189 361 208.5 384.5 c 128,-1,33
 228 408 228 408 237 418 c 1,34,-1
 111 418 l 1,35,36
 110 414 110 414 107 405.5 c 128,-1,37
 104 397 104 397 101 387.5 c 128,-1,38
 98 378 98 378 94.5 369.5 c 128,-1,39
 91 361 91 361 90 357 c 1,40,41
 56 373 56 373 47.5 377.5 c 128,-1,42
 39 382 39 382 39 383 c 2,43,-1
 67 478 l 1,44,-1
 318 478 l 1,45,46
 332 480 332 480 338 470 c 128,-1,47
 344 460 344 460 339 446 c 1,48,49
 336 429 336 429 332.5 423.5 c 128,-1,50
 329 418 329 418 315 418 c 1,51,52
 313 416 313 416 302 403 c 128,-1,53
 291 390 291 390 277.5 373 c 128,-1,54
 264 356 264 356 250 339.5 c 128,-1,55
 236 323 236 323 229 315 c 1,56,57
 257 316 257 316 282 306.5 c 128,-1,58
 307 297 307 297 326 277.5 c 128,-1,59
 345 258 345 258 356 230 c 128,-1,60
 367 202 367 202 367 165 c 0,0,1
EndSplineSet
EndChar
StartChar: four
Encoding: 52 52 21
Width: 375
Flags: W
Fore
294 94 m 1,0,-1
 294 0 l 1,1,-1
 234 0 l 1,2,-1
 234 94 l 1,3,-1
 39 94 l 2,4,5
 25 95 25 95 16.5 111 c 128,-1,6
 8 127 8 127 16 141 c 2,7,-1
 254 473 l 2,8,9
 261 483 261 483 271 482 c 256,10,11
 281 481 281 481 288.5 472 c 128,-1,12
 296 463 296 463 298 455 c 256,13,14
 300 447 300 447 299.5 442.5 c 128,-1,15
 299 438 299 438 294 430 c 1,16,-1
 294 155 l 1,17,-1
 355 155 l 1,18,-1
 355 94 l 1,19,-1
 294 94 l 1,0,-1
234 348 m 1,20,21
 224 335 224 335 204.5 306.5 c 128,-1,22
 185 278 185 278 164 247.5 c 128,-1,23
 143 217 143 217 125 190.5 c 128,-1,24
 107 164 107 164 100 155 c 1,25,-1
 234 155 l 1,26,-1
 234 348 l 1,20,21
EndSplineSet
EndChar
StartChar: five
Encoding: 53 53 22
Width: 398
Flags: W
Fore
364 121 m 0,0,1
 354 76 354 76 320.5 41.5 c 128,-1,2
 287 7 287 7 243 -4 c 0,3,4
 225 -8 225 -8 203.5 -9 c 128,-1,5
 182 -10 182 -10 157 -3.5 c 128,-1,6
 132 3 132 3 104 18.5 c 128,-1,7
 76 34 76 34 47 63 c 1,8,-1
 87 107 l 1,9,10
 109 87 109 87 127 74.5 c 128,-1,11
 145 62 145 62 161 55.5 c 128,-1,12
 177 49 177 49 192.5 48.5 c 128,-1,13
 208 48 208 48 226 53 c 0,14,15
 263 62 263 62 286 94 c 128,-1,16
 309 126 309 126 313 162.5 c 128,-1,17
 317 199 317 199 299.5 232 c 128,-1,18
 282 265 282 265 238 277 c 0,19,20
 193 290 193 290 152.5 270.5 c 128,-1,21
 112 251 112 251 96 197 c 1,22,23
 72 206 72 206 61 210.5 c 128,-1,24
 50 215 50 215 43 218 c 1,25,-1
 46 226 l 2,26,27
 48 235 48 235 52 260.5 c 128,-1,28
 56 286 56 286 60 316.5 c 128,-1,29
 64 347 64 347 67.5 378 c 128,-1,30
 71 409 71 409 74 429 c 1,31,32
 70 434 70 434 69 442 c 128,-1,33
 68 450 68 450 70 457 c 0,34,35
 74 471 74 471 80.5 474.5 c 128,-1,36
 87 478 87 478 98 478 c 2,37,-1
 351 478 l 1,38,-1
 351 418 l 1,39,-1
 133 418 l 1,40,41
 131 400 131 400 127.5 370.5 c 128,-1,42
 124 341 124 341 120 314 c 1,43,44
 184 353 184 353 256 335 c 0,45,46
 294 325 294 325 318.5 302.5 c 128,-1,47
 343 280 343 280 355.5 250 c 128,-1,48
 368 220 368 220 369.5 186.5 c 128,-1,49
 371 153 371 153 364 121 c 0,0,1
EndSplineSet
EndChar
StartChar: six
Encoding: 54 54 23
Width: 393
Flags: W
Fore
311 349 m 1,0,1
 304 387 304 387 280.5 407 c 128,-1,2
 257 427 257 427 229 430 c 0,3,4
 189 435 189 435 163 420 c 128,-1,5
 137 405 137 405 120.5 379.5 c 128,-1,6
 104 354 104 354 96 322 c 128,-1,7
 88 290 88 290 85 261 c 1,8,9
 109 297 109 297 149 314.5 c 128,-1,10
 189 332 189 332 231 327 c 0,11,12
 281 321 281 321 314.5 289 c 128,-1,13
 348 257 348 257 361.5 214 c 128,-1,14
 375 171 375 171 367 124 c 128,-1,15
 359 77 359 77 327 42 c 256,16,17
 295 7 295 7 254 -4 c 128,-1,18
 213 -15 213 -15 173 -5.5 c 128,-1,19
 133 4 133 4 99 31.5 c 128,-1,20
 65 59 65 59 47 102 c 0,21,22
 33 136 33 136 28.5 181 c 128,-1,23
 24 226 24 226 29.5 271.5 c 128,-1,24
 35 317 35 317 50 358.5 c 128,-1,25
 65 400 65 400 90 428 c 0,26,27
 120 463 120 463 162 477.5 c 128,-1,28
 204 492 204 492 255 481 c 0,29,30
 296 473 296 473 325 442 c 128,-1,31
 354 411 354 411 362 364 c 1,32,-1
 311 349 l 1,0,1
286 82 m 0,33,34
 301 99 301 99 307 126 c 128,-1,35
 313 153 313 153 309 180.5 c 128,-1,36
 305 208 305 208 290.5 230.5 c 128,-1,37
 276 253 276 253 250 262 c 0,38,39
 219 272 219 272 189 265.5 c 128,-1,40
 159 259 159 259 137 239 c 128,-1,41
 115 219 115 219 105 188 c 128,-1,42
 95 157 95 157 106 119 c 0,43,44
 113 91 113 91 134.5 73 c 128,-1,45
 156 55 156 55 183 49 c 128,-1,46
 210 43 210 43 237.5 51 c 128,-1,47
 265 59 265 59 286 82 c 0,33,34
EndSplineSet
EndChar
StartChar: seven
Encoding: 55 55 24
Width: 389
Flags: W
Fore
367 456 m 0,0,1
 367 449 367 449 363.5 434.5 c 128,-1,2
 360 420 360 420 349 417 c 1,3,4
 348 407 348 407 347.5 400 c 128,-1,5
 347 393 347 393 344.5 386 c 128,-1,6
 342 379 342 379 337 370.5 c 128,-1,7
 332 362 332 362 323 349 c 0,8,9
 266 275 266 275 232 184.5 c 128,-1,10
 198 94 198 94 190 0 c 1,11,-1
 131 0 l 1,12,13
 137 54 137 54 150.5 108 c 128,-1,14
 164 162 164 162 182.5 212 c 128,-1,15
 201 262 201 262 224.5 306 c 128,-1,16
 248 350 248 350 275 385 c 0,17,18
 286 399 286 399 288 403 c 128,-1,19
 290 407 290 407 291 418 c 1,20,-1
 96 418 l 1,21,22
 97 413 97 413 97.5 406 c 128,-1,23
 98 399 98 399 100 392 c 2,24,25
 101 384 101 384 103 375 c 1,26,-1
 46 356 l 1,27,28
 43 371 43 371 40.5 386 c 128,-1,29
 38 401 38 401 36 414 c 128,-1,30
 34 427 34 427 32.5 436 c 128,-1,31
 31 445 31 445 31 447 c 0,32,33
 31 461 31 461 39.5 469.5 c 128,-1,34
 48 478 48 478 61 478 c 2,35,-1
 346 478 l 1,36,37
 367 475 367 475 367 456 c 0,0,1
EndSplineSet
EndChar
StartChar: eight
Encoding: 56 56 25
Width: 396
Flags: W
Fore
366 149 m 0,0,1
 366 107 366 107 352.5 76.5 c 128,-1,2
 339 46 339 46 315.5 26 c 128,-1,3
 292 6 292 6 261.5 -3.5 c 128,-1,4
 231 -13 231 -13 197 -13 c 256,5,6
 163 -13 163 -13 132 -2.5 c 128,-1,7
 101 8 101 8 77.5 28.5 c 128,-1,8
 54 49 54 49 40 79.5 c 128,-1,9
 26 110 26 110 26 149 c 0,10,11
 26 191 26 191 47.5 226.5 c 128,-1,12
 69 262 69 262 107 283 c 1,13,14
 89 299 89 299 77.5 321.5 c 128,-1,15
 66 344 66 344 66 370 c 256,16,17
 66 396 66 396 76 418 c 128,-1,18
 86 440 86 440 103.5 456 c 128,-1,19
 121 472 121 472 145 481 c 128,-1,20
 169 490 169 490 197 490 c 0,21,22
 231 490 231 490 255.5 479 c 128,-1,23
 280 468 280 468 296 451 c 128,-1,24
 312 434 312 434 319.5 412.5 c 128,-1,25
 327 391 327 391 327 370 c 0,26,27
 327 344 327 344 316 322 c 128,-1,28
 305 300 305 300 287 284 c 1,29,30
 325 265 325 265 345.5 226.5 c 128,-1,31
 366 188 366 188 366 149 c 0,0,1
264 370 m 0,32,33
 264 397 264 397 243 412.5 c 128,-1,34
 222 428 222 428 197 428 c 0,35,36
 186 428 186 428 174 423.5 c 128,-1,37
 162 419 162 419 152 411.5 c 128,-1,38
 142 404 142 404 136 393.5 c 128,-1,39
 130 383 130 383 130 370 c 0,40,41
 130 356 130 356 136 345 c 128,-1,42
 142 334 142 334 152 326.5 c 128,-1,43
 162 319 162 319 173.5 314.5 c 128,-1,44
 185 310 185 310 197 310 c 0,45,46
 226 310 226 310 245 327 c 128,-1,47
 264 344 264 344 264 370 c 0,32,33
304 149 m 0,48,49
 304 170 304 170 295.5 188 c 128,-1,50
 287 206 287 206 272.5 219.5 c 128,-1,51
 258 233 258 233 238.5 241 c 128,-1,52
 219 249 219 249 197 249 c 0,53,54
 174 249 174 249 154.5 241 c 128,-1,55
 135 233 135 233 120.5 219.5 c 128,-1,56
 106 206 106 206 97.5 188 c 128,-1,57
 89 170 89 170 89 149 c 0,58,59
 89 126 89 126 97.5 106.5 c 128,-1,60
 106 87 106 87 120.5 73 c 128,-1,61
 135 59 135 59 154.5 50.5 c 128,-1,62
 174 42 174 42 197 42 c 0,63,64
 244 42 244 42 274 71.5 c 128,-1,65
 304 101 304 101 304 149 c 0,48,49
EndSplineSet
EndChar
StartChar: nine
Encoding: 57 57 26
Width: 368
Flags: W
Fore
321 407 m 0,0,1
 338 374 338 374 343 325.5 c 128,-1,2
 348 277 348 277 345 227.5 c 128,-1,3
 342 178 342 178 331.5 134.5 c 128,-1,4
 321 91 321 91 307 67 c 0,5,6
 257 -16 257 -16 152 -6 c 0,7,8
 107 -1 107 -1 73.5 25 c 128,-1,9
 40 51 40 51 27 97 c 1,10,-1
 79 127 l 1,11,12
 86 95 86 95 108 73.5 c 128,-1,13
 130 52 130 52 159 49 c 0,14,15
 192 46 192 46 214.5 57.5 c 128,-1,16
 237 69 237 69 252 90 c 128,-1,17
 267 111 267 111 275 138 c 128,-1,18
 283 165 283 165 285 192 c 1,19,20
 245 154 245 154 200 149 c 128,-1,21
 155 144 155 144 116.5 163.5 c 128,-1,22
 78 183 78 183 52 224 c 128,-1,23
 26 265 26 265 26 321 c 0,24,25
 26 356 26 356 37.5 387.5 c 128,-1,26
 49 419 49 419 71 442 c 128,-1,27
 93 465 93 465 123 477.5 c 128,-1,28
 153 490 153 490 190 488 c 0,29,30
 281 485 281 485 321 407 c 0,0,1
272 364 m 0,31,32
 269 373 269 373 263 384 c 128,-1,33
 257 395 257 395 247 405 c 128,-1,34
 237 415 237 415 222.5 422 c 128,-1,35
 208 429 208 429 187 429 c 0,36,37
 142 430 142 430 117 404 c 128,-1,38
 92 378 92 378 86.5 342.5 c 128,-1,39
 81 307 81 307 95.5 271 c 128,-1,40
 110 235 110 235 145 218 c 0,41,42
 179 202 179 202 208 211 c 128,-1,43
 237 220 237 220 255 243 c 128,-1,44
 273 266 273 266 278.5 299 c 128,-1,45
 284 332 284 332 272 364 c 0,31,32
EndSplineSet
EndChar
StartChar: colon
Encoding: 58 58 27
Width: 220
Flags: W
Fore
159 46 m 256,0,1
 159 25 159 25 145 11.5 c 128,-1,2
 131 -2 131 -2 110 -2 c 256,3,4
 89 -2 89 -2 75 11.5 c 128,-1,5
 61 25 61 25 61 46 c 256,6,7
 61 67 61 67 75 81.5 c 128,-1,8
 89 96 89 96 110 96 c 256,9,10
 131 96 131 96 145 81.5 c 128,-1,11
 159 67 159 67 159 46 c 256,0,1
159 284 m 256,12,13
 159 263 159 263 145 249.5 c 128,-1,14
 131 236 131 236 110 236 c 256,15,16
 89 236 89 236 75 249.5 c 128,-1,17
 61 263 61 263 61 284 c 256,18,19
 61 305 61 305 75 319.5 c 128,-1,20
 89 334 89 334 110 334 c 256,21,22
 131 334 131 334 145 319.5 c 128,-1,23
 159 305 159 305 159 284 c 256,12,13
EndSplineSet
EndChar
StartChar: semicolon
Encoding: 59 59 28
Width: 233
Flags: W
Fore
171 42 m 0,0,1
 171 -3 171 -3 148 -38.5 c 128,-1,2
 125 -74 125 -74 87 -106 c 1,3,-1
 49 -81 l 1,4,5
 56 -77 56 -77 66 -67.5 c 128,-1,6
 76 -58 76 -58 85.5 -47 c 128,-1,7
 95 -36 95 -36 103 -24.5 c 128,-1,8
 111 -13 111 -13 114 -5 c 1,9,10
 92 -5 92 -5 77 10.5 c 128,-1,11
 62 26 62 26 62 47 c 256,12,13
 62 68 62 68 77.5 84 c 128,-1,14
 93 100 93 100 115 100 c 0,15,16
 138 100 138 100 154.5 84 c 128,-1,17
 171 68 171 68 171 42 c 0,0,1
159 284 m 256,18,19
 159 263 159 263 145 249.5 c 128,-1,20
 131 236 131 236 110 236 c 256,21,22
 89 236 89 236 75 249.5 c 128,-1,23
 61 263 61 263 61 284 c 256,24,25
 61 305 61 305 75 319.5 c 128,-1,26
 89 334 89 334 110 334 c 256,27,28
 131 334 131 334 145 319.5 c 128,-1,29
 159 305 159 305 159 284 c 256,18,19
EndSplineSet
EndChar
StartChar: less
Encoding: 60 60 29
Width: 390
Flags: W
Fore
33 208 m 1,0,-1
 356 334 l 1,1,-1
 356 266 l 1,2,-1
 120 173 l 1,3,-1
 356 82 l 1,4,-1
 356 14 l 1,5,-1
 33 140 l 1,6,-1
 33 208 l 1,0,-1
EndSplineSet
EndChar
StartChar: equal
Encoding: 61 61 30
Width: 453
Flags: W
Fore
60 208 m 1,0,-1
 60 276 l 1,1,-1
 384 276 l 1,2,-1
 384 208 l 1,3,-1
 60 208 l 1,0,-1
60 73 m 1,4,-1
 60 141 l 1,5,-1
 384 141 l 1,6,-1
 384 73 l 1,7,-1
 60 73 l 1,4,-1
EndSplineSet
EndChar
StartChar: greater
Encoding: 62 62 31
Width: 385
Flags: W
Fore
355 140 m 1,0,-1
 32 14 l 1,1,-1
 32 82 l 1,2,-1
 268 173 l 1,3,-1
 32 266 l 1,4,-1
 32 334 l 1,5,-1
 355 208 l 1,6,-1
 355 140 l 1,0,-1
EndSplineSet
EndChar
StartChar: question
Encoding: 63 63 32
Width: 363
Flags: W
Fore
289 438 m 0,0,1
 308 412 308 412 312 387 c 128,-1,2
 316 362 316 362 309.5 339 c 128,-1,3
 303 316 303 316 289.5 295 c 128,-1,4
 276 274 276 274 261 257 c 0,5,6
 239 231 239 231 222 206.5 c 128,-1,7
 205 182 205 182 205 150 c 2,8,-1
 205 108 l 1,9,-1
 135 108 l 1,10,-1
 135 150 l 2,11,12
 135 193 135 193 156.5 224.5 c 128,-1,13
 178 256 178 256 202 283 c 0,14,15
 232 317 232 317 243 342.5 c 128,-1,16
 254 368 254 368 238 397 c 0,17,18
 220 430 220 430 167 426 c 0,19,20
 146 424 146 424 123 407 c 128,-1,21
 100 390 100 390 92 367 c 1,22,-1
 46 397 l 1,23,24
 58 431 58 431 85 453.5 c 128,-1,25
 112 476 112 476 151 481 c 0,26,27
 190 487 190 487 228.5 477 c 128,-1,28
 267 467 267 467 289 438 c 0,0,1
215 43 m 256,29,30
 215 23 215 23 202.5 11 c 128,-1,31
 190 -1 190 -1 170 -1 c 256,32,33
 150 -1 150 -1 137.5 11 c 128,-1,34
 125 23 125 23 125 43 c 256,35,36
 125 63 125 63 137.5 76 c 128,-1,37
 150 89 150 89 170 89 c 256,38,39
 190 89 190 89 202.5 76 c 128,-1,40
 215 63 215 63 215 43 c 256,29,30
EndSplineSet
EndChar
StartChar: at
Encoding: 64 64 33
Width: 690
Flags: W
Fore
637 222 m 0,0,1
 637 195 637 195 630.5 166 c 128,-1,2
 624 137 624 137 611.5 109.5 c 128,-1,3
 599 82 599 82 581.5 58 c 128,-1,4
 564 34 564 34 542 17 c 0,5,6
 526 3 526 3 503.5 -3 c 128,-1,7
 481 -9 481 -9 458.5 -7 c 128,-1,8
 436 -5 436 -5 416 6 c 128,-1,9
 396 17 396 17 386 38 c 1,10,11
 386 39 386 39 385.5 39.5 c 128,-1,12
 385 40 385 40 385 41 c 1,13,-1
 384 39 l 1,14,15
 358 10 358 10 319.5 2 c 128,-1,16
 281 -6 281 -6 246 13 c 0,17,18
 220 29 220 29 206.5 52 c 128,-1,19
 193 75 193 75 188.5 101 c 128,-1,20
 184 127 184 127 186.5 155 c 128,-1,21
 189 183 189 183 195 210 c 0,22,23
 202 238 202 238 215.5 265 c 128,-1,24
 229 292 229 292 248.5 313.5 c 128,-1,25
 268 335 268 335 293.5 348.5 c 128,-1,26
 319 362 319 362 350 362 c 0,27,28
 370 362 370 362 390 353.5 c 128,-1,29
 410 345 410 345 423 329 c 1,30,-1
 429 358 l 1,31,-1
 489 358 l 1,32,33
 469 261 469 261 456 196.5 c 128,-1,34
 443 132 443 132 437 108 c 0,35,36
 432 89 432 89 433.5 71.5 c 128,-1,37
 435 54 435 54 443 44 c 128,-1,38
 451 34 451 34 466.5 34.5 c 128,-1,39
 482 35 482 35 505 52 c 0,40,41
 530 71 530 71 551.5 110 c 128,-1,42
 573 149 573 149 579.5 195 c 128,-1,43
 586 241 586 241 574 289 c 128,-1,44
 562 337 562 337 521 376 c 0,45,46
 487 408 487 408 446.5 421 c 128,-1,47
 406 434 406 434 368.5 435 c 128,-1,48
 331 436 331 436 299.5 429 c 128,-1,49
 268 422 268 422 252 413 c 0,50,51
 241 407 241 407 217.5 390 c 128,-1,52
 194 373 194 373 170.5 343 c 128,-1,53
 147 313 147 313 129.5 270 c 128,-1,54
 112 227 112 227 112 170 c 0,55,56
 112 125 112 125 126 86 c 128,-1,57
 140 47 140 47 164 15.5 c 128,-1,58
 188 -16 188 -16 221.5 -38.5 c 128,-1,59
 255 -61 255 -61 294 -71 c 0,60,61
 346 -85 346 -85 398.5 -77.5 c 128,-1,62
 451 -70 451 -70 517 -38 c 1,63,-1
 519 -95 l 1,64,65
 470 -120 470 -120 418.5 -129 c 128,-1,66
 367 -138 367 -138 316.5 -131.5 c 128,-1,67
 266 -125 266 -125 220.5 -103.5 c 128,-1,68
 175 -82 175 -82 138 -45 c 0,69,70
 123 -30 123 -30 107.5 -7 c 128,-1,71
 92 16 92 16 80 44.5 c 128,-1,72
 68 73 68 73 60 105.5 c 128,-1,73
 52 138 52 138 52 172 c 0,74,75
 52 217 52 217 64.5 262 c 128,-1,76
 77 307 77 307 100.5 346.5 c 128,-1,77
 124 386 124 386 157.5 417 c 128,-1,78
 191 448 191 448 233 466 c 0,79,80
 273 482 273 482 316.5 487.5 c 128,-1,81
 360 493 360 493 403 487 c 128,-1,82
 446 481 446 481 486 463.5 c 128,-1,83
 526 446 526 446 558 418 c 0,84,85
 598 380 598 380 617.5 330 c 128,-1,86
 637 280 637 280 637 222 c 0,0,1
403 248 m 0,87,88
 403 272 403 272 388.5 289 c 128,-1,89
 374 306 374 306 350 306 c 0,90,91
 327 306 327 306 308.5 289 c 128,-1,92
 290 272 290 272 277.5 250.5 c 128,-1,93
 265 229 265 229 257.5 207.5 c 128,-1,94
 250 186 250 186 248 177 c 0,95,96
 243 162 243 162 242.5 144.5 c 128,-1,97
 242 127 242 127 245 110.5 c 128,-1,98
 248 94 248 94 255 81 c 128,-1,99
 262 68 262 68 273 62 c 0,100,101
 292 51 292 51 309.5 55 c 128,-1,102
 327 59 327 59 341 70.5 c 128,-1,103
 355 82 355 82 365 98.5 c 128,-1,104
 375 115 375 115 380 129 c 0,105,106
 390 158 390 158 396.5 188 c 128,-1,107
 403 218 403 218 403 248 c 0,87,88
EndSplineSet
EndChar
StartChar: A
Encoding: 65 65 34
Width: 444
Flags: W
Fore
438 0 m 1,0,-1
 371 -12 l 1,1,-1
 318 124 l 1,2,-1
 125 124 l 1,3,-1
 74 -12 l 1,4,-1
 6 0 l 1,5,-1
 188 455 l 2,6,7
 190 461 190 461 197.5 472.5 c 128,-1,8
 205 484 205 484 216 490 c 0,9,10
 221 493 221 493 228.5 492 c 128,-1,11
 236 491 236 491 243.5 488 c 128,-1,12
 251 485 251 485 257.5 481 c 128,-1,13
 264 477 264 477 266 474 c 0,14,15
 274 465 274 465 269 456 c 128,-1,16
 264 447 264 447 262 443 c 1,17,-1
 438 0 l 1,0,-1
221 377 m 1,18,-1
 149 186 l 1,19,-1
 294 186 l 1,20,-1
 221 377 l 1,18,-1
EndSplineSet
EndChar
StartChar: B
Encoding: 66 66 35
Width: 423
Flags: W
Fore
291 348 m 0,0,1
 291 385 291 385 274 396 c 128,-1,2
 257 407 257 407 218 407 c 2,3,-1
 135 407 l 1,4,-1
 135 279 l 1,5,-1
 211 279 l 2,6,7
 245 279 245 279 268 296.5 c 128,-1,8
 291 314 291 314 291 348 c 0,0,1
317 143 m 0,9,10
 317 182 317 182 289 197.5 c 128,-1,11
 261 213 261 213 220 213 c 2,12,-1
 134 213 l 1,13,-1
 134 67 l 1,14,-1
 234 67 l 2,15,16
 279 67 279 67 298 83 c 128,-1,17
 317 99 317 99 317 143 c 0,9,10
68 394 m 2,18,19
 68 403 68 403 62 410 c 128,-1,20
 56 417 56 417 50 423 c 128,-1,21
 44 429 44 429 40 435 c 128,-1,22
 36 441 36 441 39 448 c 0,23,24
 41 453 41 453 45.5 460 c 128,-1,25
 50 467 50 467 56 473 c 128,-1,26
 62 479 62 479 69 482.5 c 128,-1,27
 76 486 76 486 83 483 c 0,28,29
 86 481 86 481 89.5 479.5 c 128,-1,30
 93 478 93 478 97 476 c 1,31,-1
 226 476 l 2,32,33
 254 476 254 476 278 467 c 128,-1,34
 302 458 302 458 320 441.5 c 128,-1,35
 338 425 338 425 348 402 c 128,-1,36
 358 379 358 379 358 351 c 0,37,38
 358 316 358 316 345 292 c 128,-1,39
 332 268 332 268 312 254 c 1,40,41
 342 240 342 240 363 212 c 128,-1,42
 384 184 384 184 384 144 c 0,43,44
 384 76 384 76 349 38 c 128,-1,45
 314 0 314 0 251 0 c 2,46,-1
 68 0 l 1,47,-1
 68 394 l 2,18,19
EndSplineSet
EndChar
StartChar: C
Encoding: 67 67 36
Width: 430
Flags: W
Fore
405 52 m 1,0,1
 381 26 381 26 349.5 12.5 c 128,-1,2
 318 -1 318 -1 285.5 -5 c 128,-1,3
 253 -9 253 -9 223.5 -6 c 128,-1,4
 194 -3 194 -3 173 5 c 0,5,6
 154 12 154 12 130.5 27 c 128,-1,7
 107 42 107 42 86 69 c 128,-1,8
 65 96 65 96 51 137.5 c 128,-1,9
 37 179 37 179 37 238 c 256,10,11
 37 297 37 297 51 338 c 128,-1,12
 65 379 65 379 86 406 c 128,-1,13
 107 433 107 433 130.5 448 c 128,-1,14
 154 463 154 463 173 470 c 0,15,16
 198 479 198 479 226.5 481.5 c 128,-1,17
 255 484 255 484 284 479.5 c 128,-1,18
 313 475 313 475 340.5 463 c 128,-1,19
 368 451 368 451 389 431 c 1,20,-1
 386 423 l 2,21,22
 383 417 383 417 377 404.5 c 128,-1,23
 371 392 371 392 360 369 c 1,24,25
 332 394 332 394 303 403 c 128,-1,26
 274 412 274 412 251 412 c 0,27,28
 224 412 224 412 198 404 c 0,29,30
 155 389 155 389 131 345 c 128,-1,31
 107 301 107 301 107 238 c 256,32,33
 107 175 107 175 131 131 c 128,-1,34
 155 87 155 87 198 71 c 0,35,36
 226 62 226 62 255 61 c 0,37,38
 280 60 280 60 308 68 c 128,-1,39
 336 76 336 76 361 102 c 1,40,-1
 405 52 l 1,41,-1
 405 52 l 1,0,1
EndSplineSet
EndChar
StartChar: D
Encoding: 68 68 37
Width: 453
Flags: W
Fore
353 238 m 0,0,1
 353 408 353 408 186 408 c 2,2,-1
 130 408 l 1,3,-1
 130 68 l 1,4,-1
 209 68 l 2,5,6
 287 68 287 68 320 113.5 c 128,-1,7
 353 159 353 159 353 238 c 0,0,1
201 475 m 2,8,9
 312 475 312 475 367.5 412 c 128,-1,10
 423 349 423 349 423 238 c 0,11,12
 423 123 423 123 366 61.5 c 128,-1,13
 309 0 309 0 201 0 c 2,14,-1
 63 0 l 1,15,-1
 63 394 l 2,16,17
 63 403 63 403 57 410 c 128,-1,18
 51 417 51 417 45 423 c 128,-1,19
 39 429 39 429 35 435 c 128,-1,20
 31 441 31 441 34 448 c 0,21,22
 36 453 36 453 40.5 460 c 128,-1,23
 45 467 45 467 51 473 c 128,-1,24
 57 479 57 479 64 482.5 c 128,-1,25
 71 486 71 486 78 483 c 0,26,27
 81 481 81 481 84.5 479 c 128,-1,28
 88 477 88 477 92 475 c 1,29,-1
 201 475 l 2,8,9
EndSplineSet
EndChar
StartChar: E
Encoding: 69 69 38
Width: 377
Flags: W
Fore
54 394 m 2,0,1
 54 403 54 403 48 410 c 128,-1,2
 42 417 42 417 36 423 c 128,-1,3
 30 429 30 429 26 435 c 128,-1,4
 22 441 22 441 25 448 c 0,5,6
 27 453 27 453 31.5 460 c 128,-1,7
 36 467 36 467 42 473 c 128,-1,8
 48 479 48 479 55 482.5 c 128,-1,9
 62 486 62 486 69 483 c 0,10,11
 72 481 72 481 75.5 479.5 c 128,-1,12
 79 478 79 478 83 476 c 1,13,-1
 321 476 l 1,14,-1
 321 408 l 1,15,-1
 122 408 l 1,16,-1
 122 281 l 1,17,-1
 300 281 l 1,18,-1
 300 213 l 1,19,-1
 122 213 l 1,20,-1
 122 67 l 1,21,-1
 320 67 l 1,22,-1
 320 0 l 1,23,-1
 54 0 l 1,24,-1
 54 394 l 2,0,1
EndSplineSet
EndChar
StartChar: F
Encoding: 70 70 39
Width: 356
Flags: W
Fore
57 394 m 2,0,1
 57 403 57 403 51 410 c 128,-1,2
 45 417 45 417 39 423 c 128,-1,3
 33 429 33 429 29 435 c 128,-1,4
 25 441 25 441 28 448 c 0,5,6
 30 453 30 453 34.5 460 c 128,-1,7
 39 467 39 467 45 473 c 128,-1,8
 51 479 51 479 58 482.5 c 128,-1,9
 65 486 65 486 72 483 c 0,10,11
 75 481 75 481 78.5 479.5 c 128,-1,12
 82 478 82 478 86 476 c 1,13,-1
 323 476 l 1,14,-1
 323 409 l 1,15,-1
 126 409 l 1,16,-1
 126 281 l 1,17,-1
 304 281 l 1,18,-1
 304 214 l 1,19,-1
 125 214 l 1,20,-1
 125 0 l 1,21,-1
 57 0 l 1,22,-1
 57 394 l 2,0,1
EndSplineSet
EndChar
StartChar: G
Encoding: 71 71 40
Width: 459
Flags: W
Fore
356 259 m 1,0,1
 368 270 368 270 378 271 c 0,2,3
 385 272 385 272 391.5 268 c 128,-1,4
 398 264 398 264 403.5 258 c 128,-1,5
 409 252 409 252 413 245.5 c 128,-1,6
 417 239 417 239 419 235 c 0,7,8
 422 227 422 227 418.5 222 c 128,-1,9
 415 217 415 217 409.5 211.5 c 128,-1,10
 404 206 404 206 399.5 200.5 c 128,-1,11
 395 195 395 195 395 186 c 2,12,-1
 395 27 l 1,13,14
 353 9 353 9 314.5 0.5 c 128,-1,15
 276 -8 276 -8 231 -8 c 0,16,17
 182 -8 182 -8 146.5 12.5 c 128,-1,18
 111 33 111 33 88.5 67 c 128,-1,19
 66 101 66 101 55.5 145.5 c 128,-1,20
 45 190 45 190 45 239 c 0,21,22
 45 284 45 284 56.5 328 c 128,-1,23
 68 372 68 372 91.5 407 c 128,-1,24
 115 442 115 442 149.5 464 c 128,-1,25
 184 486 184 486 231 486 c 0,26,27
 241 486 241 486 264 484 c 128,-1,28
 287 482 287 482 312.5 471 c 128,-1,29
 338 460 338 460 361.5 436 c 128,-1,30
 385 412 385 412 396 369 c 1,31,-1
 332 346 l 1,32,33
 326 372 326 372 313 386.5 c 128,-1,34
 300 401 300 401 284.5 408 c 128,-1,35
 269 415 269 415 254.5 416.5 c 128,-1,36
 240 418 240 418 231 418 c 0,37,38
 199 418 199 418 176.5 401.5 c 128,-1,39
 154 385 154 385 140 359.5 c 128,-1,40
 126 334 126 334 120 302 c 128,-1,41
 114 270 114 270 114 239 c 0,42,43
 114 200 114 200 121 167 c 128,-1,44
 128 134 128 134 144 110.5 c 128,-1,45
 160 87 160 87 186 73.5 c 128,-1,46
 212 60 212 60 250 60 c 0,47,48
 270 60 270 60 290 65 c 128,-1,49
 310 70 310 70 331 77 c 1,50,-1
 331 190 l 1,51,-1
 229 190 l 1,52,-1
 229 259 l 1,53,-1
 356 259 l 1,0,1
EndSplineSet
EndChar
StartChar: H
Encoding: 72 72 41
Width: 453
Flags: W
Fore
328 0 m 1,0,-1
 328 213 l 1,1,-1
 126 213 l 1,2,-1
 126 0 l 1,3,-1
 59 0 l 1,4,-1
 59 477 l 1,5,-1
 126 477 l 1,6,-1
 126 281 l 1,7,-1
 328 281 l 1,8,-1
 328 477 l 1,9,-1
 394 477 l 1,10,-1
 394 0 l 1,11,-1
 328 0 l 1,0,-1
EndSplineSet
EndChar
StartChar: I
Encoding: 73 73 42
Width: 183
Flags: W
Fore
59 0 m 1,0,-1
 59 477 l 1,1,-1
 125 477 l 1,2,-1
 125 0 l 1,3,-1
 59 0 l 1,0,-1
EndSplineSet
EndChar
StartChar: J
Encoding: 74 74 43
Width: 301
Flags: W
Fore
233 124 m 1,0,1
 229 74 229 74 209.5 43.5 c 128,-1,2
 190 13 190 13 160 1 c 128,-1,3
 130 -11 130 -11 92.5 -6 c 128,-1,4
 55 -1 55 -1 16 19 c 1,5,-1
 39 83 l 1,6,7
 53 68 53 68 74.5 60.5 c 128,-1,8
 96 53 96 53 116.5 56.5 c 128,-1,9
 137 60 137 60 151.5 74.5 c 128,-1,10
 166 89 166 89 166 118 c 2,11,-1
 166 477 l 1,12,-1
 233 477 l 1,13,-1
 233 124 l 1,14,-1
 233 124 l 1,0,1
EndSplineSet
EndChar
StartChar: K
Encoding: 75 75 44
Width: 425
Flags: W
Fore
345 -6 m 1,0,-1
 129 217 l 1,1,-1
 129 0 l 1,2,-1
 61 0 l 1,3,-1
 61 477 l 1,4,-1
 129 477 l 1,5,-1
 129 279 l 1,6,-1
 337 488 l 1,7,-1
 408 468 l 1,8,-1
 184 248 l 1,9,-1
 421 0 l 1,10,-1
 345 -6 l 1,0,-1
EndSplineSet
EndChar
StartChar: L
Encoding: 76 76 45
Width: 367
Flags: W
Fore
106 0 m 1,0,1
 101 -5 101 -5 92.5 -8.5 c 128,-1,2
 84 -12 84 -12 81 -14 c 0,3,4
 74 -17 74 -17 67 -13.5 c 128,-1,5
 60 -10 60 -10 54 -4 c 128,-1,6
 48 2 48 2 43.5 9 c 128,-1,7
 39 16 39 16 37 21 c 0,8,9
 34 28 34 28 38 34 c 128,-1,10
 42 40 42 40 48 46 c 128,-1,11
 54 52 54 52 60 59 c 128,-1,12
 66 66 66 66 66 75 c 2,13,-1
 66 477 l 1,14,-1
 134 477 l 1,15,-1
 134 61 l 1,16,-1
 348 61 l 1,17,-1
 348 0 l 1,18,-1
 106 0 l 1,0,1
EndSplineSet
EndChar
StartChar: M
Encoding: 77 77 46
Width: 659
Flags: W
Fore
363 23 m 1,0,1
 366 12 366 12 366 13 c 1,2,3
 366 12 366 12 365 12 c 1,4,5
 366 3 366 3 358 -3.5 c 128,-1,6
 350 -10 350 -10 339 -13 c 128,-1,7
 328 -16 328 -16 318 -13.5 c 128,-1,8
 308 -11 308 -11 307 -2 c 1,9,-1
 160 345 l 1,10,-1
 88 -10 l 1,11,-1
 22 1 l 1,12,-1
 115 433 l 1,13,14
 107 444 107 444 102.5 451.5 c 128,-1,15
 98 459 98 459 103 468 c 1,16,17
 106 471 106 471 112.5 475.5 c 128,-1,18
 119 480 119 480 127 483.5 c 128,-1,19
 135 487 135 487 142 488.5 c 128,-1,20
 149 490 149 490 154 488 c 0,21,22
 165 483 165 483 174 471 c 128,-1,23
 183 459 183 459 185 452 c 2,24,-1
 330 107 l 1,25,-1
 474 452 l 2,26,27
 476 459 476 459 485 471 c 128,-1,28
 494 483 494 483 505 488 c 0,29,30
 509 490 509 490 516.5 488.5 c 128,-1,31
 524 487 524 487 532 483.5 c 128,-1,32
 540 480 540 480 546.5 475.5 c 128,-1,33
 553 471 553 471 556 468 c 1,34,35
 561 459 561 459 556.5 451.5 c 128,-1,36
 552 444 552 444 544 433 c 1,37,-1
 637 1 l 1,38,-1
 571 -10 l 1,39,-1
 499 345 l 1,40,-1
 363 23 l 1,0,1
EndSplineSet
EndChar
StartChar: N
Encoding: 78 78 47
Width: 474
Flags: W
Fore
128 450 m 0,0,1
 153 415 153 415 189.5 362.5 c 128,-1,2
 226 310 226 310 260 260 c 0,3,4
 300 202 300 202 342 140 c 1,5,-1
 342 475 l 1,6,-1
 409 475 l 1,7,-1
 409 0 l 1,8,-1
 354 0 l 1,9,-1
 132 322 l 1,10,-1
 132 0 l 1,11,-1
 65 0 l 1,12,-1
 65 399 l 2,13,14
 65 408 65 408 60 415 c 128,-1,15
 55 422 55 422 49.5 429 c 128,-1,16
 44 436 44 436 41 442.5 c 128,-1,17
 38 449 38 449 41 455 c 0,18,19
 47 466 47 466 61 476 c 128,-1,20
 75 486 75 486 89 484 c 0,21,22
 100 482 100 482 110 473 c 128,-1,23
 120 464 120 464 128 450 c 0,0,1
EndSplineSet
EndChar
StartChar: O
Encoding: 79 79 48
Width: 465
Flags: W
Fore
426 239 m 0,0,1
 426 182 426 182 412.5 136 c 128,-1,2
 399 90 399 90 374 57.5 c 128,-1,3
 349 25 349 25 313.5 8 c 128,-1,4
 278 -9 278 -9 233 -9 c 0,5,6
 182 -9 182 -9 145.5 11.5 c 128,-1,7
 109 32 109 32 85 66.5 c 128,-1,8
 61 101 61 101 50 146 c 128,-1,9
 39 191 39 191 39 239 c 0,10,11
 39 284 39 284 49.5 328 c 128,-1,12
 60 372 60 372 83 407 c 128,-1,13
 106 442 106 442 143 464 c 128,-1,14
 180 486 180 486 233 486 c 0,15,16
 283 486 283 486 319.5 465 c 128,-1,17
 356 444 356 444 379.5 409.5 c 128,-1,18
 403 375 403 375 414.5 330.5 c 128,-1,19
 426 286 426 286 426 239 c 0,0,1
358 239 m 0,20,21
 358 267 358 267 351.5 299 c 128,-1,22
 345 331 345 331 330.5 358 c 128,-1,23
 316 385 316 385 292 402.5 c 128,-1,24
 268 420 268 420 233 420 c 256,25,26
 198 420 198 420 174 404 c 128,-1,27
 150 388 150 388 135 362 c 128,-1,28
 120 336 120 336 113 304 c 128,-1,29
 106 272 106 272 106 239 c 0,30,31
 106 210 106 210 112.5 178 c 128,-1,32
 119 146 119 146 133.5 119 c 128,-1,33
 148 92 148 92 172.5 74.5 c 128,-1,34
 197 57 197 57 233 57 c 0,35,36
 267 57 267 57 291 74 c 128,-1,37
 315 91 315 91 330 117.5 c 128,-1,38
 345 144 345 144 351.5 176 c 128,-1,39
 358 208 358 208 358 239 c 0,20,21
EndSplineSet
EndChar
StartChar: P
Encoding: 80 80 49
Width: 389
Flags: W
Fore
298 327 m 0,0,1
 298 369 298 369 263 388 c 128,-1,2
 228 407 228 407 165 407 c 0,3,4
 153 407 153 407 139 407 c 128,-1,5
 125 407 125 407 122 405 c 1,6,-1
 122 238 l 1,7,-1
 165 238 l 2,8,9
 232 238 232 238 265 258.5 c 128,-1,10
 298 279 298 279 298 327 c 0,0,1
58 394 m 2,11,12
 58 403 58 403 52 410 c 128,-1,13
 46 417 46 417 40 423 c 128,-1,14
 34 429 34 429 30 435 c 128,-1,15
 26 441 26 441 29 448 c 0,16,17
 31 453 31 453 35.5 460 c 128,-1,18
 40 467 40 467 46 473 c 128,-1,19
 52 479 52 479 59 482.5 c 128,-1,20
 66 486 66 486 73 483 c 0,21,22
 76 481 76 481 79.5 479.5 c 128,-1,23
 83 478 83 478 87 476 c 1,24,-1
 163 476 l 2,25,26
 203 476 203 476 239.5 468 c 128,-1,27
 276 460 276 460 304 442.5 c 128,-1,28
 332 425 332 425 349 396.5 c 128,-1,29
 366 368 366 368 366 327 c 0,30,31
 366 295 366 295 355.5 266.5 c 128,-1,32
 345 238 345 238 321.5 217 c 128,-1,33
 298 196 298 196 260.5 183.5 c 128,-1,34
 223 171 223 171 169 171 c 2,35,-1
 125 171 l 1,36,-1
 125 0 l 1,37,-1
 58 0 l 1,38,-1
 58 394 l 2,11,12
EndSplineSet
EndChar
StartChar: Q
Encoding: 81 81 50
Width: 478
Flags: W
Fore
416 -21 m 1,0,-1
 353 31 l 1,1,2
 306 -8 306 -8 239 -8 c 0,3,4
 188 -8 188 -8 151.5 11.5 c 128,-1,5
 115 31 115 31 91 64.5 c 128,-1,6
 67 98 67 98 56 143 c 128,-1,7
 45 188 45 188 45 239 c 256,8,9
 45 290 45 290 56.5 334.5 c 128,-1,10
 68 379 68 379 91.5 412.5 c 128,-1,11
 115 446 115 446 151.5 465.5 c 128,-1,12
 188 485 188 485 239 485 c 0,13,14
 289 485 289 485 325.5 465.5 c 128,-1,15
 362 446 362 446 385.5 412.5 c 128,-1,16
 409 379 409 379 420.5 334 c 128,-1,17
 432 289 432 289 432 239 c 0,18,19
 432 145 432 145 395 80 c 1,20,-1
 458 29 l 1,21,-1
 416 -21 l 1,0,-1
360 239 m 0,22,23
 360 272 360 272 353.5 304 c 128,-1,24
 347 336 347 336 333 360.5 c 128,-1,25
 319 385 319 385 295.5 400 c 128,-1,26
 272 415 272 415 239 415 c 0,27,28
 205 415 205 415 181.5 399.5 c 128,-1,29
 158 384 158 384 143.5 359 c 128,-1,30
 129 334 129 334 122.5 302.5 c 128,-1,31
 116 271 116 271 116 239 c 0,32,33
 116 205 116 205 122.5 173 c 128,-1,34
 129 141 129 141 144 116.5 c 128,-1,35
 159 92 159 92 182.5 77 c 128,-1,36
 206 62 206 62 239 62 c 0,37,38
 271 62 271 62 297 79 c 1,39,-1
 251 118 l 1,40,-1
 292 167 l 1,41,-1
 338 128 l 1,42,43
 360 175 360 175 360 239 c 0,22,23
EndSplineSet
EndChar
StartChar: R
Encoding: 82 82 51
Width: 417
Flags: W
Fore
298 327 m 0,0,1
 298 369 298 369 263 388 c 128,-1,2
 228 407 228 407 165 407 c 0,3,4
 153 407 153 407 139 407 c 128,-1,5
 125 407 125 407 122 405 c 1,6,-1
 122 238 l 1,7,-1
 165 238 l 2,8,9
 232 238 232 238 265 258.5 c 128,-1,10
 298 279 298 279 298 327 c 0,0,1
58 394 m 2,11,12
 58 403 58 403 52 410 c 128,-1,13
 46 417 46 417 40 423 c 128,-1,14
 34 429 34 429 30 435 c 128,-1,15
 26 441 26 441 29 448 c 0,16,17
 31 453 31 453 35.5 460 c 128,-1,18
 40 467 40 467 46 473 c 128,-1,19
 52 479 52 479 59 482.5 c 128,-1,20
 66 486 66 486 73 483 c 0,21,22
 76 481 76 481 79.5 479.5 c 128,-1,23
 83 478 83 478 87 476 c 1,24,-1
 163 476 l 2,25,26
 203 476 203 476 239.5 468 c 128,-1,27
 276 460 276 460 304 442.5 c 128,-1,28
 332 425 332 425 349 396.5 c 128,-1,29
 366 368 366 368 366 327 c 0,30,31
 366 295 366 295 357 270.5 c 128,-1,32
 348 246 348 246 333 229 c 128,-1,33
 318 212 318 212 299 201 c 128,-1,34
 280 190 280 190 261 184 c 1,35,-1
 383 1 l 1,36,-1
 313 -9 l 1,37,-1
 196 171 l 1,38,-1
 125 171 l 1,39,-1
 125 0 l 1,40,-1
 58 0 l 1,41,-1
 58 394 l 2,11,12
EndSplineSet
EndChar
StartChar: S
Encoding: 83 83 52
Width: 419
Flags: W
Fore
379 118 m 0,0,1
 377 89 377 89 365 64 c 128,-1,2
 353 39 353 39 330 21 c 128,-1,3
 307 3 307 3 273.5 -7 c 128,-1,4
 240 -17 240 -17 196 -15 c 0,5,6
 167 -14 167 -14 143.5 -8 c 128,-1,7
 120 -2 120 -2 101.5 7 c 128,-1,8
 83 16 83 16 68 27.5 c 128,-1,9
 53 39 53 39 41 51 c 1,10,-1
 90 107 l 1,11,12
 108 90 108 90 132 72 c 128,-1,13
 156 54 156 54 194 51 c 0,14,15
 211 49 211 49 230.5 52 c 128,-1,16
 250 55 250 55 266.5 62 c 128,-1,17
 283 69 283 69 295 81 c 128,-1,18
 307 93 307 93 309 111 c 0,19,20
 311 126 311 126 306.5 137.5 c 128,-1,21
 302 149 302 149 288.5 160.5 c 128,-1,22
 275 172 275 172 251 183 c 128,-1,23
 227 194 227 194 189 208 c 0,24,25
 123 231 123 231 89.5 264 c 128,-1,26
 56 297 56 297 51 339 c 0,27,28
 48 366 48 366 56.5 392.5 c 128,-1,29
 65 419 65 419 84 439.5 c 128,-1,30
 103 460 103 460 133 472.5 c 128,-1,31
 163 485 163 485 204 485 c 0,32,33
 221 485 221 485 241.5 482 c 128,-1,34
 262 479 262 479 282.5 472 c 128,-1,35
 303 465 303 465 321.5 453 c 128,-1,36
 340 441 340 441 354 424 c 1,37,-1
 320 368 l 1,38,39
 306 384 306 384 276 400 c 128,-1,40
 246 416 246 416 206 416 c 0,41,42
 183 416 183 416 167.5 410 c 128,-1,43
 152 404 152 404 142 395.5 c 128,-1,44
 132 387 132 387 128 378 c 128,-1,45
 124 369 124 369 123 363 c 0,46,47
 118 334 118 334 138.5 313 c 128,-1,48
 159 292 159 292 217 272 c 0,49,50
 248 261 248 261 278.5 247.5 c 128,-1,51
 309 234 309 234 332 216 c 128,-1,52
 355 198 355 198 368 174 c 128,-1,53
 381 150 381 150 379 118 c 0,0,1
EndSplineSet
EndChar
StartChar: T
Encoding: 84 84 53
Width: 389
Flags: W
Fore
41 411 m 2,0,1
 38 411 38 411 34.5 411.5 c 128,-1,2
 31 412 31 412 27 415 c 128,-1,3
 23 418 23 418 19.5 424.5 c 128,-1,4
 16 431 16 431 14 443 c 0,5,6
 11 464 11 464 21.5 471 c 128,-1,7
 32 478 32 478 46 477 c 2,8,-1
 337 477 l 2,9,10
 351 478 351 478 360.5 471 c 128,-1,11
 370 464 370 464 367 443 c 0,12,13
 365 430 365 430 362 423.5 c 128,-1,14
 359 417 359 417 355 414.5 c 128,-1,15
 351 412 351 412 347 411.5 c 128,-1,16
 343 411 343 411 339 411 c 2,17,-1
 223 411 l 1,18,-1
 223 0 l 1,19,-1
 156 0 l 1,20,-1
 156 411 l 1,21,-1
 41 411 l 2,0,1
EndSplineSet
EndChar
StartChar: U
Encoding: 85 85 54
Width: 493
Flags: W
Fore
429 158 m 1,0,1
 429 118 429 118 415 87 c 128,-1,2
 401 56 401 56 377 35 c 128,-1,3
 353 14 353 14 320 3 c 128,-1,4
 287 -8 287 -8 249 -8 c 0,5,6
 209 -8 209 -8 175 2 c 128,-1,7
 141 12 141 12 116.5 32.5 c 128,-1,8
 92 53 92 53 78.5 84.5 c 128,-1,9
 65 116 65 116 65 158 c 2,10,-1
 65 477 l 1,11,-1
 131 477 l 1,12,-1
 131 151 l 2,13,14
 131 100 131 100 164.5 76.5 c 128,-1,15
 198 53 198 53 249 53 c 256,16,17
 300 53 300 53 331.5 76.5 c 128,-1,18
 363 100 363 100 363 151 c 2,19,-1
 363 477 l 1,20,-1
 429 477 l 1,21,-1
 429 158 l 1,22,-1
 429 158 l 1,0,1
EndSplineSet
EndChar
StartChar: V
Encoding: 86 86 55
Width: 465
Flags: W
Fore
16 474 m 1,0,-1
 83 486 l 1,1,-1
 234 98 l 1,2,-1
 381 486 l 1,3,-1
 448 474 l 1,4,-1
 266 16 l 2,5,6
 264 9 264 9 255 -2.5 c 128,-1,7
 246 -14 246 -14 235 -19 c 0,8,9
 230 -21 230 -21 223 -19.5 c 128,-1,10
 216 -18 216 -18 208 -14.5 c 128,-1,11
 200 -11 200 -11 193.5 -6.5 c 128,-1,12
 187 -2 187 -2 184 1 c 1,13,14
 179 9 179 9 183 16 c 128,-1,15
 187 23 187 23 194 33 c 1,16,-1
 16 474 l 1,0,-1
EndSplineSet
EndChar
StartChar: W
Encoding: 87 87 56
Width: 659
Flags: W
Fore
499 127 m 1,0,-1
 571 482 l 1,1,-1
 637 471 l 1,2,-1
 544 39 l 1,3,4
 552 28 552 28 556.5 20.5 c 128,-1,5
 561 13 561 13 556 4 c 1,6,7
 553 1 553 1 546.5 -3.5 c 128,-1,8
 540 -8 540 -8 532 -11.5 c 128,-1,9
 524 -15 524 -15 516.5 -16.5 c 128,-1,10
 509 -18 509 -18 505 -16 c 0,11,12
 494 -11 494 -11 485 1 c 128,-1,13
 476 13 476 13 474 20 c 2,14,-1
 330 365 l 1,15,-1
 185 20 l 2,16,17
 183 13 183 13 174 1 c 128,-1,18
 165 -11 165 -11 154 -16 c 0,19,20
 149 -18 149 -18 142 -16.5 c 128,-1,21
 135 -15 135 -15 127 -11.5 c 128,-1,22
 119 -8 119 -8 112.5 -3.5 c 128,-1,23
 106 1 106 1 103 4 c 1,24,25
 98 13 98 13 102.5 20.5 c 128,-1,26
 107 28 107 28 115 39 c 1,27,-1
 22 471 l 1,28,-1
 88 482 l 1,29,-1
 160 127 l 1,30,-1
 307 474 l 1,31,32
 308 483 308 483 318 485.5 c 128,-1,33
 328 488 328 488 339 485 c 128,-1,34
 350 482 350 482 358 475.5 c 128,-1,35
 366 469 366 469 365 460 c 1,36,37
 366 460 366 460 366 459 c 256,38,39
 366 458 366 458 363 449 c 1,40,-1
 499 127 l 1,0,-1
EndSplineSet
EndChar
StartChar: X
Encoding: 88 88 57
Width: 441
Flags: W
Fore
355 -6 m 1,0,-1
 222 197 l 1,1,-1
 88 -4 l 1,2,-1
 24 10 l 1,3,-1
 189 253 l 1,4,-1
 40 468 l 1,5,-1
 108 481 l 1,6,-1
 222 301 l 1,7,-1
 338 480 l 1,8,-1
 404 468 l 1,9,-1
 253 246 l 1,10,-1
 419 8 l 1,11,-1
 355 -6 l 1,0,-1
EndSplineSet
EndChar
StartChar: Y
Encoding: 89 89 58
Width: 400
Flags: W
Fore
384 474 m 1,0,1
 377.5 463 l 130,-1,2
 371 452 371 452 360 434.5 c 128,-1,3
 349 417 349 417 335 394.5 c 128,-1,4
 321 372 321 372 307 349 c 0,5,6
 274 294 274 294 231 224 c 1,7,-1
 231 0 l 1,8,-1
 166 0 l 1,9,-1
 166 224 l 1,10,11
 123 294 123 294 90 349 c 0,12,13
 76 373 76 373 62 395.5 c 128,-1,14
 48 418 48 418 37.5 435.5 c 128,-1,15
 27 453 27 453 20.5 464 c 128,-1,16
 15 474 15 474 14 475 c 1,17,-1
 76 487 l 1,18,-1
 198 274 l 1,19,-1
 322 486 l 1,20,-1
 384 474 l 1,21,-1
 384 474 l 1,0,1
EndSplineSet
EndChar
StartChar: Z
Encoding: 90 90 59
Width: 406
Flags: W
Fore
27 410 m 1,0,-1
 27 475 l 1,1,-1
 322 475 l 1,2,3
 326 477 326 477 333 480.5 c 128,-1,4
 340 484 340 484 343 486 c 1,5,6
 357 491 357 491 367 480.5 c 128,-1,7
 377 470 377 470 386 450 c 0,8,9
 389 443 389 443 385 436.5 c 128,-1,10
 381 430 381 430 374 423.5 c 128,-1,11
 367 417 367 417 359 410.5 c 128,-1,12
 351 404 351 404 346 396 c 2,13,-1
 133 65 l 1,14,-1
 380 65 l 1,15,-1
 380 0 l 1,16,-1
 82 0 l 1,17,18
 78 -2 78 -2 71 -5.5 c 128,-1,19
 64 -9 64 -9 61 -11 c 1,20,21
 47 -16 47 -16 37 -5.5 c 128,-1,22
 27 5 27 5 18 25 c 0,23,24
 15 32 15 32 19 38.5 c 128,-1,25
 23 45 23 45 30 51.5 c 128,-1,26
 37 58 37 58 45 64.5 c 128,-1,27
 53 71 53 71 58 79 c 2,28,-1
 271 410 l 1,29,-1
 27 410 l 1,0,-1
EndSplineSet
EndChar
StartChar: bracketleft
Encoding: 91 91 60
Width: 245
Flags: W
Fore
49 -92 m 1,0,-1
 49 497 l 1,1,-1
 187 497 l 1,2,-1
 187 433 l 1,3,-1
 110 433 l 1,4,-1
 110 -29 l 1,5,-1
 187 -29 l 1,6,-1
 187 -92 l 1,7,-1
 49 -92 l 1,0,-1
EndSplineSet
EndChar
StartChar: backslash
Encoding: 92 92 61
Width: 225
Flags: W
Fore
180 -17 m 1,0,-1
 -14 497 l 1,1,-1
 46 497 l 1,2,-1
 240 -17 l 1,3,-1
 180 -17 l 1,0,-1
EndSplineSet
EndChar
StartChar: bracketright
Encoding: 93 93 62
Width: 246
Flags: W
Fore
58 -92 m 1,0,-1
 58 -29 l 1,1,-1
 135 -29 l 1,2,-1
 135 433 l 1,3,-1
 58 433 l 1,4,-1
 58 497 l 1,5,-1
 196 497 l 1,6,-1
 196 -92 l 1,7,-1
 58 -92 l 1,0,-1
EndSplineSet
EndChar
StartChar: asciicircum
Encoding: 94 94 63
Width: 401
Flags: W
Fore
274 213 m 1,0,-1
 199 394 l 1,1,-1
 125 213 l 1,2,-1
 54 213 l 1,3,-1
 159 467 l 1,4,-1
 240 467 l 1,5,-1
 345 213 l 1,6,-1
 274 213 l 1,0,-1
EndSplineSet
EndChar
StartChar: underscore
Encoding: 95 95 64
Width: 372
Flags: W
Fore
0 -100 m 1,0,-1
 0 -50 l 1,1,-1
 372 -50 l 1,2,-1
 372 -100 l 1,3,-1
 0 -100 l 1,0,-1
EndSplineSet
EndChar
StartChar: grave
Encoding: 96 96 65
Width: 216
Flags: W
Fore
181 386 m 1,0,-1
 123 386 l 1,1,-1
 23 491 l 1,2,-1
 116 490 l 1,3,-1
 181 386 l 1,0,-1
EndSplineSet
EndChar
StartChar: a
Encoding: 97 97 66
Width: 405
Flags: W
Fore
287 191 m 2,0,1
 285 209 285 209 278 227 c 128,-1,2
 271 245 271 245 259.5 259.5 c 128,-1,3
 248 274 248 274 230.5 283.5 c 128,-1,4
 213 293 213 293 190 293 c 0,5,6
 164 293 164 293 146 281 c 128,-1,7
 128 269 128 269 117 251 c 128,-1,8
 106 233 106 233 101 212 c 128,-1,9
 96 191 96 191 96 173 c 0,10,11
 96 158 96 158 100.5 137 c 128,-1,12
 105 116 105 116 115.5 97.5 c 128,-1,13
 126 79 126 79 144 66 c 128,-1,14
 162 53 162 53 190 53 c 0,15,16
 212 53 212 53 229.5 62 c 128,-1,17
 247 71 247 71 259 85.5 c 128,-1,18
 271 100 271 100 278 118.5 c 128,-1,19
 285 137 285 137 287 156 c 2,20,-1
 287 191 l 2,0,1
291 29 m 1,21,22
 271 10 271 10 245.5 2 c 128,-1,23
 220 -6 220 -6 190 -6 c 0,24,25
 150 -6 150 -6 121 10 c 128,-1,26
 92 26 92 26 73 51.5 c 128,-1,27
 54 77 54 77 44.5 109 c 128,-1,28
 35 141 35 141 35 173 c 0,29,30
 35 206 35 206 44.5 238 c 128,-1,31
 54 270 54 270 73 295.5 c 128,-1,32
 92 321 92 321 121 337 c 128,-1,33
 150 353 150 353 190 353 c 0,34,35
 219 353 219 353 244 341.5 c 128,-1,36
 269 330 269 330 288 312 c 1,37,-1
 288 349 l 1,38,-1
 351 349 l 1,39,-1
 351 82 l 2,40,41
 351 52 351 52 354.5 37.5 c 128,-1,42
 358 23 358 23 366 6 c 1,43,-1
 308 -14 l 1,44,45
 301 -1 301 -1 297 8.5 c 128,-1,46
 293 18 293 18 291 29 c 1,21,22
EndSplineSet
Substitution: 0 65534 'L026' uni0E38
Substitution: 0 65534 'L026' uni0E38
EndChar
StartChar: b
Encoding: 98 98 67
Width: 403
Flags: W
Fore
118 35 m 1,0,1
 116 24 116 24 111.5 14.5 c 128,-1,2
 107 5 107 5 100 -8 c 1,3,-1
 42 12 l 1,4,5
 50 29 50 29 53.5 43.5 c 128,-1,6
 57 58 57 58 57 88 c 2,7,-1
 57 489 l 1,8,-1
 119 489 l 1,9,-1
 119 313 l 1,10,11
 139 331 139 331 164 342.5 c 128,-1,12
 189 354 189 354 218 354 c 0,13,14
 258 354 258 354 287 338.5 c 128,-1,15
 316 323 316 323 335 297.5 c 128,-1,16
 354 272 354 272 363.5 240 c 128,-1,17
 373 208 373 208 373 176 c 0,18,19
 373 143 373 143 363.5 111 c 128,-1,20
 354 79 354 79 335 53.5 c 128,-1,21
 316 28 316 28 287 12 c 128,-1,22
 258 -4 258 -4 218 -4 c 0,23,24
 160 -4 160 -4 118 35 c 1,0,1
312 176 m 0,25,26
 312 191 312 191 308 211.5 c 128,-1,27
 304 232 304 232 293.5 250.5 c 128,-1,28
 283 269 283 269 264.5 282 c 128,-1,29
 246 295 246 295 218 295 c 0,30,31
 195 295 195 295 177.5 285 c 128,-1,32
 160 275 160 275 148.5 259 c 128,-1,33
 137 243 137 243 130 224.5 c 128,-1,34
 123 206 123 206 121 188 c 2,35,-1
 121 154 l 2,36,37
 123 135 123 135 130.5 117 c 128,-1,38
 138 99 138 99 150 85.5 c 128,-1,39
 162 72 162 72 179 64 c 128,-1,40
 196 56 196 56 218 56 c 0,41,42
 246 56 246 56 264.5 69 c 128,-1,43
 283 82 283 82 293.5 100.5 c 128,-1,44
 304 119 304 119 308 139.5 c 128,-1,45
 312 160 312 160 312 176 c 0,25,26
EndSplineSet
Substitution: 0 65534 'L026' uni0E39
Substitution: 0 65534 'L026' uni0E39
EndChar
StartChar: c
Encoding: 99 99 68
Width: 326
Flags: W
Fore
295 33 m 2,0,1
 260 1 260 1 213.5 -6 c 128,-1,2
 167 -13 167 -13 126 4.5 c 128,-1,3
 85 22 85 22 56.5 64.5 c 128,-1,4
 28 107 28 107 28 175 c 0,5,6
 28 242 28 242 55.5 285 c 128,-1,7
 83 328 83 328 123.5 345.5 c 128,-1,8
 164 363 164 363 210 355 c 128,-1,9
 256 347 256 347 294 313 c 1,10,-1
 266 253 l 1,11,12
 241 285 241 285 210 293 c 128,-1,13
 179 301 179 301 156 293 c 0,14,15
 124 281 124 281 106.5 250 c 128,-1,16
 89 219 89 219 89 175 c 0,17,18
 89 130 89 130 106.5 99.5 c 128,-1,19
 124 69 124 69 156 58 c 0,20,21
 166 54 166 54 179.5 52.5 c 128,-1,22
 193 51 193 51 208 54 c 128,-1,23
 223 57 223 57 238 65 c 128,-1,24
 253 73 253 73 265 88 c 1,25,-1
 305 42 l 1,26,-1
 295 33 l 2,0,1
EndSplineSet
Substitution: 0 65534 'L026' uni0E3A
Substitution: 0 65534 'L026' uni0E3A
EndChar
StartChar: d
Encoding: 100 100 69
Width: 403
Flags: W
Fore
350 88 m 2,0,1
 350 58 350 58 353.5 43.5 c 128,-1,2
 357 29 357 29 365 12 c 1,3,-1
 307 -8 l 1,4,5
 300 5 300 5 295.5 14 c 128,-1,6
 291 23 291 23 289 34 c 1,7,8
 248 -4 248 -4 189 -4 c 0,9,10
 149 -4 149 -4 120 12 c 128,-1,11
 91 28 91 28 72 53.5 c 128,-1,12
 53 79 53 79 43.5 111 c 128,-1,13
 34 143 34 143 34 176 c 0,14,15
 34 208 34 208 43.5 240 c 128,-1,16
 53 272 53 272 72 297.5 c 128,-1,17
 91 323 91 323 120 338.5 c 128,-1,18
 149 354 149 354 189 354 c 0,19,20
 218 354 218 354 243 342.5 c 128,-1,21
 268 331 268 331 288 313 c 1,22,-1
 288 489 l 1,23,-1
 350 489 l 1,24,-1
 350 88 l 2,0,1
95 176 m 0,25,26
 95 160 95 160 99 139.5 c 128,-1,27
 103 119 103 119 113.5 100.5 c 128,-1,28
 124 82 124 82 142.5 69 c 128,-1,29
 161 56 161 56 189 56 c 0,30,31
 211 56 211 56 228 64 c 128,-1,32
 245 72 245 72 257 85.5 c 128,-1,33
 269 99 269 99 276.5 117 c 128,-1,34
 284 135 284 135 286 154 c 2,35,-1
 286 188 l 2,36,37
 284 206 284 206 277 224.5 c 128,-1,38
 270 243 270 243 258.5 259 c 128,-1,39
 247 275 247 275 229.5 285 c 128,-1,40
 212 295 212 295 189 295 c 0,41,42
 161 295 161 295 142.5 282 c 128,-1,43
 124 269 124 269 113.5 250.5 c 128,-1,44
 103 232 103 232 99 211.5 c 128,-1,45
 95 191 95 191 95 176 c 0,25,26
EndSplineSet
EndChar
StartChar: e
Encoding: 101 101 70
Width: 391
Flags: W
Fore
358 180 m 2,0,1
 358 161 358 161 348 153.5 c 128,-1,2
 338 146 338 146 318 146 c 2,3,-1
 101 146 l 1,4,5
 105 111 105 111 124 88.5 c 128,-1,6
 143 66 143 66 166 57 c 0,7,8
 193 46 193 46 221.5 51.5 c 128,-1,9
 250 57 250 57 285 80 c 1,10,-1
 323 33 l 1,11,12
 310 21 310 21 287.5 11 c 128,-1,13
 265 1 265 1 238 -3 c 128,-1,14
 211 -7 211 -7 183 -5 c 128,-1,15
 155 -3 155 -3 131 9 c 0,16,17
 84 31 84 31 58.5 73.5 c 128,-1,18
 33 116 33 116 33 173 c 0,19,20
 33 200 33 200 42 231.5 c 128,-1,21
 51 263 51 263 71 290 c 128,-1,22
 91 317 91 317 123 335 c 128,-1,23
 155 353 155 353 201 353 c 0,24,25
 266 353 266 353 307 314 c 0,26,27
 322 299 322 299 332 281 c 128,-1,28
 342 263 342 263 348 245 c 128,-1,29
 354 227 354 227 356 211 c 128,-1,30
 358 195 358 195 358 183 c 2,31,-1
 358 180 l 2,0,1
293 205 m 1,32,33
 293 242 293 242 266.5 269.5 c 128,-1,34
 240 297 240 297 199 297 c 0,35,36
 173 297 173 297 156 287.5 c 128,-1,37
 139 278 139 278 127.5 263.5 c 128,-1,38
 116 249 116 249 110.5 233 c 128,-1,39
 105 217 105 217 103 205 c 1,40,-1
 293 205 l 1,32,33
EndSplineSet
EndChar
StartChar: f
Encoding: 102 102 71
Width: 224
Flags: W
Fore
218 427 m 1,0,1
 177 439 177 439 155.5 432.5 c 128,-1,2
 134 426 134 426 134 381 c 2,3,-1
 134 349 l 1,4,-1
 217 349 l 1,5,-1
 206 298 l 1,6,-1
 134 298 l 1,7,-1
 134 15 l 2,8,9
 134 -11 134 -11 128.5 -32.5 c 128,-1,10
 123 -54 123 -54 115.5 -70 c 128,-1,11
 108 -86 108 -86 101 -96 c 128,-1,12
 94 -106 94 -106 92 -109 c 1,13,-1
 33 -92 l 1,14,15
 56 -66 56 -66 64.5 -40 c 128,-1,16
 73 -14 73 -14 73 14 c 2,17,-1
 73 298 l 1,18,-1
 11 298 l 1,19,-1
 22 349 l 1,20,-1
 73 349 l 1,21,-1
 73 394 l 2,22,23
 73 431 73 431 86.5 452 c 128,-1,24
 100 473 100 473 121.5 482 c 128,-1,25
 143 491 143 491 170.5 489.5 c 128,-1,26
 198 488 198 488 227 480 c 1,27,-1
 218 427 l 1,0,1
EndSplineSet
EndChar
StartChar: g
Encoding: 103 103 72
Width: 403
Flags: W
Fore
349 260 m 2,0,-1
 350 20 l 2,1,2
 350 -62 350 -62 294 -104 c 0,3,4
 258 -131 258 -131 209.5 -137 c 128,-1,5
 161 -143 161 -143 114 -133 c 1,6,-1
 135 -78 l 1,7,8
 212 -92 212 -92 251 -61 c 0,9,10
 289 -31 289 -31 287 31 c 1,11,12
 247 -7 247 -7 188 -7 c 0,13,14
 148 -7 148 -7 119 9 c 128,-1,15
 90 25 90 25 71 51 c 128,-1,16
 52 77 52 77 43 109 c 128,-1,17
 34 141 34 141 34 174 c 0,18,19
 34 206 34 206 43 238.5 c 128,-1,20
 52 271 52 271 71 296.5 c 128,-1,21
 90 322 90 322 119 338 c 128,-1,22
 148 354 148 354 188 354 c 0,23,24
 249 354 249 354 288 315 c 1,25,26
 290 326 290 326 294.5 334.5 c 128,-1,27
 299 343 299 343 306 356 c 1,28,-1
 366 336 l 1,29,30
 358 319 358 319 353.5 304.5 c 128,-1,31
 349 290 349 290 349 260 c 2,0,-1
286 190 m 1,32,33
 284 209 284 209 276.5 228 c 128,-1,34
 269 247 269 247 257 261.5 c 128,-1,35
 245 276 245 276 227.5 285 c 128,-1,36
 210 294 210 294 188 294 c 0,37,38
 160 294 160 294 141.5 281 c 128,-1,39
 123 268 123 268 112.5 249.5 c 128,-1,40
 102 231 102 231 97.5 210 c 128,-1,41
 93 189 93 189 93 174 c 0,42,43
 93 156 93 156 98 134.5 c 128,-1,44
 103 113 103 113 114.5 95 c 128,-1,45
 126 77 126 77 144 65 c 128,-1,46
 162 53 162 53 188 53 c 0,47,48
 211 53 211 53 228.5 62.5 c 128,-1,49
 246 72 246 72 257.5 86.5 c 128,-1,50
 269 101 269 101 276 119 c 128,-1,51
 283 137 283 137 285 155 c 2,52,-1
 285 160 l 2,53,54
 285 164 285 164 285 170.5 c 128,-1,55
 285 177 285 177 286 190 c 1,32,33
EndSplineSet
EndChar
StartChar: h
Encoding: 104 104 73
Width: 403
Flags: W
Fore
302 -12 m 1,0,1
 295 1 295 1 289 18.5 c 128,-1,2
 283 36 283 36 283 67 c 2,3,-1
 283 220 l 2,4,5
 283 242 283 242 275.5 257 c 128,-1,6
 268 272 268 272 256.5 281.5 c 128,-1,7
 245 291 245 291 232 295 c 128,-1,8
 219 299 219 299 208 299 c 0,9,10
 187 299 187 299 171 290 c 128,-1,11
 155 281 155 281 143.5 266.5 c 128,-1,12
 132 252 132 252 126 234 c 128,-1,13
 120 216 120 216 120 197 c 2,14,-1
 120 0 l 1,15,-1
 59 0 l 1,16,-1
 59 489 l 1,17,-1
 121 489 l 1,18,-1
 121 317 l 1,19,20
 139 334 139 334 161.5 343.5 c 128,-1,21
 184 353 184 353 210 353 c 0,22,23
 238 353 238 353 262.5 343 c 128,-1,24
 287 333 287 333 305 315 c 128,-1,25
 323 297 323 297 333.5 272.5 c 128,-1,26
 344 248 344 248 344 220 c 2,27,-1
 344 67 l 2,28,29
 344 59 344 59 345 42.5 c 128,-1,30
 346 26 346 26 360 9 c 1,31,-1
 302 -12 l 1,0,1
EndSplineSet
EndChar
StartChar: i
Encoding: 105 105 74
Width: 194
Flags: W
Fore
138 436 m 256,0,1
 138 419 138 419 126 407 c 128,-1,2
 114 395 114 395 97 395 c 256,3,4
 80 395 80 395 67 407 c 128,-1,5
 54 419 54 419 54 436 c 256,6,7
 54 453 54 453 66.5 465 c 128,-1,8
 79 477 79 477 97 477 c 0,9,10
 114 477 114 477 126 465 c 128,-1,11
 138 453 138 453 138 436 c 256,0,1
67 0 m 1,12,-1
 67 349 l 1,13,-1
 127 349 l 1,14,-1
 127 0 l 1,15,-1
 67 0 l 1,12,-1
EndSplineSet
EndChar
StartChar: j
Encoding: 106 106 75
Width: 194
Flags: W
Fore
137 437 m 256,0,1
 137 420 137 420 124.5 408 c 128,-1,2
 112 396 112 396 95 396 c 256,3,4
 78 396 78 396 65.5 408 c 128,-1,5
 53 420 53 420 53 437 c 256,6,7
 53 454 53 454 65.5 466 c 128,-1,8
 78 478 78 478 95 478 c 0,9,10
 113 478 113 478 125 466 c 128,-1,11
 137 454 137 454 137 437 c 256,0,1
127 2 m 2,12,13
 127 -31 127 -31 122 -56 c 128,-1,14
 117 -81 117 -81 101 -98.5 c 128,-1,15
 85 -116 85 -116 55 -126.5 c 128,-1,16
 25 -137 25 -137 -25 -142 c 1,17,-1
 -50 -89 l 1,18,19
 -8 -86 -8 -86 16 -81 c 128,-1,20
 40 -76 40 -76 51 -66 c 128,-1,21
 62 -56 62 -56 64.5 -41 c 128,-1,22
 67 -26 67 -26 67 -2 c 2,23,-1
 67 349 l 1,24,-1
 127 349 l 1,25,-1
 127 2 l 2,12,13
EndSplineSet
EndChar
StartChar: k
Encoding: 107 107 76
Width: 338
Flags: W
Fore
282 -11 m 1,0,1
 231 40 231 40 198.5 73 c 128,-1,2
 166 106 166 106 147 126 c 0,3,4
 125 149 125 149 114 162 c 1,5,-1
 114 0 l 1,6,-1
 52 0 l 1,7,-1
 52 489 l 1,8,-1
 114 489 l 1,9,-1
 114 236 l 1,10,11
 125 245 125 245 144 262 c 0,12,13
 161 276 161 276 188.5 299 c 128,-1,14
 216 322 216 322 259 357 c 1,15,-1
 316 335 l 1,16,17
 260 289 260 289 228 262.5 c 128,-1,18
 196 236 196 236 179 222 c 0,19,20
 159 205 159 205 152 200 c 1,21,22
 159 193 159 193 181 170 c 0,23,24
 200 150 200 150 237 112.5 c 128,-1,25
 274 75 274 75 339 9 c 1,26,-1
 282 -11 l 1,0,1
EndSplineSet
EndChar
StartChar: l
Encoding: 108 108 77
Width: 195
Flags: W
Fore
67 0 m 1,0,-1
 67 484 l 1,1,-1
 93 507 l 1,2,-1
 128 507 l 1,3,-1
 128 0 l 1,4,-1
 67 0 l 1,0,-1
EndSplineSet
EndChar
StartChar: m
Encoding: 109 109 78
Width: 592
Flags: W
Fore
58 260 m 2,0,1
 58 290 58 290 54.5 304.5 c 128,-1,2
 51 319 51 319 43 336 c 1,3,-1
 101 356 l 1,4,5
 108 343 108 343 111 335.5 c 128,-1,6
 114 328 114 328 116 317 c 1,7,8
 152 353 152 353 203 353 c 0,9,10
 235 353 235 353 262 339 c 128,-1,11
 289 325 289 325 305 301 c 1,12,13
 322 325 322 325 349.5 339 c 128,-1,14
 377 353 377 353 409 353 c 0,15,16
 444 353 444 353 468 340.5 c 128,-1,17
 492 328 492 328 507 308 c 128,-1,18
 522 288 522 288 528.5 264 c 128,-1,19
 535 240 535 240 535 216 c 2,20,-1
 535 69 l 2,21,22
 536 54 536 54 539 42 c 0,23,24
 541 31 541 31 543.5 22 c 128,-1,25
 546 13 546 13 550 11 c 1,26,-1
 493 -11 l 1,27,-1
 488 -1 l 2,28,29
 485 4 485 4 480 21 c 128,-1,30
 475 38 475 38 475 69 c 2,31,-1
 475 224 l 2,32,33
 475 259 475 259 458 278 c 128,-1,34
 441 297 441 297 409 297 c 0,35,36
 389 297 389 297 373.5 288.5 c 128,-1,37
 358 280 358 280 348 266.5 c 128,-1,38
 338 253 338 253 333 236 c 128,-1,39
 328 219 328 219 328 201 c 2,40,-1
 328 0 l 1,41,-1
 267 0 l 1,42,-1
 267 224 l 2,43,44
 267 257 267 257 247 277 c 128,-1,45
 227 297 227 297 194 297 c 0,46,47
 173 297 173 297 158.5 288.5 c 128,-1,48
 144 280 144 280 135.5 266 c 128,-1,49
 127 252 127 252 123 235 c 128,-1,50
 119 218 119 218 119 201 c 2,51,-1
 119 0 l 1,52,-1
 58 0 l 1,53,-1
 58 260 l 2,0,1
EndSplineSet
EndChar
StartChar: n
Encoding: 110 110 79
Width: 393
Flags: W
Fore
58 260 m 2,0,1
 58 290 58 290 54.5 304.5 c 128,-1,2
 51 319 51 319 43 336 c 1,3,-1
 101 356 l 1,4,5
 108 343 108 343 111 335 c 128,-1,6
 114 327 114 327 116 316 c 1,7,8
 133 333 133 333 156.5 343.5 c 128,-1,9
 180 354 180 354 207 354 c 0,10,11
 245 354 245 354 269.5 340.5 c 128,-1,12
 294 327 294 327 308.5 307 c 128,-1,13
 323 287 323 287 328.5 264 c 128,-1,14
 334 241 334 241 334 223 c 2,15,-1
 334 67 l 2,16,17
 334 61 334 61 338 41 c 128,-1,18
 342 21 342 21 351 9 c 1,19,-1
 292 -12 l 1,20,21
 285 1 285 1 279.5 18.5 c 128,-1,22
 274 36 274 36 274 67 c 2,23,-1
 274 224 l 2,24,25
 274 257 274 257 254 276.5 c 128,-1,26
 234 296 234 296 200 296 c 0,27,28
 180 296 180 296 165 288 c 128,-1,29
 150 280 150 280 140 266.5 c 128,-1,30
 130 253 130 253 125 236.5 c 128,-1,31
 120 220 120 220 120 202 c 2,32,-1
 120 0 l 1,33,-1
 58 0 l 1,34,-1
 58 260 l 2,0,1
EndSplineSet
EndChar
StartChar: o
Encoding: 111 111 80
Width: 384
Flags: W
Fore
345 174 m 0,0,1
 345 141 345 141 335 109 c 128,-1,2
 325 77 325 77 305.5 52 c 128,-1,3
 286 27 286 27 257 11.5 c 128,-1,4
 228 -4 228 -4 190 -4 c 0,5,6
 150 -4 150 -4 120.5 11.5 c 128,-1,7
 91 27 91 27 72 52.5 c 128,-1,8
 53 78 53 78 44 110 c 128,-1,9
 35 142 35 142 35 174 c 256,10,11
 35 206 35 206 44 238 c 128,-1,12
 53 270 53 270 72 295.5 c 128,-1,13
 91 321 91 321 120.5 336.5 c 128,-1,14
 150 352 150 352 190 352 c 256,15,16
 230 352 230 352 259.5 336.5 c 128,-1,17
 289 321 289 321 308 295.5 c 128,-1,18
 327 270 327 270 336 238 c 128,-1,19
 345 206 345 206 345 174 c 0,0,1
283 174 m 0,20,21
 283 193 283 193 277.5 214.5 c 128,-1,22
 272 236 272 236 260.5 254.5 c 128,-1,23
 249 273 249 273 231.5 285 c 128,-1,24
 214 297 214 297 190 297 c 0,25,26
 167 297 167 297 149.5 286 c 128,-1,27
 132 275 132 275 120 257.5 c 128,-1,28
 108 240 108 240 102 218 c 128,-1,29
 96 196 96 196 96 174 c 256,30,31
 96 152 96 152 102 130 c 128,-1,32
 108 108 108 108 120 90.5 c 128,-1,33
 132 73 132 73 149.5 62 c 128,-1,34
 167 51 167 51 190 51 c 0,35,36
 212 51 212 51 229.5 62 c 128,-1,37
 247 73 247 73 259 90.5 c 128,-1,38
 271 108 271 108 277 130 c 128,-1,39
 283 152 283 152 283 174 c 0,20,21
EndSplineSet
EndChar
StartChar: p
Encoding: 112 112 81
Width: 403
Flags: W
Fore
311 174 m 256,0,1
 311 192 311 192 306 213 c 128,-1,2
 301 234 301 234 290 252.5 c 128,-1,3
 279 271 279 271 261 283 c 128,-1,4
 243 295 243 295 217 295 c 0,5,6
 193 295 193 295 176 285.5 c 128,-1,7
 159 276 159 276 147 261 c 128,-1,8
 135 246 135 246 128.5 227.5 c 128,-1,9
 122 209 122 209 120 191 c 2,10,-1
 120 156 l 2,11,12
 122 138 122 138 129 120 c 128,-1,13
 136 102 136 102 147.5 87 c 128,-1,14
 159 72 159 72 176.5 62.5 c 128,-1,15
 194 53 194 53 217 53 c 0,16,17
 243 53 243 53 261 65 c 128,-1,18
 279 77 279 77 290 95 c 128,-1,19
 301 113 301 113 306 134.5 c 128,-1,20
 311 156 311 156 311 174 c 256,0,1
117 314 m 1,21,22
 157 354 157 354 217 354 c 0,23,24
 257 354 257 354 286 338 c 128,-1,25
 315 322 315 322 334 296.5 c 128,-1,26
 353 271 353 271 362.5 239 c 128,-1,27
 372 207 372 207 372 174 c 256,28,29
 372 141 372 141 362.5 109 c 128,-1,30
 353 77 353 77 334 51.5 c 128,-1,31
 315 26 315 26 286 10 c 128,-1,32
 257 -6 257 -6 217 -6 c 0,33,34
 157 -6 157 -6 118 30 c 1,35,-1
 118 -69 l 2,36,37
 118 -99 118 -99 112.5 -117 c 128,-1,38
 107 -135 107 -135 100 -148 c 1,39,-1
 45 -127 l 1,40,41
 46 -126 46 -126 48 -119.5 c 128,-1,42
 50 -113 50 -113 52 -104 c 128,-1,43
 54 -95 54 -95 55.5 -86 c 128,-1,44
 57 -77 57 -77 57 -69 c 2,45,-1
 57 260 l 2,46,47
 57 290 57 290 52.5 304.5 c 128,-1,48
 48 319 48 319 40 336 c 1,49,-1
 100 356 l 1,50,51
 107 343 107 343 111 334 c 128,-1,52
 115 325 115 325 117 314 c 1,21,22
EndSplineSet
EndChar
StartChar: q
Encoding: 113 113 82
Width: 403
Flags: W
Fore
287 315 m 1,0,1
 289 326 289 326 293 334.5 c 128,-1,2
 297 343 297 343 304 356 c 1,3,-1
 364 336 l 1,4,5
 356 319 356 319 351.5 304.5 c 128,-1,6
 347 290 347 290 347 260 c 2,7,-1
 347 -69 l 2,8,9
 347 -83 347 -83 350.5 -99.5 c 128,-1,10
 354 -116 354 -116 363 -127 c 1,11,-1
 304 -148 l 1,12,13
 297 -135 297 -135 291.5 -117 c 128,-1,14
 286 -99 286 -99 286 -69 c 2,15,-1
 286 30 l 1,16,17
 247 -6 247 -6 187 -6 c 0,18,19
 147 -6 147 -6 117.5 10 c 128,-1,20
 88 26 88 26 69 51.5 c 128,-1,21
 50 77 50 77 41 109 c 128,-1,22
 32 141 32 141 32 174 c 256,23,24
 32 207 32 207 41 239 c 128,-1,25
 50 271 50 271 69 296.5 c 128,-1,26
 88 322 88 322 117.5 338 c 128,-1,27
 147 354 147 354 187 354 c 0,28,29
 248 354 248 354 287 315 c 1,0,1
284 190 m 2,30,31
 282 208 282 208 275.5 226.5 c 128,-1,32
 269 245 269 245 257 260.5 c 128,-1,33
 245 276 245 276 228 285.5 c 128,-1,34
 211 295 211 295 187 295 c 0,35,36
 161 295 161 295 142.5 283 c 128,-1,37
 124 271 124 271 113 252.5 c 128,-1,38
 102 234 102 234 97 213 c 128,-1,39
 92 192 92 192 92 174 c 256,40,41
 92 156 92 156 97 134.5 c 128,-1,42
 102 113 102 113 113.5 95 c 128,-1,43
 125 77 125 77 143 65 c 128,-1,44
 161 53 161 53 187 53 c 0,45,46
 210 53 210 53 227 62.5 c 128,-1,47
 244 72 244 72 256 87 c 128,-1,48
 268 102 268 102 275 120 c 128,-1,49
 282 138 282 138 284 156 c 2,50,-1
 284 190 l 2,30,31
EndSplineSet
EndChar
StartChar: r
Encoding: 114 114 83
Width: 265
Flags: W
Fore
61 260 m 2,0,1
 61 290 61 290 57.5 304.5 c 128,-1,2
 54 319 54 319 46 336 c 1,3,-1
 104 356 l 1,4,5
 111 343 111 343 113 336 c 128,-1,6
 115 329 115 329 117 318 c 1,7,8
 179 388 179 388 277 337 c 1,9,-1
 238 280 l 1,10,11
 214 296 214 296 193.5 295.5 c 128,-1,12
 173 295 173 295 157 282 c 128,-1,13
 141 269 141 269 132 246 c 128,-1,14
 123 223 123 223 123 193 c 2,15,-1
 123 0 l 1,16,-1
 61 0 l 1,17,-1
 61 260 l 2,0,1
EndSplineSet
EndChar
StartChar: s
Encoding: 115 115 84
Width: 337
Flags: W
Fore
310 97 m 0,0,1
 310 49 310 49 274 22 c 128,-1,2
 238 -5 238 -5 173 -6 c 0,3,4
 122 -7 122 -7 89.5 8.5 c 128,-1,5
 57 24 57 24 28 47 c 1,6,-1
 72 90 l 1,7,8
 98 67 98 67 122.5 57 c 128,-1,9
 147 47 147 47 174 48 c 0,10,11
 208 49 208 49 228 60 c 128,-1,12
 248 71 248 71 248 90 c 0,13,14
 248 100 248 100 245 107.5 c 128,-1,15
 242 115 242 115 232.5 121.5 c 128,-1,16
 223 128 223 128 205.5 135 c 128,-1,17
 188 142 188 142 160 152 c 0,18,19
 48 189 48 189 48 254 c 0,20,21
 48 273 48 273 56 291.5 c 128,-1,22
 64 310 64 310 80 324.5 c 128,-1,23
 96 339 96 339 119.5 348 c 128,-1,24
 143 357 143 357 174 357 c 0,25,26
 200 357 200 357 234.5 346 c 128,-1,27
 269 335 269 335 292 320 c 1,28,-1
 265 268 l 1,29,30
 248 279 248 279 224 290 c 128,-1,31
 200 301 200 301 173 301 c 0,32,33
 145 301 145 301 128 289.5 c 128,-1,34
 111 278 111 278 111 259 c 256,35,36
 111 240 111 240 130 228.5 c 128,-1,37
 149 217 149 217 192 203 c 0,38,39
 217 194 217 194 238.5 184.5 c 128,-1,40
 260 175 260 175 276 163 c 128,-1,41
 292 151 292 151 301 135 c 128,-1,42
 310 119 310 119 310 97 c 0,0,1
EndSplineSet
EndChar
StartChar: t
Encoding: 116 116 85
Width: 236
Flags: W
Fore
160 -8 m 1,0,1
 127 -8 127 -8 108.5 2.5 c 128,-1,2
 90 13 90 13 82 28.5 c 128,-1,3
 74 44 74 44 72.5 62.5 c 128,-1,4
 71 81 71 81 71 97 c 2,5,-1
 71 298 l 1,6,-1
 7 298 l 1,7,-1
 21 349 l 1,8,-1
 71 349 l 1,9,-1
 71 429 l 1,10,-1
 102 452 l 1,11,-1
 132 452 l 1,12,-1
 132 349 l 1,13,-1
 212 349 l 1,14,-1
 197 298 l 1,15,-1
 132 298 l 1,16,-1
 132 83 l 2,17,18
 132 65 132 65 138 57 c 128,-1,19
 144 49 144 49 154.5 47.5 c 128,-1,20
 165 46 165 46 178 49.5 c 128,-1,21
 191 53 191 53 205 58 c 1,22,-1
 224 3 l 1,23,-1
 160 -8 l 1,0,1
EndSplineSet
EndChar
StartChar: u
Encoding: 117 117 86
Width: 400
Flags: W
Fore
303 -14 m 1,0,1
 296 -1 296 -1 292 7.5 c 128,-1,2
 288 16 288 16 286 27 c 1,3,4
 266 7 266 7 240 -0.5 c 128,-1,5
 214 -8 214 -8 191 -8 c 0,6,7
 152 -8 152 -8 126.5 6 c 128,-1,8
 101 20 101 20 86 40.5 c 128,-1,9
 71 61 71 61 65 83.5 c 128,-1,10
 59 106 59 106 59 123 c 2,11,-1
 59 349 l 1,12,-1
 120 349 l 1,13,-1
 120 122 l 2,14,15
 120 88 120 88 141.5 67 c 128,-1,16
 163 46 163 46 198 46 c 0,17,18
 217 46 217 46 233 54.5 c 128,-1,19
 249 63 249 63 259.5 77 c 128,-1,20
 270 91 270 91 276 108.5 c 128,-1,21
 282 126 282 126 282 144 c 2,22,-1
 282 349 l 1,23,-1
 343 349 l 1,24,-1
 343 82 l 2,25,26
 343 52 343 52 347.5 37.5 c 128,-1,27
 352 23 352 23 360 6 c 1,28,-1
 303 -14 l 1,0,1
EndSplineSet
EndChar
StartChar: v
Encoding: 118 118 87
Width: 354
Flags: W
Fore
71 359 m 1,0,-1
 177 96 l 1,1,-1
 280 361 l 1,2,-1
 338 340 l 1,3,-1
 270 172 l 2,4,5
 257 140 257 140 245 110 c 128,-1,6
 233 80 233 80 223 56.5 c 128,-1,7
 213 33 213 33 207.5 18.5 c 128,-1,8
 202 5 202 5 202 4 c 0,9,10
 199 -6 199 -6 188.5 -8.5 c 128,-1,11
 178 -11 178 -11 166.5 -8 c 128,-1,12
 155 -5 155 -5 146.5 2.5 c 128,-1,13
 138 10 138 10 140 19 c 2,14,-1
 142 27 l 1,15,-1
 15 340 l 1,16,-1
 71 359 l 1,0,-1
EndSplineSet
EndChar
StartChar: w
Encoding: 119 119 88
Width: 534
Flags: W
Fore
379 82 m 1,0,-1
 465 361 l 1,1,-1
 521 341 l 1,2,-1
 412 25 l 1,3,-1
 414 17 l 2,4,5
 416 7 416 7 407.5 -0.5 c 128,-1,6
 399 -8 399 -8 387 -11 c 128,-1,7
 375 -14 375 -14 364 -11.5 c 128,-1,8
 353 -9 353 -9 350 1 c 2,9,-1
 263 261 l 1,10,11
 240 188 240 188 222 131 c 0,12,13
 214 107 214 107 206.5 83.5 c 128,-1,14
 199 60 199 60 193 41.5 c 128,-1,15
 187 23 187 23 184 12 c 128,-1,16
 181 2 181 2 181 1 c 0,17,18
 178 -9 178 -9 167 -11.5 c 128,-1,19
 156 -14 156 -14 144 -11 c 128,-1,20
 132 -8 132 -8 123.5 -0.5 c 128,-1,21
 115 7 115 7 117 17 c 2,22,-1
 119 25 l 1,23,-1
 11 343 l 1,24,-1
 68 361 l 1,25,-1
 155 81 l 1,26,-1
 236 348 l 1,27,28
 237 357 237 357 247.5 359.5 c 128,-1,29
 258 362 258 362 270 359 c 128,-1,30
 282 356 282 356 291 349.5 c 128,-1,31
 300 343 300 343 299 334 c 1,32,33
 300 334 300 334 300 333 c 256,34,35
 300 332 300 332 297 323 c 1,36,-1
 379 82 l 1,0,-1
EndSplineSet
EndChar
StartChar: x
Encoding: 120 120 89
Width: 359
Flags: W
Fore
340 331 m 1,0,1
 297 277 297 277 272.5 245.5 c 128,-1,2
 248 214 248 214 235 198 c 0,3,4
 220 180 220 180 216 174 c 1,5,6
 221 169 221 169 236 151 c 0,7,8
 249 136 249 136 273 106.5 c 128,-1,9
 297 77 297 77 340 26 c 1,10,-1
 290 -10 l 1,11,12
 255 35 255 35 233 62 c 128,-1,13
 211 89 211 89 199 104 c 2,14,-1
 179 129 l 1,15,-1
 159 104 l 2,16,17
 147 89 147 89 126 62 c 128,-1,18
 105 35 105 35 70 -10 c 1,19,-1
 19 25 l 1,20,21
 61 76 61 76 85 105.5 c 128,-1,22
 109 135 109 135 122 150 c 0,23,24
 137 168 137 168 142 174 c 1,25,26
 138 180 138 180 123 198 c 0,27,28
 110 214 110 214 85.5 245.5 c 128,-1,29
 61 277 61 277 19 331 c 1,30,-1
 69 364 l 1,31,32
 104 317 104 317 125.5 289 c 128,-1,33
 147 261 147 261 159 245 c 0,34,35
 173 227 173 227 179 219 c 1,36,37
 185 227 185 227 199 245 c 0,38,39
 211 261 211 261 233 289 c 128,-1,40
 255 317 255 317 290 364 c 1,41,-1
 340 331 l 1,42,-1
 340 331 l 1,0,1
EndSplineSet
EndChar
StartChar: y
Encoding: 121 121 90
Width: 374
Flags: W
Fore
194 -58 m 2,0,1
 185 -79 185 -79 173.5 -92.5 c 128,-1,2
 162 -106 162 -106 147 -116 c 0,3,4
 130 -127 130 -127 112 -134 c 128,-1,5
 94 -141 94 -141 68 -151 c 1,6,-1
 49 -99 l 1,7,8
 77 -88 77 -88 94.5 -80 c 128,-1,9
 112 -72 112 -72 123 -60.5 c 128,-1,10
 134 -49 134 -49 141.5 -30.5 c 128,-1,11
 149 -12 149 -12 159 20 c 1,12,13
 156 27 156 27 140 63 c 0,14,15
 133 78 133 78 123 101.5 c 128,-1,16
 113 125 113 125 98.5 158 c 128,-1,17
 84 191 84 191 64 235.5 c 128,-1,18
 44 280 44 280 19 338 c 1,19,-1
 78 363 l 1,20,21
 113 278 113 278 135.5 226 c 128,-1,22
 158 174 158 174 171 145 c 0,23,24
 186 111 186 111 192 95 c 1,25,26
 198 112 198 112 212 146 c 0,27,28
 223 175 223 175 244 227 c 128,-1,29
 265 279 265 279 298 363 c 1,30,-1
 354 337 l 1,31,-1
 194 -58 l 2,0,1
EndSplineSet
EndChar
StartChar: z
Encoding: 122 122 91
Width: 346
Flags: W
Fore
217 300 m 1,0,-1
 27 300 l 1,1,-1
 27 355 l 1,2,-1
 279 355 l 1,3,4
 286 357 286 357 293.5 357 c 128,-1,5
 301 357 301 357 306 354 c 0,6,7
 316 348 316 348 318 334.5 c 128,-1,8
 320 321 320 321 318 313 c 0,9,10
 316 307 316 307 311 305 c 128,-1,11
 301 301 l 128,-1,12
 296 299 296 299 290.5 296.5 c 128,-1,13
 285 294 285 294 281 288 c 2,14,-1
 126 55 l 1,15,-1
 318 55 l 1,16,-1
 318 0 l 1,17,-1
 64 0 l 1,18,19
 57 -2 57 -2 49.5 -2 c 128,-1,20
 42 -2 42 -2 37 1 c 0,21,22
 27 7 27 7 25 20.5 c 128,-1,23
 23 34 23 34 25 42 c 0,24,25
 27 48 27 48 32 50 c 128,-1,26
 42 54 l 128,-1,27
 47 56 47 56 52.5 58.5 c 128,-1,28
 58 61 58 61 62 67 c 2,29,-1
 217 300 l 1,0,-1
EndSplineSet
EndChar
StartChar: braceleft
Encoding: 123 123 92
Width: 205
Flags: W
Fore
112 -103 m 2,0,1
 86 -103 86 -103 70 -85 c 128,-1,2
 54 -67 54 -67 54 -47 c 2,3,-1
 54 155 l 2,4,5
 54 172 54 172 47.5 176.5 c 128,-1,6
 41 181 41 181 31 184 c 1,7,-1
 33 214 l 1,8,9
 46 219 46 219 50 227.5 c 128,-1,10
 54 236 54 236 54 244 c 2,11,-1
 54 445 l 2,12,13
 54 465 54 465 70 483 c 128,-1,14
 86 501 86 501 112 501 c 2,15,-1
 185 501 l 1,16,-1
 156 466 l 1,17,18
 146 465 146 465 140.5 464.5 c 128,-1,19
 135 464 135 464 133 464 c 2,20,-1
 129 464 l 1,21,22
 117 462 117 462 115 455.5 c 128,-1,23
 113 449 113 449 113 446 c 2,24,-1
 113 248 l 2,25,26
 113 235 113 235 105.5 221.5 c 128,-1,27
 98 208 98 208 89 199 c 1,28,29
 99 189 99 189 106 175.5 c 128,-1,30
 113 162 113 162 113 150 c 2,31,-1
 113 -48 l 2,32,33
 113 -51 113 -51 115 -57 c 128,-1,34
 117 -63 117 -63 128 -65 c 2,35,-1
 156 -68 l 1,36,-1
 185 -103 l 1,37,-1
 112 -103 l 2,0,1
EndSplineSet
EndChar
StartChar: bar
Encoding: 124 124 93
Width: 185
Flags: W
Fore
63 -9 m 1,0,-1
 63 487 l 1,1,-1
 122 487 l 1,2,-1
 122 -9 l 1,3,-1
 63 -9 l 1,0,-1
EndSplineSet
EndChar
StartChar: braceright
Encoding: 125 125 94
Width: 207
Flags: W
Fore
168 181 m 2,0,1
 165 180 165 180 159 176 c 128,-1,2
 153 172 153 172 153 155 c 2,3,-1
 153 -47 l 2,4,5
 153 -67 153 -67 137 -85 c 128,-1,6
 121 -103 121 -103 95 -103 c 2,7,-1
 22 -103 l 1,8,-1
 56 -67 l 1,9,10
 64 -66 64 -66 68.5 -65.5 c 128,-1,11
 73 -65 73 -65 75 -65 c 2,12,-1
 78 -65 l 1,13,14
 91 -63 91 -63 93 -57 c 128,-1,15
 95 -51 95 -51 95 -48 c 2,16,-1
 95 150 l 2,17,18
 95 162 95 162 101.5 175.5 c 128,-1,19
 108 189 108 189 118 199 c 1,20,21
 109 208 109 208 102 221.5 c 128,-1,22
 95 235 95 235 95 248 c 2,23,-1
 95 446 l 2,24,25
 95 449 95 449 93 455 c 128,-1,26
 91 461 91 461 79 463 c 2,27,-1
 51 466 l 1,28,-1
 22 501 l 1,29,-1
 95 501 l 2,30,31
 121 501 121 501 137 483 c 128,-1,32
 153 465 153 465 153 445 c 2,33,-1
 153 244 l 2,34,35
 153 236 153 236 157.5 227.5 c 128,-1,36
 162 219 162 219 176 214 c 1,37,-1
 176 184 l 1,38,-1
 168 181 l 2,0,1
EndSplineSet
EndChar
StartChar: asciitilde
Encoding: 126 126 95
Width: 441
Flags: W
Fore
404 173 m 1,0,1
 381 141 381 141 350 125.5 c 128,-1,2
 319 110 319 110 287 112 c 0,3,4
 269 113 269 113 252 121 c 128,-1,5
 235 129 235 129 218.5 137.5 c 128,-1,6
 202 146 202 146 185.5 153.5 c 128,-1,7
 169 161 169 161 153 163 c 0,8,9
 131 165 131 165 113.5 154 c 128,-1,10
 96 143 96 143 77 116 c 1,11,-1
 45 179 l 1,12,13
 54 189 54 189 64.5 200 c 128,-1,14
 75 211 75 211 88.5 219 c 128,-1,15
 102 227 102 227 119 232 c 128,-1,16
 136 237 136 237 158 235 c 0,17,18
 173 234 173 234 190.5 226 c 128,-1,19
 208 218 208 218 226.5 209 c 128,-1,20
 245 200 245 200 263 192 c 128,-1,21
 281 184 281 184 295 183 c 0,22,23
 310 181 310 181 327 192.5 c 128,-1,24
 344 204 344 204 362 231 c 1,25,-1
 404 173 l 1,0,1
EndSplineSet
EndChar
StartChar: uni0E33.alt1
Encoding: 65539 -1 96
Width: 372
Flags: W
Fore
-229 476 m 0,0,1
 -257 476 -257 476 -275 488.5 c 128,-1,2
 -293 501 -293 501 -302.5 519 c 128,-1,3
 -312 537 -312 537 -312 559 c 128,-1,4
 -312 581 -312 581 -302.5 599 c 128,-1,5
 -293 617 -293 617 -275 629.5 c 128,-1,6
 -257 642 -257 642 -229 642 c 0,7,8
 -202 642 -202 642 -183.5 629.5 c 128,-1,9
 -165 617 -165 617 -156 599 c 128,-1,10
 -147 581 -147 581 -146.5 559 c 128,-1,11
 -146 537 -146 537 -155.5 519 c 128,-1,12
 -165 501 -165 501 -183.5 488.5 c 128,-1,13
 -202 476 -202 476 -229 476 c 0,0,1
-229 522 m 256,14,15
 -211 522 -211 522 -202 533.5 c 128,-1,16
 -193 545 -193 545 -193 558.5 c 128,-1,17
 -193 572 -193 572 -202 583.5 c 128,-1,18
 -211 595 -211 595 -229 595 c 256,19,20
 -247 595 -247 595 -256 583.5 c 128,-1,21
 -265 572 -265 572 -265 558.5 c 128,-1,22
 -265 545 -265 545 -256 533.5 c 128,-1,23
 -247 522 -247 522 -229 522 c 256,14,15
322 0 m 1,24,-1
 254 0 l 1,25,-1
 254 272 l 2,26,27
 253 280 253 280 256.5 290.5 c 128,-1,28
 260 301 260 301 265 304 c 1,29,30
 250 319 250 319 228 333.5 c 128,-1,31
 206 348 206 348 170 346 c 0,32,33
 144 345 144 345 127.5 337 c 128,-1,34
 111 329 111 329 101 317 c 128,-1,35
 91 305 91 305 86 290.5 c 128,-1,36
 81 276 81 276 80 262 c 1,37,-1
 15 262 l 1,38,39
 21 326 21 326 60 365.5 c 128,-1,40
 99 405 99 405 171 407 c 0,41,42
 196 408 196 408 215.5 403.5 c 128,-1,43
 235 399 235 399 250.5 391.5 c 128,-1,44
 266 384 266 384 278 373.5 c 128,-1,45
 290 363 290 363 300 353 c 1,46,47
 305 355 305 355 314 352 c 128,-1,48
 323 349 323 349 334 337 c 0,49,50
 342 328 342 328 344.5 321.5 c 128,-1,51
 347 315 347 315 345.5 309.5 c 128,-1,52
 344 304 344 304 340 299 c 128,-1,53
 336 294 336 294 331 287 c 256,54,55
 326 280 326 280 324 272.5 c 128,-1,56
 322 265 322 265 322 251 c 2,57,-1
 322 0 l 1,24,-1
EndSplineSet
EndChar
StartChar: quotedbl
Encoding: 34 34 97
Width: 287
Flags: W
Fore
223 282 m 1,0,-1
 173 282 l 1,1,-1
 162 468 l 1,2,-1
 237 468 l 1,3,-1
 223 282 l 1,0,-1
109 282 m 1,4,-1
 59 282 l 1,5,-1
 48 468 l 1,6,-1
 123 468 l 1,7,-1
 109 282 l 1,4,-1
EndSplineSet
EndChar
StartChar: exclam
Encoding: 33 33 98
Width: 257
Flags: W
Fore
155 106 m 1,0,-1
 100 106 l 1,1,-1
 88 476 l 1,2,-1
 167 476 l 1,3,-1
 155 106 l 1,0,-1
172 37 m 256,4,5
 172 19 172 19 159 6 c 128,-1,6
 146 -7 146 -7 128 -7 c 256,7,8
 110 -7 110 -7 97 6 c 128,-1,9
 84 19 84 19 84 37 c 256,10,11
 84 55 84 55 97 68 c 128,-1,12
 110 81 110 81 128 81 c 256,13,14
 146 81 146 81 159 68 c 128,-1,15
 172 55 172 55 172 37 c 256,4,5
EndSplineSet
EndChar
StartChar: uni0E4E.alt1
Encoding: 65540 -1 99
Width: 0
Flags: W
Fore
-79 674 m 1,0,1
 -124 683 -124 683 -157 674.5 c 128,-1,2
 -190 666 -190 666 -191 639 c 128,-1,3
 -192 612 -192 612 -154 596 c 1,4,-1
 -174 563 l 1,5,6
 -238 560 -238 560 -247 531 c 1,7,8
 -248 506 -248 506 -218.5 502 c 128,-1,9
 -189 498 -189 498 -175 506 c 1,10,-1
 -201 465 l 1,11,12
 -241 446 -241 446 -277.5 460.5 c 128,-1,13
 -314 475 -314 475 -316 517 c 0,14,15
 -311 582 -311 582 -226 592 c 1,16,17
 -256 614 -256 614 -251 645.5 c 128,-1,18
 -246 677 -246 677 -209 693 c 128,-1,19
 -172 709 -172 709 -112 699 c 1,20,-1
 -79 674 l 1,0,1
EndSplineSet
EndChar
StartChar: exclamdown
Encoding: 161 161 100
Width: 252
Flags: W
Fore
167 -139 m 1,0,-1
 88 -139 l 1,1,-1
 100 231 l 1,2,-1
 155 231 l 1,3,-1
 167 -139 l 1,0,-1
172 300 m 256,4,5
 172 282 172 282 159 269 c 128,-1,6
 146 256 146 256 128 256 c 256,7,8
 110 256 110 256 97 269 c 128,-1,9
 84 282 84 282 84 300 c 256,10,11
 84 318 84 318 97 331 c 128,-1,12
 110 344 110 344 128 344 c 256,13,14
 146 344 146 344 159 331 c 128,-1,15
 172 318 172 318 172 300 c 256,4,5
EndSplineSet
EndChar
StartChar: cent
Encoding: 162 162 101
Width: 451
Flags: W
Fore
418 52 m 1,0,1
 411 45 l 130,-1,2
 404 38 404 38 390 29 c 128,-1,3
 376 20 376 20 355 10.5 c 128,-1,4
 334 1 334 1 306 -4 c 0,5,6
 291 -7 291 -7 274 -7 c 1,7,-1
 274 -50 l 1,8,-1
 219 -50 l 1,9,-1
 219 -5 l 1,10,11
 208 -3 208 -3 197.5 -0.5 c 128,-1,12
 187 2 187 2 178 5 c 0,13,14
 159 12 159 12 135.5 27 c 128,-1,15
 112 42 112 42 91 69 c 128,-1,16
 70 96 70 96 56 137 c 128,-1,17
 42 178 42 178 42 237 c 0,18,19
 42 306 42 306 60.5 352 c 128,-1,20
 79 398 79 398 106.5 426 c 128,-1,21
 134 454 134 454 164.5 466.5 c 128,-1,22
 195 479 195 479 219 480 c 1,23,-1
 219 528 l 1,24,-1
 274 528 l 1,25,-1
 274 482 l 1,26,27
 309 480 309 480 341.5 468.5 c 128,-1,28
 374 457 374 457 403 431 c 1,29,-1
 399 423 l 2,30,31
 396 417 396 417 390 404.5 c 128,-1,32
 384 392 384 392 373 369 c 1,33,34
 357 383 357 383 340 391 c 128,-1,35
 323 399 323 399 308 404 c 0,36,37
 290 409 290 409 274 412 c 1,38,-1
 274 60 l 1,39,40
 292 61 292 61 310 66 c 0,41,42
 325 70 325 70 342.5 78.5 c 128,-1,43
 360 87 360 87 375 102 c 1,44,-1
 418 52 l 1,0,1
202 71 m 0,45,46
 207 69 207 69 210.5 68 c 128,-1,47
 214 67 214 67 219 65 c 1,48,-1
 219 409 l 1,49,50
 167 398 167 398 139.5 352 c 128,-1,51
 112 306 112 306 112 237 c 0,52,53
 112 174 112 174 136 130.5 c 128,-1,54
 160 87 160 87 202 71 c 0,45,46
EndSplineSet
EndChar
StartChar: sterling
Encoding: 163 163 102
Width: 451
Flags: W
Fore
340 384 m 1,0,1
 319 404 319 404 295 413.5 c 128,-1,2
 271 423 271 423 248.5 424 c 128,-1,3
 226 425 226 425 206.5 418.5 c 128,-1,4
 187 412 187 412 175 401 c 0,5,6
 155 383 155 383 152.5 360 c 128,-1,7
 150 337 150 337 154.5 316 c 128,-1,8
 159 295 159 295 166.5 280.5 c 128,-1,9
 174 267 174 267 174 266 c 1,10,-1
 298 266 l 1,11,-1
 279 212 l 1,12,-1
 186 212 l 1,13,14
 190 197 190 197 191 178.5 c 128,-1,15
 192 160 192 160 187.5 140 c 128,-1,16
 183 120 183 120 171.5 100 c 128,-1,17
 160 80 160 80 138 64 c 1,18,-1
 393 64 l 1,19,-1
 392 0 l 1,20,-1
 56 0 l 1,21,-1
 56 53 l 1,22,23
 97 85 97 85 112.5 122.5 c 128,-1,24
 128 160 128 160 117 211 c 1,25,-1
 34 211 l 1,26,-1
 50 265 l 1,27,-1
 109 265 l 1,28,29
 87 311 87 311 84.5 347 c 128,-1,30
 82 383 82 383 96 412 c 0,31,32
 114 451 114 451 152.5 468 c 128,-1,33
 191 485 191 485 234 485 c 0,34,35
 272 485 272 485 308.5 472 c 128,-1,36
 345 459 345 459 368 437 c 1,37,-1
 340 384 l 1,0,1
EndSplineSet
EndChar
StartChar: currency
Encoding: 164 164 103
Width: 486
Flags: W
Fore
378 237 m 0,0,1
 379 208 379 208 370 190 c 128,-1,2
 361 172 361 172 355 161 c 1,3,-1
 405 110 l 1,4,-1
 361 68 l 1,5,-1
 310 118 l 1,6,7
 297 111 297 111 283 103.5 c 128,-1,8
 269 96 269 96 242 98 c 0,9,10
 225 98 225 98 208 103.5 c 128,-1,11
 191 109 191 109 177 119 c 1,12,-1
 125 67 l 1,13,-1
 81 111 l 1,14,-1
 132 163 l 1,15,16
 118 179 118 179 112.5 198.5 c 128,-1,17
 107 218 107 218 108 237 c 128,-1,18
 109 256 109 256 115.5 272 c 128,-1,19
 122 288 122 288 131 297 c 1,20,-1
 79 347 l 1,21,-1
 124 392 l 1,22,-1
 175 341 l 1,23,24
 187 350 187 350 205.5 356 c 128,-1,25
 224 362 224 362 246 361 c 0,26,27
 288 359 288 359 313 343 c 1,28,-1
 365 394 l 1,29,-1
 409 349 l 1,30,-1
 357 297 l 1,31,32
 362 287 362 287 370 273.5 c 128,-1,33
 378 260 378 260 378 237 c 0,0,1
313 226 m 0,34,35
 314 239 314 239 309 252.5 c 128,-1,36
 304 266 304 266 295 276.5 c 128,-1,37
 286 287 286 287 272.5 293.5 c 128,-1,38
 259 300 259 300 243 300 c 0,39,40
 211 300 211 300 191.5 276.5 c 128,-1,41
 172 253 172 253 174 226 c 0,42,43
 176 197 176 197 196.5 179 c 128,-1,44
 217 161 217 161 243 161 c 0,45,46
 262 161 262 161 275.5 168 c 128,-1,47
 289 175 289 175 297.5 184.5 c 128,-1,48
 306 194 306 194 309.5 205.5 c 128,-1,49
 313 217 313 217 313 226 c 0,34,35
EndSplineSet
EndChar
StartChar: yen
Encoding: 165 165 104
Width: 414
Flags: W
Fore
397 466 m 1,0,-1
 238 230 l 1,1,-1
 342 230 l 1,2,-1
 342 189 l 1,3,-1
 238 189 l 1,4,-1
 238 145 l 1,5,-1
 342 145 l 1,6,-1
 342 104 l 1,7,-1
 238 104 l 1,8,-1
 239 0 l 1,9,-1
 174 0 l 1,10,-1
 174 104 l 1,11,-1
 67 104 l 1,12,-1
 67 145 l 1,13,-1
 174 145 l 1,14,-1
 173 189 l 1,15,-1
 67 189 l 1,16,-1
 67 230 l 1,17,-1
 174 230 l 1,18,-1
 15 466 l 1,19,-1
 63 497 l 1,20,-1
 206 286 l 1,21,-1
 349 497 l 1,22,-1
 397 466 l 1,0,-1
EndSplineSet
EndChar
StartChar: brokenbar
Encoding: 166 166 105
Width: 180
Flags: W
Fore
120 241 m 1,0,-1
 61 241 l 1,1,-1
 61 485 l 1,2,-1
 120 485 l 1,3,-1
 120 241 l 1,0,-1
61 119 m 1,4,-1
 120 119 l 1,5,-1
 120 -125 l 1,6,-1
 61 -125 l 1,7,-1
 61 119 l 1,4,-1
EndSplineSet
EndChar
StartChar: section
Encoding: 167 167 106
Width: 457
Flags: W
Fore
339 430 m 1,0,1
 329 446 329 446 308 456 c 128,-1,2
 287 466 287 466 250 466 c 0,3,4
 229 466 229 466 212.5 456.5 c 128,-1,5
 196 447 196 447 188.5 433.5 c 128,-1,6
 181 420 181 420 183 403.5 c 128,-1,7
 185 387 185 387 200 374 c 0,8,9
 206 369 206 369 221.5 360 c 128,-1,10
 237 351 237 351 256 340.5 c 128,-1,11
 275 330 275 330 295 319.5 c 128,-1,12
 315 309 315 309 330 300 c 0,13,14
 359 283 359 283 377 266 c 128,-1,15
 395 249 395 249 401 215 c 0,16,17
 407 173 407 173 384 140 c 0,18,19
 375 126 375 126 364 116.5 c 128,-1,20
 353 107 353 107 343 99 c 1,21,22
 340 100 340 100 342.5 96 c 128,-1,23
 345 92 345 92 349.5 84.5 c 128,-1,24
 354 77 354 77 358.5 67 c 128,-1,25
 363 57 363 57 365 45 c 0,26,27
 368 15 368 15 359 -8.5 c 128,-1,28
 350 -32 350 -32 331.5 -49 c 128,-1,29
 313 -66 313 -66 287 -75.5 c 128,-1,30
 261 -85 261 -85 231 -86 c 0,31,32
 206 -87 206 -87 186.5 -85 c 128,-1,33
 167 -83 167 -83 149.5 -76 c 128,-1,34
 132 -69 132 -69 115 -57.5 c 128,-1,35
 98 -46 98 -46 78 -28 c 1,36,-1
 129 18 l 1,37,38
 141 1 141 1 160.5 -8 c 128,-1,39
 180 -17 180 -17 200 -20 c 128,-1,40
 220 -23 220 -23 238.5 -19.5 c 128,-1,41
 257 -16 257 -16 268 -7 c 0,42,43
 278 2 278 2 283.5 13.5 c 128,-1,44
 289 25 289 25 289 37 c 128,-1,45
 289 49 289 49 282 59.5 c 128,-1,46
 275 70 275 70 261 76 c 1,47,48
 259 76 259 76 243 85 c 0,49,50
 229 93 229 93 199 110.5 c 128,-1,51
 169 128 169 128 114 161 c 0,52,53
 84 179 84 179 70.5 204 c 128,-1,54
 57 229 57 229 57 261 c 0,55,56
 57 322 57 322 113 359 c 1,57,58
 93 385 93 385 92 417 c 128,-1,59
 91 449 91 449 109 478 c 0,60,61
 127 506 127 506 161 521 c 128,-1,62
 195 536 195 536 235 536 c 0,63,64
 289 536 289 536 324.5 521.5 c 128,-1,65
 360 507 360 507 389 476 c 1,66,-1
 339 430 l 1,0,1
292 146 m 1,67,68
 298 150 298 150 305.5 156 c 128,-1,69
 313 162 313 162 321 171 c 0,70,71
 326 177 326 177 327 186.5 c 128,-1,72
 328 196 328 196 325.5 205 c 128,-1,73
 323 214 323 214 317 221.5 c 128,-1,74
 311 229 311 229 303 232 c 1,75,76
 286 241.5 l 130,-1,77
 269 251 269 251 245.5 264 c 128,-1,78
 198.5 290 l 128,-1,79
 175 303 175 303 163 310 c 1,80,81
 148 302 148 302 139.5 293 c 128,-1,82
 131 284 131 284 129 267 c 0,83,84
 129 251 129 251 137.5 240.5 c 128,-1,85
 146 230 146 230 158 222 c 2,86,87
 174 213 l 130,-1,88
 190 204 190 204 212.5 191.5 c 128,-1,89
 235 179 235 179 257.5 166 c 128,-1,90
 280 153 280 153 292 146 c 1,67,68
EndSplineSet
EndChar
StartChar: dieresis
Encoding: 168 168 107
Width: 220
Flags: W
Fore
42 487 m 256,0,1
 60 487 60 487 73 473.5 c 128,-1,2
 86 460 86 460 86 443 c 0,3,4
 86 424 86 424 73 411 c 128,-1,5
 60 398 60 398 42 398 c 0,6,7
 23 398 23 398 10.5 411.5 c 128,-1,8
 -2 425 -2 425 -2 443 c 0,9,10
 -2 460 -2 460 11 473.5 c 128,-1,11
 24 487 24 487 42 487 c 256,0,1
209 474 m 1,12,13
 222 459 222 459 222 443 c 0,14,15
 222 424 222 424 209 411 c 128,-1,16
 196 398 196 398 178 398 c 0,17,18
 159 398 159 398 146 411 c 128,-1,19
 133 424 133 424 133 443 c 0,20,21
 133 461 133 461 146.5 474 c 128,-1,22
 160 487 160 487 178 487 c 0,23,24
 194 487 194 487 209 474 c 1,12,13
EndSplineSet
EndChar
StartChar: copyright
Encoding: 169 169 108
Width: 535
Flags: W
Fore
507 234 m 0,0,1
 507 183 507 183 488 137.5 c 128,-1,2
 469 92 469 92 437 58 c 128,-1,3
 405 24 405 24 361 4.5 c 128,-1,4
 317 -15 317 -15 268 -15 c 0,5,6
 217 -15 217 -15 173.5 5.5 c 128,-1,7
 130 26 130 26 98 60 c 128,-1,8
 66 94 66 94 47.5 139 c 128,-1,9
 29 184 29 184 29 234 c 0,10,11
 29 283 29 283 47.5 328.5 c 128,-1,12
 66 374 66 374 98 408 c 128,-1,13
 130 442 130 442 174 462.5 c 128,-1,14
 218 483 218 483 268 483 c 256,15,16
 318 483 318 483 361.5 462.5 c 128,-1,17
 405 442 405 442 437.5 408 c 128,-1,18
 470 374 470 374 488.5 328.5 c 128,-1,19
 507 283 507 283 507 234 c 0,0,1
462 234 m 256,20,21
 462 274 462 274 447 311 c 128,-1,22
 432 348 432 348 406 376 c 128,-1,23
 380 404 380 404 344.5 420.5 c 128,-1,24
 309 437 309 437 268 437 c 0,25,26
 228 437 228 437 192.5 421 c 128,-1,27
 157 405 157 405 131 377.5 c 128,-1,28
 105 350 105 350 89.5 313 c 128,-1,29
 74 276 74 276 74 234 c 0,30,31
 74 194 74 194 89 157 c 128,-1,32
 104 120 104 120 130.5 92 c 128,-1,33
 157 64 157 64 192 47.5 c 128,-1,34
 227 31 227 31 268 31 c 0,35,36
 308 31 308 31 343.5 47.5 c 128,-1,37
 379 64 379 64 405.5 92 c 128,-1,38
 432 120 432 120 447 157 c 128,-1,39
 462 194 462 194 462 234 c 256,20,21
372 114 m 1,40,41
 356 97 356 97 336.5 88.5 c 128,-1,42
 317 80 317 80 297 77.5 c 128,-1,43
 277 75 277 75 258 77.5 c 128,-1,44
 239 80 239 80 225 85 c 0,45,46
 213 89 213 89 197.5 98.5 c 128,-1,47
 182 108 182 108 169 125 c 128,-1,48
 156 142 156 142 147 168 c 128,-1,49
 138 194 138 194 138 231 c 0,50,51
 138 269 138 269 147 295 c 128,-1,52
 156 321 156 321 169 337.5 c 128,-1,53
 182 354 182 354 197.5 363.5 c 128,-1,54
 213 373 213 373 225 378 c 0,55,56
 255 390 255 390 294.5 384 c 128,-1,57
 334 378 334 378 361 353 c 1,58,59
 361 351 361 351 358 347 c 0,60,61
 356 343 356 343 351.5 334.5 c 128,-1,62
 347 326 347 326 340 312 c 1,63,64
 323 327 323 327 305.5 332.5 c 128,-1,65
 288 338 288 338 274 339 c 0,66,67
 257 340 257 340 241 335 c 0,68,69
 215 324 215 324 200 297 c 128,-1,70
 185 270 185 270 185 231 c 256,71,72
 185 192 185 192 200 165 c 128,-1,73
 215 138 215 138 241 128 c 0,74,75
 258 122 258 122 276 122 c 0,76,77
 291 122 291 122 308.5 127 c 128,-1,78
 326 132 326 132 341 148 c 1,79,-1
 372 114 l 1,40,41
EndSplineSet
EndChar
StartChar: ordfeminine
Encoding: 170 170 109
Width: 284
Flags: W
Fore
201 187 m 1,0,-1
 201 206 l 1,1,2
 173 181 173 181 133 181 c 0,3,4
 105 181 105 181 85 192 c 128,-1,5
 65 203 65 203 51.5 220 c 128,-1,6
 38 237 38 237 31.5 259 c 128,-1,7
 25 281 25 281 25 303 c 256,8,9
 25 325 25 325 31.5 347.5 c 128,-1,10
 38 370 38 370 51.5 387.5 c 128,-1,11
 65 405 65 405 85 416 c 128,-1,12
 105 427 105 427 133 427 c 0,13,14
 172 427 172 427 200 402 c 1,15,-1
 200 427 l 1,16,-1
 244 427 l 1,17,-1
 244 228 l 1,18,-1
 246 187 l 1,19,-1
 201 187 l 1,0,-1
195 291 m 0,20,21
 197 305 197 305 194 320.5 c 128,-1,22
 191 336 191 336 183 348.5 c 128,-1,23
 175 361 175 361 162.5 369 c 128,-1,24
 150 377 150 377 133 377 c 256,25,26
 116 377 116 377 104.5 369.5 c 128,-1,27
 93 362 93 362 85.5 351 c 128,-1,28
 78 340 78 340 75 327 c 128,-1,29
 72 314 72 314 72 303 c 0,30,31
 72 294 72 294 75 281.5 c 128,-1,32
 78 269 78 269 85 257.5 c 128,-1,33
 92 246 92 246 103.5 238 c 128,-1,34
 115 230 115 230 133 230 c 0,35,36
 159 230 159 230 175 249 c 128,-1,37
 191 268 191 268 195 291 c 0,20,21
EndSplineSet
EndChar
StartChar: guillemotleft
Encoding: 171 171 110
Width: 400
Flags: W
Fore
35 178 m 1,0,-1
 127 325 l 1,1,-1
 209 325 l 1,2,-1
 112 178 l 1,3,-1
 209 30 l 1,4,-1
 127 30 l 1,5,-1
 35 178 l 1,0,-1
182 178 m 1,6,-1
 274 325 l 1,7,-1
 356 325 l 1,8,-1
 259 178 l 1,9,-1
 356 30 l 1,10,-1
 274 30 l 1,11,-1
 182 178 l 1,6,-1
EndSplineSet
EndChar
StartChar: logicalnot
Encoding: 172 172 111
Width: 458
Flags: W
Fore
369 82 m 1,0,-1
 369 219 l 1,1,-1
 28 219 l 1,2,-1
 28 278 l 1,3,-1
 428 278 l 1,4,-1
 428 82 l 1,5,-1
 369 82 l 1,0,-1
EndSplineSet
EndChar
StartChar: registered
Encoding: 174 174 112
Width: 538
Flags: W
Fore
507 234 m 0,0,1
 507 183 507 183 488 137.5 c 128,-1,2
 469 92 469 92 437 58 c 128,-1,3
 405 24 405 24 361 4.5 c 128,-1,4
 317 -15 317 -15 268 -15 c 0,5,6
 217 -15 217 -15 173.5 5.5 c 128,-1,7
 130 26 130 26 98 60 c 128,-1,8
 66 94 66 94 47.5 139 c 128,-1,9
 29 184 29 184 29 234 c 0,10,11
 29 283 29 283 47.5 328.5 c 128,-1,12
 66 374 66 374 98 408 c 128,-1,13
 130 442 130 442 174 462.5 c 128,-1,14
 218 483 218 483 268 483 c 256,15,16
 318 483 318 483 361.5 462.5 c 128,-1,17
 405 442 405 442 437.5 408 c 128,-1,18
 470 374 470 374 488.5 328.5 c 128,-1,19
 507 283 507 283 507 234 c 0,0,1
462 234 m 256,20,21
 462 274 462 274 447 311 c 128,-1,22
 432 348 432 348 406 376 c 128,-1,23
 380 404 380 404 344.5 420.5 c 128,-1,24
 309 437 309 437 268 437 c 0,25,26
 228 437 228 437 192.5 421 c 128,-1,27
 157 405 157 405 131 377.5 c 128,-1,28
 105 350 105 350 89.5 313 c 128,-1,29
 74 276 74 276 74 234 c 0,30,31
 74 194 74 194 89 157 c 128,-1,32
 104 120 104 120 130.5 92 c 128,-1,33
 157 64 157 64 192 47.5 c 128,-1,34
 227 31 227 31 268 31 c 0,35,36
 308 31 308 31 343.5 47.5 c 128,-1,37
 379 64 379 64 405.5 92 c 128,-1,38
 432 120 432 120 447 157 c 128,-1,39
 462 194 462 194 462 234 c 256,20,21
332 291 m 0,40,41
 332 316 332 316 309.5 327 c 128,-1,42
 287 338 287 338 250 338 c 0,43,44
 243 338 243 338 235 338 c 128,-1,45
 227 338 227 338 225 337 c 1,46,-1
 225 235 l 1,47,-1
 250 235 l 2,48,49
 290 235 290 235 311 247.5 c 128,-1,50
 332 260 332 260 332 291 c 0,40,41
184 336 m 2,51,52
 184 341 184 341 181.5 344.5 c 128,-1,53
 179 348 179 348 176 351 c 128,-1,54
 173 354 173 354 171 357.5 c 128,-1,55
 169 361 169 361 170 366 c 1,56,57
 172 371 172 371 178.5 378 c 128,-1,58
 185 385 185 385 193 383 c 1,59,60
 197 383 197 383 203 379 c 1,61,-1
 249 379 l 2,62,63
 272 379 272 379 294 374 c 128,-1,64
 316 369 316 369 333.5 358.5 c 128,-1,65
 351 348 351 348 361.5 331.5 c 128,-1,66
 372 315 372 315 372 291 c 0,67,68
 372 251 372 251 351.5 231 c 128,-1,69
 331 211 331 211 307 203 c 1,70,-1
 381 92 l 1,71,-1
 339 86 l 1,72,-1
 269 195 l 1,73,-1
 226 195 l 1,74,-1
 226 91 l 1,75,-1
 184 91 l 1,76,-1
 184 336 l 2,51,52
EndSplineSet
EndChar
StartChar: macron
Encoding: 175 175 113
Width: 216
Flags: W
Fore
28 400 m 1,0,-1
 28 454 l 1,1,-1
 187 454 l 1,2,-1
 187 400 l 1,3,-1
 28 400 l 1,0,-1
EndSplineSet
EndChar
StartChar: degree
Encoding: 176 176 114
Width: 238
Flags: W
Fore
121 500 m 256,0,1
 158 500 158 500 184 474.5 c 128,-1,2
 210 449 210 449 210 412 c 256,3,4
 210 375 210 375 184 349.5 c 128,-1,5
 158 324 158 324 121 324 c 256,6,7
 84 324 84 324 58.5 349.5 c 128,-1,8
 33 375 33 375 33 412 c 256,9,10
 33 449 33 449 58.5 474.5 c 128,-1,11
 84 500 84 500 121 500 c 256,0,1
121 364 m 256,12,13
 141 364 141 364 155 378 c 128,-1,14
 169 392 169 392 169 412 c 256,15,16
 169 432 169 432 155 446 c 128,-1,17
 141 460 141 460 121 460 c 256,18,19
 101 460 101 460 87 446 c 128,-1,20
 73 432 73 432 73 412 c 0,21,22
 74 392 74 392 87.5 378 c 128,-1,23
 101 364 101 364 121 364 c 256,12,13
EndSplineSet
EndChar
StartChar: plusminus
Encoding: 177 177 115
Width: 429
Flags: W
Fore
60 60 m 1,0,-1
 368 60 l 1,1,-1
 368 0 l 1,2,-1
 60 0 l 1,3,-1
 60 60 l 1,0,-1
182 95 m 1,4,-1
 182 218 l 1,5,-1
 73 218 l 1,6,-1
 73 282 l 1,7,-1
 183 282 l 1,8,-1
 183 404 l 1,9,-1
 246 404 l 1,10,-1
 246 282 l 1,11,-1
 356 282 l 1,12,-1
 356 218 l 1,13,-1
 246 218 l 1,14,-1
 246 95 l 1,15,-1
 182 95 l 1,4,-1
EndSplineSet
EndChar
StartChar: twosuperior
Encoding: 178 178 116
Width: 292
Flags: W
Fore
228 190 m 1,0,-1
 50 190 l 2,1,2
 40 190 40 190 39.5 197.5 c 128,-1,3
 39 205 39 205 39 215 c 0,4,5
 39 223 39 223 44.5 228 c 128,-1,6
 50 233 50 233 56 236 c 1,7,8
 64 247 64 247 75.5 261.5 c 128,-1,9
 87 276 87 276 107 293 c 0,10,11
 138 319 138 319 154 335 c 128,-1,12
 170 351 170 351 178 361 c 0,13,14
 187 372 187 372 187 379 c 2,15,16
 192 393 192 393 184 409 c 128,-1,17
 176 425 176 425 159 430 c 0,18,19
 145 434 145 434 132 431 c 128,-1,20
 119 428 119 428 110.5 419 c 128,-1,21
 102 410 102 410 99 397 c 128,-1,22
 96 384 96 384 103 369 c 1,23,-1
 55 357 l 1,24,25
 44 385 44 385 50 410.5 c 128,-1,26
 56 436 56 436 74 453.5 c 128,-1,27
 92 471 92 471 118.5 478 c 128,-1,28
 145 485 145 485 174 477 c 0,29,30
 201 469 201 469 218.5 446.5 c 128,-1,31
 236 424 236 424 238 392 c 0,32,33
 239 366 239 366 227 345.5 c 128,-1,34
 215 325 215 325 196.5 307.5 c 128,-1,35
 178 290 178 290 157 273.5 c 128,-1,36
 136 257 136 257 120 240 c 1,37,-1
 199 240 l 1,38,-1
 212 266 l 1,39,-1
 232 256 l 2,40,41
 241 252 241 252 252 245 c 1,42,-1
 228 190 l 1,0,-1
EndSplineSet
EndChar
StartChar: threesuperior
Encoding: 179 179 117
Width: 304
Flags: W
Fore
88 278 m 1,0,1
 92 260 92 260 101.5 250 c 128,-1,2
 111 240 111 240 122.5 235.5 c 128,-1,3
 134 231 134 231 146 230.5 c 128,-1,4
 158 230 158 230 166 232 c 0,5,6
 186 237 186 237 201.5 254 c 128,-1,7
 217 271 217 271 215 302 c 0,8,9
 214 315 214 315 206.5 324 c 128,-1,10
 199 333 199 333 189 338 c 128,-1,11
 179 343 179 343 169 343 c 128,-1,12
 159 343 159 343 153 337 c 0,13,14
 151 335 151 335 143 329 c 128,-1,15
 135 323 135 323 130 322 c 1,16,17
 121 322 121 322 112 329 c 0,18,19
 104 337 104 337 100 342 c 128,-1,20
 96 347 96 347 104 355 c 2,21,-1
 171 424 l 1,22,-1
 101 424 l 1,23,-1
 88 389 l 1,24,25
 81.5 392.5 l 130,-1,26
 75 396 75 396 67 400 c 128,-1,27
 59 404 59 404 52.5 407.5 c 128,-1,28
 47 411 47 411 46 411 c 1,29,-1
 64 474 l 1,30,-1
 239 474 l 2,31,32
 258 474 258 474 252 453 c 0,33,34
 247 436 247 436 242.5 431.5 c 128,-1,35
 238 427 238 427 229 425 c 1,36,-1
 192 384 l 1,37,38
 216 386 216 386 238 365 c 128,-1,39
 260 344 260 344 263 306 c 0,40,41
 265 280 265 280 258 259 c 128,-1,42
 251 238 251 238 238.5 222 c 128,-1,43
 226 206 226 206 209.5 196.5 c 128,-1,44
 193 187 193 187 176 183 c 0,45,46
 156 179 156 179 134 182 c 128,-1,47
 112 185 112 185 93.5 195 c 128,-1,48
 75 205 75 205 60.5 222 c 128,-1,49
 46 239 46 239 41 264 c 1,50,51
 46.5 266 l 130,-1,52
 52 268 52 268 60 270 c 128,-1,53
 68 272 68 272 75.5 274 c 128,-1,54
 83 276 83 276 88 278 c 1,0,1
EndSplineSet
EndChar
StartChar: acute
Encoding: 180 180 118
Width: 255
Flags: W
Fore
145 490 m 1,0,-1
 238 491 l 1,1,-1
 138 386 l 1,2,-1
 80 386 l 1,3,-1
 145 490 l 1,0,-1
EndSplineSet
EndChar
StartChar: mu
Encoding: 181 181 119
Width: 405
Flags: W
Fore
303 -14 m 1,0,1
 296 -1 296 -1 292 7.5 c 128,-1,2
 288 16 288 16 286 27 c 1,3,4
 266 7 266 7 240 -0.5 c 128,-1,5
 214 -8 214 -8 191 -8 c 256,6,7
 168 -8 168 -8 151 -3 c 128,-1,8
 134 2 134 2 120 10 c 1,9,-1
 120 -170 l 1,10,-1
 59 -170 l 1,11,-1
 59 349 l 1,12,-1
 120 349 l 1,13,-1
 120 122 l 2,14,15
 120 88 120 88 141.5 67 c 128,-1,16
 163 46 163 46 198 46 c 0,17,18
 217 46 217 46 233 54.5 c 128,-1,19
 249 63 249 63 259.5 77 c 128,-1,20
 270 91 270 91 276 108.5 c 128,-1,21
 282 126 282 126 282 144 c 2,22,-1
 282 349 l 1,23,-1
 343 349 l 1,24,-1
 343 82 l 2,25,26
 343 52 343 52 346.5 37.5 c 128,-1,27
 350 23 350 23 358 6 c 1,28,-1
 303 -14 l 1,0,1
EndSplineSet
EndChar
StartChar: paragraph
Encoding: 182 182 120
Width: 499
Flags: W
Fore
185 209 m 2,0,1
 163 209 163 209 138.5 217.5 c 128,-1,2
 114 226 114 226 93 243 c 128,-1,3
 72 260 72 260 58 286 c 128,-1,4
 44 312 44 312 44 348 c 256,5,6
 44 384 44 384 56 410.5 c 128,-1,7
 68 437 68 437 87.5 454.5 c 128,-1,8
 107 472 107 472 132.5 481 c 128,-1,9
 158 490 158 490 185 490 c 2,10,-1
 439 490 l 1,11,-1
 439 427 l 1,12,-1
 389 427 l 1,13,-1
 389 -141 l 1,14,-1
 327 -140 l 1,15,-1
 327 427 l 1,16,-1
 267 427 l 1,17,-1
 267 -139 l 1,18,-1
 207 -139 l 1,19,-1
 207 209 l 1,20,-1
 185 209 l 2,0,1
EndSplineSet
EndChar
StartChar: periodcentered
Encoding: 183 183 121
Width: 230
Flags: W
Fore
180 236 m 256,0,1
 180 209 180 209 161 190.5 c 128,-1,2
 142 172 142 172 115 172 c 0,3,4
 89 172 89 172 69.5 190.5 c 128,-1,5
 50 209 50 209 50 236 c 256,6,7
 50 263 50 263 69.5 282 c 128,-1,8
 89 301 89 301 115 301 c 0,9,10
 142 301 142 301 161 282 c 128,-1,11
 180 263 180 263 180 236 c 256,0,1
EndSplineSet
EndChar
StartChar: cedilla
Encoding: 184 184 122
Width: 216
Flags: W
Fore
184 -87 m 0,0,1
 179 -110 179 -110 161.5 -124 c 128,-1,2
 144 -138 144 -138 120.5 -143 c 128,-1,3
 97 -148 97 -148 71.5 -145.5 c 128,-1,4
 46 -143 46 -143 26 -134 c 1,5,-1
 45 -96 l 1,6,7
 52 -102 52 -102 65 -105 c 128,-1,8
 78 -108 78 -108 90.5 -107.5 c 128,-1,9
 103 -107 103 -107 112.5 -101.5 c 128,-1,10
 122 -96 122 -96 124 -85 c 0,11,12
 126 -68 126 -68 105.5 -61.5 c 128,-1,13
 85 -55 85 -55 60 -57 c 1,14,-1
 100 4 l 1,15,-1
 145 4 l 1,16,-1
 117 -32 l 1,17,18
 151 -27 151 -27 170 -44.5 c 128,-1,19
 189 -62 189 -62 184 -87 c 0,0,1
EndSplineSet
EndChar
StartChar: onesuperior
Encoding: 185 185 123
Width: 262
Flags: W
Fore
174 189 m 1,0,-1
 124 189 l 1,1,-1
 124 403 l 1,2,-1
 82 375 l 1,3,-1
 68 395 l 1,4,-1
 54 415 l 1,5,6
 68.5 424.5 l 130,-1,7
 83 434 83 434 100.5 446 c 128,-1,8
 118 458 118 458 132.5 468 c 128,-1,9
 146 477 146 477 147 478 c 0,10,11
 155 484 155 484 162 481 c 128,-1,12
 169 478 169 478 176 470 c 256,13,14
 183 462 183 462 182.5 451.5 c 128,-1,15
 182 441 182 441 174 434 c 1,16,-1
 174 189 l 1,0,-1
EndSplineSet
EndChar
StartChar: ordmasculine
Encoding: 186 186 124
Width: 252
Flags: W
Fore
247 308 m 0,0,1
 247 276 247 276 235.5 253 c 128,-1,2
 224 230 224 230 206 215.5 c 128,-1,3
 188 201 188 201 166.5 194 c 128,-1,4
 145 187 145 187 125 187 c 0,5,6
 99 187 99 187 77 196 c 128,-1,7
 55 205 55 205 39 220.5 c 128,-1,8
 23 236 23 236 14 257.5 c 128,-1,9
 5 279 5 279 5 304 c 0,10,11
 5 332 5 332 15.5 355 c 128,-1,12
 26 378 26 378 42.5 393.5 c 128,-1,13
 59 409 59 409 80.5 417.5 c 128,-1,14
 102 426 102 426 125 426 c 0,15,16
 153 426 153 426 176 416.5 c 128,-1,17
 199 407 199 407 214.5 391 c 128,-1,18
 230 375 230 375 238.5 353.5 c 128,-1,19
 247 332 247 332 247 308 c 0,0,1
197 306 m 0,20,21
 197 318 197 318 193 331 c 128,-1,22
 189 344 189 344 180.5 354.5 c 128,-1,23
 172 365 172 365 158.5 372 c 128,-1,24
 145 379 145 379 126 379 c 0,25,26
 91 379 91 379 73.5 356 c 128,-1,27
 56 333 56 333 56 305 c 0,28,29
 56 269 56 269 78.5 251.5 c 128,-1,30
 101 234 101 234 126 234 c 0,31,32
 153 234 153 234 175 251.5 c 128,-1,33
 197 269 197 269 197 306 c 0,20,21
EndSplineSet
EndChar
StartChar: guillemotright
Encoding: 187 187 125
Width: 400
Flags: W
Fore
269 30 m 1,0,-1
 187 30 l 1,1,-1
 284 178 l 1,2,-1
 187 325 l 1,3,-1
 269 325 l 1,4,-1
 361 178 l 1,5,-1
 269 30 l 1,0,-1
122 30 m 1,6,-1
 40 30 l 1,7,-1
 137 178 l 1,8,-1
 40 325 l 1,9,-1
 122 325 l 1,10,-1
 214 178 l 1,11,-1
 122 30 l 1,6,-1
EndSplineSet
EndChar
StartChar: onequarter
Encoding: 188 188 126
Width: 631
Flags: W
Fore
189 -6 m 1,0,-1
 135 -6 l 1,1,-1
 425 479 l 1,2,-1
 480 479 l 1,3,-1
 189 -6 l 1,0,-1
174 189 m 1,4,-1
 124 189 l 1,5,-1
 124 403 l 1,6,-1
 82 375 l 1,7,-1
 68 395 l 1,8,-1
 54 415 l 1,9,10
 68.5 424.5 l 130,-1,11
 83 434 83 434 100.5 446 c 128,-1,12
 118 458 118 458 132.5 468 c 128,-1,13
 146 477 146 477 147 478 c 0,14,15
 155 484 155 484 162 481 c 128,-1,16
 169 478 169 478 176 470 c 256,17,18
 183 462 183 462 182.5 451.5 c 128,-1,19
 182 441 182 441 174 434 c 1,20,-1
 174 189 l 1,4,-1
583 65 m 1,21,-1
 583 114 l 1,22,-1
 534 114 l 1,23,-1
 534 258 l 1,24,25
 537 264 537 264 539 265.5 c 128,-1,26
 541 267 541 267 539 274 c 1,27,28
 539 272 539 272 536.5 276 c 128,-1,29
 534 280 534 280 530.5 285.5 c 128,-1,30
 527 291 527 291 523 295.5 c 128,-1,31
 519 300 519 300 515 300 c 0,32,33
 506 301 506 301 501 293 c 1,34,-1
 502 294 l 1,35,-1
 344 103 l 1,36,-1
 344 102 l 1,37,38
 337 91 337 91 344 78.5 c 128,-1,39
 351 66 351 66 363 65 c 2,40,-1
 485 65 l 1,41,-1
 485 0 l 1,42,-1
 534 0 l 1,43,-1
 534 65 l 1,44,-1
 583 65 l 1,21,-1
486 200 m 1,45,-1
 485 114 l 1,46,-1
 416 114 l 1,47,-1
 486 200 l 1,45,-1
EndSplineSet
Ligature: 0 0 'frac' one fraction four
Ligature: 0 0 'frac' one slash four
EndChar
StartChar: onehalf
Encoding: 189 189 127
Width: 618
Flags: W
Fore
539 0 m 1,0,-1
 361 0 l 2,1,2
 351 0 351 0 350.5 7.5 c 128,-1,3
 350 15 350 15 350 25 c 0,4,5
 350 33 350 33 355.5 38 c 128,-1,6
 361 43 361 43 367 46 c 1,7,8
 375 57 375 57 386.5 71.5 c 128,-1,9
 398 86 398 86 418 103 c 0,10,11
 449 129 449 129 465 145 c 128,-1,12
 481 161 481 161 489 171 c 0,13,14
 498 182 498 182 498 189 c 2,15,16
 503 203 503 203 495 219 c 128,-1,17
 487 235 487 235 470 240 c 0,18,19
 456 244 456 244 443 241 c 128,-1,20
 430 238 430 238 421.5 229 c 128,-1,21
 413 220 413 220 410 207 c 128,-1,22
 407 194 407 194 414 179 c 1,23,-1
 366 167 l 1,24,25
 355 195 355 195 361 220.5 c 128,-1,26
 367 246 367 246 385 263.5 c 128,-1,27
 403 281 403 281 429.5 288 c 128,-1,28
 456 295 456 295 485 287 c 0,29,30
 512 279 512 279 529.5 256.5 c 128,-1,31
 547 234 547 234 549 202 c 0,32,33
 550 176 550 176 538 155.5 c 128,-1,34
 526 135 526 135 507.5 117.5 c 128,-1,35
 489 100 489 100 468 83.5 c 128,-1,36
 447 67 447 67 431 50 c 1,37,-1
 510 50 l 1,38,-1
 523 76 l 1,39,-1
 543 66 l 2,40,41
 552 62 552 62 563 55 c 1,42,-1
 539 0 l 1,0,-1
174 189 m 1,43,-1
 124 189 l 1,44,-1
 124 403 l 1,45,-1
 82 375 l 1,46,-1
 68 395 l 1,47,-1
 54 415 l 1,48,49
 68.5 424.5 l 130,-1,50
 83 434 83 434 100.5 446 c 128,-1,51
 118 458 118 458 132.5 468 c 128,-1,52
 146 477 146 477 147 478 c 0,53,54
 155 484 155 484 162 481 c 128,-1,55
 169 478 169 478 176 470 c 256,56,57
 183 462 183 462 182.5 451.5 c 128,-1,58
 182 441 182 441 174 434 c 1,59,-1
 174 189 l 1,43,-1
168 -6 m 1,60,-1
 114 -6 l 1,61,-1
 404 479 l 1,62,-1
 459 479 l 1,63,-1
 168 -6 l 1,60,-1
EndSplineSet
Ligature: 0 0 'frac' one fraction two
Ligature: 0 0 'frac' one slash two
EndChar
StartChar: threequarters
Encoding: 190 190 128
Width: 628
Flags: W
Fore
583 65 m 1,0,-1
 583 114 l 1,1,-1
 534 114 l 1,2,-1
 534 258 l 1,3,4
 537 264 537 264 539 265.5 c 128,-1,5
 541 267 541 267 539 274 c 1,6,7
 539 272 539 272 536.5 276 c 128,-1,8
 534 280 534 280 530.5 285.5 c 128,-1,9
 527 291 527 291 523 295.5 c 128,-1,10
 519 300 519 300 515 300 c 0,11,12
 506 301 506 301 501 293 c 1,13,-1
 502 294 l 1,14,-1
 344 103 l 1,15,-1
 344 102 l 1,16,17
 337 91 337 91 344 78.5 c 128,-1,18
 351 66 351 66 363 65 c 2,19,-1
 485 65 l 1,20,-1
 485 0 l 1,21,-1
 534 0 l 1,22,-1
 534 65 l 1,23,-1
 583 65 l 1,0,-1
486 200 m 1,24,-1
 485 114 l 1,25,-1
 416 114 l 1,26,-1
 486 200 l 1,24,-1
88 278 m 1,27,28
 92 260 92 260 101.5 250 c 128,-1,29
 111 240 111 240 122.5 235.5 c 128,-1,30
 134 231 134 231 146 230.5 c 128,-1,31
 158 230 158 230 166 232 c 0,32,33
 186 237 186 237 201.5 254 c 128,-1,34
 217 271 217 271 215 302 c 0,35,36
 214 315 214 315 206.5 324 c 128,-1,37
 199 333 199 333 189 338 c 128,-1,38
 179 343 179 343 169 343 c 128,-1,39
 159 343 159 343 153 337 c 0,40,41
 151 335 151 335 143 329 c 128,-1,42
 135 323 135 323 130 322 c 1,43,44
 121 322 121 322 112 329 c 0,45,46
 104 337 104 337 100 342 c 128,-1,47
 96 347 96 347 104 355 c 2,48,-1
 171 424 l 1,49,-1
 101 424 l 1,50,-1
 88 389 l 1,51,52
 81.5 392.5 l 130,-1,53
 75 396 75 396 67 400 c 128,-1,54
 59 404 59 404 52.5 407.5 c 128,-1,55
 47 411 47 411 46 411 c 1,56,-1
 64 474 l 1,57,-1
 239 474 l 2,58,59
 258 474 258 474 252 453 c 0,60,61
 247 436 247 436 242.5 431.5 c 128,-1,62
 238 427 238 427 229 425 c 1,63,-1
 192 384 l 1,64,65
 216 386 216 386 238 365 c 128,-1,66
 260 344 260 344 263 306 c 0,67,68
 265 280 265 280 258 259 c 128,-1,69
 251 238 251 238 238.5 222 c 128,-1,70
 226 206 226 206 209.5 196.5 c 128,-1,71
 193 187 193 187 176 183 c 0,72,73
 156 179 156 179 134 182 c 128,-1,74
 112 185 112 185 93.5 195 c 128,-1,75
 75 205 75 205 60.5 222 c 128,-1,76
 46 239 46 239 41 264 c 1,77,78
 46.5 266 l 130,-1,79
 52 268 52 268 60 270 c 128,-1,80
 68 272 68 272 75.5 274 c 128,-1,81
 83 276 83 276 88 278 c 1,27,28
220 -6 m 1,82,-1
 166 -6 l 1,83,-1
 456 479 l 1,84,-1
 511 479 l 1,85,-1
 220 -6 l 1,82,-1
EndSplineSet
Ligature: 0 0 'frac' three fraction four
Ligature: 0 0 'frac' three slash four
EndChar
StartChar: questiondown
Encoding: 191 191 129
Width: 399
Flags: W
Fore
96 -97 m 0,0,1
 77 -72 77 -72 73 -47 c 128,-1,2
 69 -22 69 -22 75.5 1.5 c 128,-1,3
 82 25 82 25 95.5 46 c 128,-1,4
 109 67 109 67 124 84 c 0,5,6
 146 110 146 110 163 134.5 c 128,-1,7
 180 159 180 159 180 191 c 2,8,-1
 180 233 l 1,9,-1
 250 233 l 1,10,-1
 250 191 l 2,11,12
 250 148 250 148 228.5 116.5 c 128,-1,13
 207 85 207 85 183 58 c 0,14,15
 153 24 153 24 142 -1.5 c 128,-1,16
 131 -27 131 -27 147 -56 c 0,17,18
 165 -89 165 -89 218 -85 c 0,19,20
 239 -83 239 -83 262 -66 c 128,-1,21
 285 -49 285 -49 293 -26 c 1,22,-1
 339 -56 l 1,23,24
 327 -90 327 -90 300 -112.5 c 128,-1,25
 273 -135 273 -135 234 -140 c 0,26,27
 195 -146 195 -146 156.5 -136 c 128,-1,28
 118 -126 118 -126 96 -97 c 0,0,1
170 298 m 256,29,30
 170 318 170 318 182.5 330 c 128,-1,31
 195 342 195 342 215 342 c 256,32,33
 235 342 235 342 247.5 330 c 128,-1,34
 260 318 260 318 260 298 c 256,35,36
 260 278 260 278 247.5 265 c 128,-1,37
 235 252 235 252 215 252 c 256,38,39
 195 252 195 252 182.5 265 c 128,-1,40
 170 278 170 278 170 298 c 256,29,30
EndSplineSet
EndChar
StartChar: Aring
Encoding: 197 197 134
Width: 458
Flags: W
Fore
228 569 m 0,0,1
 243 569 243 569 253 579.5 c 128,-1,2
 263 590 263 590 263 604 c 256,3,4
 263 618 263 618 253 628.5 c 128,-1,5
 243 639 243 639 228 639 c 0,6,7
 214 639 214 639 203.5 628.5 c 128,-1,8
 193 618 193 618 193 604 c 0,9,10
 194 590 194 590 204 579.5 c 128,-1,11
 214 569 214 569 228 569 c 0,0,1
228 683 m 256,12,13
 262 683 262 683 285.5 660 c 128,-1,14
 309 637 309 637 309 603 c 256,15,16
 309 569 309 569 285.5 546 c 128,-1,17
 262 523 262 523 228 523 c 256,18,19
 194 523 194 523 171 546 c 128,-1,20
 148 569 148 569 148 603 c 256,21,22
 148 637 148 637 171 660 c 128,-1,23
 194 683 194 683 228 683 c 256,12,13
445 0 m 1,24,-1
 378 -12 l 1,25,-1
 325 124 l 1,26,-1
 132 124 l 1,27,-1
 81 -12 l 1,28,-1
 13 0 l 1,29,-1
 195 455 l 2,30,31
 197 461 197 461 204.5 472.5 c 128,-1,32
 212 484 212 484 223 490 c 0,33,34
 228 493 228 493 235.5 492 c 128,-1,35
 243 491 243 491 250.5 488 c 128,-1,36
 258 485 258 485 264.5 481 c 128,-1,37
 271 477 271 477 273 474 c 0,38,39
 281 465 281 465 276 456 c 128,-1,40
 271 447 271 447 269 443 c 1,41,-1
 445 0 l 1,24,-1
228 377 m 1,42,-1
 156 186 l 1,43,-1
 301 186 l 1,44,-1
 228 377 l 1,42,-1
EndSplineSet
EndChar
StartChar: AE
Encoding: 198 198 135
Width: 649
Flags: W
Fore
421 214 m 1,0,-1
 421 68 l 1,1,-1
 618 68 l 1,2,-1
 618 1 l 1,3,-1
 401 1 l 2,4,5
 381 1 381 1 366 15.5 c 128,-1,6
 351 30 351 30 351 50 c 2,7,-1
 351 123 l 1,8,-1
 188 123 l 1,9,-1
 100 -13 l 1,10,-1
 33 18 l 1,11,-1
 305 438 l 2,12,13
 330 478 330 478 377 478 c 2,14,-1
 619 478 l 1,15,-1
 618 410 l 1,16,-1
 420 410 l 1,17,-1
 420 281 l 1,18,-1
 598 281 l 1,19,-1
 599 214 l 1,20,-1
 421 214 l 1,0,-1
224 185 m 1,21,-1
 351 185 l 1,22,23
 351 214 351 214 351 244 c 128,-1,24
 351 274 351 274 351.5 302 c 128,-1,25
 352 330 352 330 352 354 c 128,-1,26
 352 378 352 378 352 395 c 1,27,-1
 224 185 l 1,21,-1
EndSplineSet
EndChar
StartChar: Eth
Encoding: 208 208 145
Width: 522
Flags: W
Fore
0 267 m 1,0,-1
 63 267 l 1,1,-1
 63 394 l 2,2,3
 63 403 63 403 57 410 c 128,-1,4
 51 417 51 417 45 423 c 128,-1,5
 39 429 39 429 35 435 c 128,-1,6
 31 441 31 441 34 448 c 0,7,8
 36 453 36 453 40.5 460 c 128,-1,9
 45 467 45 467 51 473 c 128,-1,10
 57 479 57 479 64 482.5 c 128,-1,11
 71 486 71 486 78 483 c 0,12,13
 81 481 81 481 84.5 479 c 128,-1,14
 88 477 88 477 92 475 c 1,15,-1
 201 475 l 2,16,17
 312 475 312 475 367.5 412 c 128,-1,18
 423 349 423 349 423 238 c 0,19,20
 423 123 423 123 366 61.5 c 128,-1,21
 309 0 309 0 201 0 c 2,22,-1
 63 0 l 1,23,-1
 63 217 l 1,24,-1
 0 217 l 1,25,-1
 0 267 l 1,0,-1
353 238 m 0,26,27
 353 408 353 408 186 408 c 2,28,-1
 130 408 l 1,29,-1
 130 267 l 1,30,-1
 229 267 l 1,31,-1
 229 217 l 1,32,-1
 130 217 l 1,33,-1
 130 68 l 1,34,-1
 209 68 l 2,35,36
 287 68 287 68 320 113.5 c 128,-1,37
 353 159 353 159 353 238 c 0,26,27
EndSplineSet
EndChar
StartChar: multiply
Encoding: 215 215 152
Width: 429
Flags: W
Fore
340 8 m 1,0,-1
 219 135 l 1,1,2
 197 113 197 113 185.5 101.5 c 128,-1,3
 174 90 174 90 167.5 83 c 128,-1,4
 161 76 161 76 157 71.5 c 128,-1,5
 153 67 153 67 146.5 60 c 128,-1,6
 140 53 140 53 128.5 41 c 128,-1,7
 117 29 117 29 96 7 c 1,8,-1
 53 47 l 1,9,-1
 176 174 l 1,10,-1
 53 301 l 1,11,-1
 96 341 l 1,12,-1
 218 213 l 1,13,-1
 337 339 l 1,14,-1
 380 299 l 1,15,-1
 259 174 l 1,16,-1
 383 48 l 1,17,-1
 340 8 l 1,0,-1
EndSplineSet
EndChar
StartChar: Oslash
Encoding: 216 216 153
Width: 489
Flags: W
Fore
442 505 m 1,0,-1
 387 417 l 1,1,2
 436 351 436 351 436 241 c 0,3,4
 436 184 436 184 422.5 138.5 c 128,-1,5
 409 93 409 93 384 60.5 c 128,-1,6
 359 28 359 28 323.5 11 c 128,-1,7
 288 -6 288 -6 243 -6 c 0,8,9
 182 -6 182 -6 139 24 c 1,10,-1
 87 -58 l 1,11,-1
 45 -32 l 1,12,-1
 102 59 l 1,13,14
 76 91 76 91 62.5 137 c 128,-1,15
 49 183 49 183 49 241 c 0,16,17
 49 292 49 292 60.5 336.5 c 128,-1,18
 72 381 72 381 95.5 414.5 c 128,-1,19
 119 448 119 448 155.5 467.5 c 128,-1,20
 192 487 192 487 243 487 c 0,21,22
 305 487 305 487 351 453 c 1,23,-1
 400 531 l 1,24,-1
 442 505 l 1,0,-1
117 241 m 0,25,26
 117 206 117 206 123.5 175.5 c 128,-1,27
 130 145 130 145 143 122 c 1,28,-1
 315 395 l 1,29,30
 286 421 286 421 243 421 c 0,31,32
 208 421 208 421 184 405 c 128,-1,33
 160 389 160 389 145 363.5 c 128,-1,34
 130 338 130 338 123.5 306 c 128,-1,35
 117 274 117 274 117 241 c 0,25,26
368 241 m 0,36,37
 368 305 368 305 346 352 c 1,38,-1
 175 82 l 1,39,40
 203 60 203 60 243 60 c 0,41,42
 277 60 277 60 301 75 c 128,-1,43
 325 90 325 90 340 115.5 c 128,-1,44
 355 141 355 141 361.5 173.5 c 128,-1,45
 368 206 368 206 368 241 c 0,36,37
EndSplineSet
EndChar
StartChar: Thorn
Encoding: 222 222 159
Width: 487
Flags: W
Fore
435 250 m 0,0,1
 435 200 435 200 418 165 c 128,-1,2
 401 130 401 130 370 107.5 c 128,-1,3
 339 85 339 85 295 74.5 c 128,-1,4
 251 64 251 64 197 64 c 2,5,-1
 134 64 l 1,6,-1
 134 -84 l 1,7,-1
 62 -84 l 1,8,-1
 62 536 l 1,9,-1
 134 536 l 1,10,-1
 134 422 l 1,11,-1
 220 422 l 2,12,13
 265 423 265 423 304.5 413 c 128,-1,14
 344 403 344 403 373 381.5 c 128,-1,15
 402 360 402 360 418.5 327.5 c 128,-1,16
 435 295 435 295 435 250 c 0,0,1
361 247 m 0,17,18
 361 276 361 276 350 296.5 c 128,-1,19
 339 317 339 317 320.5 330.5 c 128,-1,20
 302 344 302 344 277.5 350 c 128,-1,21
 253 356 253 356 226 356 c 2,22,-1
 134 356 l 1,23,-1
 134 140 l 1,24,-1
 209 140 l 2,25,26
 283 140 283 140 322 165 c 128,-1,27
 361 190 361 190 361 247 c 0,17,18
EndSplineSet
EndChar
StartChar: uni00DF
Encoding: 223 223 160
Width: 461
Flags: W
Fore
185 -4 m 1,0,-1
 185 61 l 1,1,-1
 228 61 l 2,2,3
 251 61 251 61 272.5 68.5 c 128,-1,4
 294 76 294 76 310 90.5 c 128,-1,5
 326 105 326 105 335.5 124 c 128,-1,6
 345 143 345 143 344 166 c 0,7,8
 344 188 344 188 335.5 206.5 c 128,-1,9
 327 225 327 225 312 238.5 c 128,-1,10
 297 252 297 252 278 260 c 128,-1,11
 259 268 259 268 238 268 c 2,12,-1
 184 268 l 1,13,-1
 185 333 l 1,14,-1
 242 333 l 2,15,16
 264 336 264 336 274 348 c 128,-1,17
 284 360 284 360 283.5 375 c 128,-1,18
 283 390 283 390 272.5 404 c 128,-1,19
 262 418 262 418 244 423 c 0,20,21
 224 429 224 429 204 426.5 c 128,-1,22
 184 424 184 424 167.5 413.5 c 128,-1,23
 151 403 151 403 140.5 385.5 c 128,-1,24
 130 368 130 368 130 343 c 2,25,-1
 130 -128 l 2,26,27
 130 -129 130 -129 119 -129.5 c 128,-1,28
 108 -130 108 -130 95.5 -130 c 128,-1,29
 83 -130 83 -130 72 -129.5 c 128,-1,30
 62 -129 62 -129 61 -129 c 1,31,-1
 61 348 l 2,32,33
 61 411 61 411 98.5 446.5 c 128,-1,34
 136 482 136 482 199 482 c 0,35,36
 258 485 258 485 296.5 465.5 c 128,-1,37
 335 446 335 446 351.5 417 c 128,-1,38
 368 388 368 388 362 355.5 c 128,-1,39
 356 323 356 323 327 300 c 1,40,41
 347 293 347 293 359.5 282.5 c 128,-1,42
 372 272 372 272 383 256 c 0,43,44
 410 217 410 217 410 163 c 0,45,46
 410 128 410 128 396 97.5 c 128,-1,47
 382 67 382 67 358.5 44.5 c 128,-1,48
 335 22 335 22 303 9 c 128,-1,49
 271 -4 271 -4 235 -4 c 2,50,-1
 185 -4 l 1,0,-1
EndSplineSet
EndChar
StartChar: ae
Encoding: 230 230 167
Width: 661
Flags: W
Fore
460 359 m 0,0,1
 502 359 502 359 533 344 c 128,-1,2
 564 329 564 329 584 305 c 128,-1,3
 604 281 604 281 613.5 250.5 c 128,-1,4
 623 220 623 220 622 189 c 0,5,6
 621 181 621 181 619.5 173 c 128,-1,7
 618 165 618 165 610 159 c 0,8,9
 602 152 602 152 580 152 c 2,10,-1
 358 152 l 1,11,12
 358 117 358 117 375 95 c 128,-1,13
 392 73 392 73 418.5 64 c 128,-1,14
 445 55 445 55 476.5 60 c 128,-1,15
 508 65 508 65 538 85 c 1,16,-1
 577 33 l 1,17,18
 560 19 560 19 533 9 c 128,-1,19
 506 -1 506 -1 475 -4 c 128,-1,20
 444 -7 444 -7 412.5 -1 c 128,-1,21
 381 5 381 5 354 23 c 1,22,-1
 354 16 l 2,23,24
 354 13 354 13 354 9.5 c 128,-1,25
 354 6 354 6 355 2 c 1,26,-1
 287 2 l 1,27,-1
 286 39 l 1,28,29
 266 16 266 16 240.5 4 c 128,-1,30
 215 -8 215 -8 183 -8 c 0,31,32
 147 -8 147 -8 119 7 c 128,-1,33
 91 22 91 22 71.5 47.5 c 128,-1,34
 52 73 52 73 42 105.5 c 128,-1,35
 32 138 32 138 32 173 c 256,36,37
 32 208 32 208 42.5 241 c 128,-1,38
 53 274 53 274 73 299 c 128,-1,39
 93 324 93 324 120.5 339 c 128,-1,40
 148 354 148 354 183 354 c 0,41,42
 246 354 246 354 285 309 c 1,43,-1
 285 358 l 1,44,-1
 351 358 l 1,45,-1
 351 320 l 1,46,47
 372 338 372 338 399.5 348.5 c 128,-1,48
 427 359 427 359 460 359 c 0,0,1
247 78 m 0,49,50
 268 97 268 97 276.5 124 c 128,-1,51
 285 151 285 151 285 173 c 0,52,53
 285 191 285 191 280 211.5 c 128,-1,54
 275 232 275 232 263.5 249.5 c 128,-1,55
 252 267 252 267 233.5 278.5 c 128,-1,56
 215 290 215 290 188 290 c 0,57,58
 162 290 162 290 143.5 278.5 c 128,-1,59
 125 267 125 267 113.5 249.5 c 128,-1,60
 102 232 102 232 97 211.5 c 128,-1,61
 92 191 92 191 92 173 c 0,62,63
 92 153 92 153 98 132.5 c 128,-1,64
 104 112 104 112 116 95.5 c 128,-1,65
 128 79 128 79 146 68 c 128,-1,66
 164 57 164 57 188 57 c 0,67,68
 223 57 223 57 247 78 c 0,49,50
357 213 m 1,69,-1
 555 213 l 1,70,71
 553 247 553 247 527 272 c 128,-1,72
 501 297 501 297 459 297 c 0,73,74
 433 297 433 297 415 288.5 c 128,-1,75
 397 280 397 280 384.5 267 c 128,-1,76
 372 254 372 254 365.5 239.5 c 128,-1,77
 359 225 359 225 357 213 c 1,69,-1
EndSplineSet
EndChar
StartChar: eth
Encoding: 240 240 177
Width: 416
Flags: W
Fore
103 553 m 1,0,1
 115 549 115 549 130.5 542 c 128,-1,2
 146 535 146 535 163 526 c 128,-1,3
 180 517 180 517 195.5 508 c 128,-1,4
 211 499 211 499 223 491 c 1,5,6
 234 496 234 496 249 503.5 c 128,-1,7
 264 511 264 511 279 517 c 0,8,9
 296 524 296 524 315 531 c 1,10,11
 318 523 318 523 325.5 507 c 128,-1,12
 333 491 333 491 337 483 c 1,13,14
 317 474 317 474 301 468 c 128,-1,15
 285 462 285 462 265 453 c 1,16,17
 326 401 326 401 359.5 333 c 128,-1,18
 393 265 393 265 393 182 c 0,19,20
 393 142 393 142 380.5 103.5 c 128,-1,21
 368 65 368 65 336 36 c 256,22,23
 304 7 304 7 260 -4 c 128,-1,24
 216 -15 216 -15 173 -8 c 128,-1,25
 130 -1 130 -1 93.5 24 c 128,-1,26
 57 49 57 49 39 93 c 0,27,28
 21 136 21 136 22 177 c 128,-1,29
 23 218 23 218 38 252.5 c 128,-1,30
 53 287 53 287 80 312 c 128,-1,31
 107 337 107 337 142.5 349.5 c 128,-1,32
 178 362 178 362 218.5 359 c 128,-1,33
 259 356 259 356 302 334 c 1,34,35
 283 363 283 363 261.5 385 c 128,-1,36
 240 407 240 407 213 426 c 1,37,38
 186 414 186 414 153.5 398 c 128,-1,39
 121 382 121 382 95 371 c 1,40,41
 92 379 92 379 85.5 394.5 c 128,-1,42
 79 410 79 410 76 418 c 1,43,44
 99 429 99 429 123 440.5 c 128,-1,45
 147 452 147 452 171 463 c 1,46,47
 150 475 150 475 124.5 487.5 c 128,-1,48
 99 500 99 500 76 508 c 1,49,50
 80 516 80 516 89 530.5 c 128,-1,51
 98 545 98 545 103 553 c 1,0,1
331 177 m 0,52,53
 332 221 332 221 311 251 c 128,-1,54
 290 281 290 281 259 294.5 c 128,-1,55
 228 308 228 308 191.5 304.5 c 128,-1,56
 155 301 155 301 125 277 c 0,57,58
 100 258 100 258 90.5 229 c 128,-1,59
 81 200 81 200 82 169 c 0,60,61
 82 128 82 128 104 97 c 128,-1,62
 126 66 126 66 157.5 51 c 128,-1,63
 189 36 189 36 224.5 39 c 128,-1,64
 260 42 260 42 289 68 c 0,65,66
 312 90 312 90 321 118 c 128,-1,67
 330 146 330 146 331 177 c 0,52,53
EndSplineSet
EndChar
StartChar: divide
Encoding: 247 247 184
Width: 500
Flags: W
Fore
293 299 m 0,0,1
 293 280 293 280 278.5 264.5 c 128,-1,2
 264 249 264 249 244 249 c 0,3,4
 223 249 223 249 208.5 263.5 c 128,-1,5
 194 278 194 278 194 299 c 256,6,7
 194 320 194 320 208.5 335 c 128,-1,8
 223 350 223 350 244 350 c 0,9,10
 264 350 264 350 278.5 334.5 c 128,-1,11
 293 319 293 319 293 299 c 0,0,1
293 52 m 0,12,13
 293 33 293 33 278.5 17 c 128,-1,14
 264 1 264 1 244 1 c 0,15,16
 223 1 223 1 208.5 16 c 128,-1,17
 194 31 194 31 194 52 c 256,18,19
 194 73 194 73 208.5 87 c 128,-1,20
 223 101 223 101 244 101 c 0,21,22
 264 101 264 101 278.5 86.5 c 128,-1,23
 293 72 293 72 293 52 c 0,12,13
61 209 m 1,24,-1
 434 209 l 1,25,-1
 434 139 l 1,26,-1
 61 139 l 1,27,-1
 61 209 l 1,24,-1
EndSplineSet
EndChar
StartChar: oslash
Encoding: 248 248 185
Width: 416
Flags: W
Fore
365 376 m 1,0,-1
 318 305 l 1,1,2
 343 277 343 277 354 240.5 c 128,-1,3
 365 204 365 204 365 173 c 0,4,5
 365 138 365 138 351.5 96.5 c 128,-1,6
 338 55 338 55 304 26 c 0,7,8
 265 -7 265 -7 209 -7 c 0,9,10
 161 -7 161 -7 125 17 c 1,11,-1
 78 -54 l 1,12,-1
 43 -30 l 1,13,-1
 94 47 l 1,14,15
 71 75 71 75 61.5 109.5 c 128,-1,16
 52 144 52 144 52 173 c 0,17,18
 52 200 52 200 60.5 231.5 c 128,-1,19
 69 263 69 263 87.5 290 c 128,-1,20
 106 317 106 317 136 335 c 128,-1,21
 166 353 166 353 209 353 c 0,22,23
 253 353 253 353 285 332 c 1,24,-1
 330 400 l 1,25,-1
 365 376 l 1,0,-1
109 173 m 256,26,27
 109 156 109 156 114 136.5 c 128,-1,28
 119 117 119 117 130 100 c 1,29,-1
 250 279 l 1,30,31
 232 288 232 288 209 288 c 0,32,33
 181 288 181 288 162 276.5 c 128,-1,34
 143 265 143 265 131 247.5 c 128,-1,35
 119 230 119 230 114 210 c 128,-1,36
 109 190 109 190 109 173 c 256,26,27
309 173 m 0,37,38
 309 192 309 192 303 213.5 c 128,-1,39
 297 235 297 235 283 253 c 1,40,-1
 161 70 l 1,41,42
 182 58 182 58 209 58 c 0,43,44
 245 58 245 58 269 79 c 0,45,46
 292 97 292 97 300.5 123.5 c 128,-1,47
 309 150 309 150 309 173 c 0,37,38
EndSplineSet
EndChar
StartChar: thorn
Encoding: 254 254 191
Width: 489
Flags: W
Fore
125 173 m 256,0,1
 125 146 125 146 134.5 122.5 c 128,-1,2
 144 99 144 99 160 81.5 c 128,-1,3
 176 64 176 64 198 54 c 128,-1,4
 220 44 220 44 245 44 c 256,5,6
 270 44 270 44 291.5 54 c 128,-1,7
 313 64 313 64 329.5 81.5 c 128,-1,8
 346 99 346 99 355.5 122.5 c 128,-1,9
 365 146 365 146 365 173 c 256,10,11
 365 200 365 200 355.5 223 c 128,-1,12
 346 246 346 246 329.5 263.5 c 128,-1,13
 313 281 313 281 291.5 291 c 128,-1,14
 270 301 270 301 245 301 c 256,15,16
 220 301 220 301 198 291 c 128,-1,17
 176 281 176 281 160 263.5 c 128,-1,18
 144 246 144 246 134.5 223 c 128,-1,19
 125 200 125 200 125 173 c 256,0,1
62 497 m 1,20,-1
 134 497 l 1,21,-1
 134 324 l 1,22,23
 157 343 157 343 185 353.5 c 128,-1,24
 213 364 213 364 245 364 c 0,25,26
 283 364 283 364 316.5 349 c 128,-1,27
 350 334 350 334 374.5 308 c 128,-1,28
 399 282 399 282 413.5 247.5 c 128,-1,29
 428 213 428 213 428 173 c 256,30,31
 428 133 428 133 413.5 98.5 c 128,-1,32
 399 64 399 64 374.5 38 c 128,-1,33
 350 12 350 12 316.5 -3 c 128,-1,34
 283 -18 283 -18 245 -18 c 0,35,36
 213 -18 213 -18 185 -7.5 c 128,-1,37
 157 3 157 3 134 21 c 1,38,-1
 134 -158 l 1,39,-1
 62 -158 l 1,40,-1
 62 497 l 1,20,-1
EndSplineSet
EndChar
StartChar: Lslash
Encoding: 321 321 193
Width: 353
Flags: W
Fore
0 208 m 1,0,-1
 61 250 l 1,1,-1
 61 477 l 1,2,-1
 129 477 l 1,3,-1
 129 297 l 1,4,-1
 206 351 l 1,5,-1
 206 304 l 1,6,-1
 129 250 l 1,7,-1
 129 61 l 1,8,-1
 343 61 l 1,9,-1
 343 0 l 1,10,-1
 101 0 l 1,11,12
 96 -5 96 -5 87.5 -8.5 c 128,-1,13
 79 -12 79 -12 76 -14 c 0,14,15
 69 -17 69 -17 62 -13.5 c 128,-1,16
 55 -10 55 -10 49 -4 c 128,-1,17
 43 2 43 2 38.5 9 c 128,-1,18
 34 16 34 16 32 21 c 0,19,20
 29 28 29 28 33 34 c 128,-1,21
 37 40 37 40 43 46 c 128,-1,22
 49 52 49 52 55 59 c 128,-1,23
 61 66 61 66 61 75 c 2,24,-1
 61 203 l 1,25,-1
 0 161 l 1,26,-1
 0 208 l 1,0,-1
EndSplineSet
EndChar
StartChar: lslash
Encoding: 322 322 194
Width: 183
Flags: W
Fore
0 223 m 1,0,-1
 61 265 l 1,1,-1
 61 473 l 1,2,-1
 87 496 l 1,3,-1
 122 496 l 1,4,-1
 122 308 l 1,5,-1
 190 355 l 1,6,-1
 190 309 l 1,7,-1
 122 262 l 1,8,-1
 122 0 l 1,9,-1
 61 0 l 1,10,-1
 61 219 l 1,11,-1
 0 177 l 1,12,-1
 0 223 l 1,0,-1
EndSplineSet
EndChar
StartChar: OE
Encoding: 338 338 195
Width: 686
Flags: W
Fore
636 409 m 1,0,-1
 437 409 l 1,1,-1
 437 281 l 1,2,-1
 615 281 l 1,3,-1
 616 213 l 1,4,-1
 437 213 l 1,5,-1
 437 68 l 1,6,-1
 635 68 l 1,7,-1
 635 1 l 1,8,-1
 418 1 l 2,9,10
 399 1 399 1 385.5 12.5 c 128,-1,11
 372 24 372 24 370 43 c 1,12,13
 346 19 346 19 314 5 c 128,-1,14
 282 -9 282 -9 244 -9 c 0,15,16
 193 -9 193 -9 156.5 11.5 c 128,-1,17
 120 32 120 32 96 66.5 c 128,-1,18
 72 101 72 101 61 146 c 128,-1,19
 50 191 50 191 50 239 c 0,20,21
 50 284 50 284 60.5 328 c 128,-1,22
 71 372 71 372 94 407 c 128,-1,23
 117 442 117 442 154 464 c 128,-1,24
 191 486 191 486 244 486 c 0,25,26
 284 486 284 486 315 472 c 128,-1,27
 346 458 346 458 369 435 c 1,28,29
 373 455 373 455 387 466 c 128,-1,30
 401 477 401 477 420 477 c 2,31,-1
 636 477 l 1,32,-1
 636 409 l 1,0,-1
244 57 m 0,33,34
 276 57 276 57 298.5 72 c 128,-1,35
 321 87 321 87 336 110.5 c 128,-1,36
 351 134 351 134 358.5 163.5 c 128,-1,37
 366 193 366 193 368 222 c 2,38,-1
 368 257 l 2,39,40
 366 284 366 284 359 313 c 128,-1,41
 352 342 352 342 337 366 c 128,-1,42
 322 390 322 390 299.5 405 c 128,-1,43
 277 420 277 420 244 420 c 0,44,45
 209 420 209 420 185 404 c 128,-1,46
 161 388 161 388 146 362 c 128,-1,47
 131 336 131 336 124 304 c 128,-1,48
 117 272 117 272 117 239 c 0,49,50
 117 210 117 210 123.5 178 c 128,-1,51
 130 146 130 146 144.5 119 c 128,-1,52
 159 92 159 92 183.5 74.5 c 128,-1,53
 208 57 208 57 244 57 c 0,33,34
EndSplineSet
EndChar
StartChar: oe
Encoding: 339 339 196
Width: 655
Flags: W
Fore
459 354 m 0,0,1
 501 354 501 354 532 339 c 128,-1,2
 563 324 563 324 583 300 c 128,-1,3
 603 276 603 276 612.5 245.5 c 128,-1,4
 622 215 622 215 621 185 c 0,5,6
 621 165 621 165 610.5 156.5 c 128,-1,7
 600 148 600 148 579 148 c 2,8,-1
 357 148 l 1,9,10
 357 113 357 113 374 91 c 128,-1,11
 391 69 391 69 417.5 60 c 128,-1,12
 444 51 444 51 475.5 56 c 128,-1,13
 507 61 507 61 537 81 c 1,14,-1
 576 29 l 1,15,16
 556 9 556 9 519 -1.5 c 128,-1,17
 482 -12 482 -12 442.5 -9.5 c 128,-1,18
 403 -7 403 -7 367 10.5 c 128,-1,19
 331 28 331 28 313 64 c 1,20,21
 293 32 293 32 261 12.5 c 128,-1,22
 229 -7 229 -7 188 -7 c 0,23,24
 150 -7 150 -7 120.5 9 c 128,-1,25
 91 25 91 25 71 51 c 128,-1,26
 51 77 51 77 41 109 c 128,-1,27
 31 141 31 141 31 173 c 0,28,29
 31 200 31 200 39.5 231.5 c 128,-1,30
 48 263 48 263 66.5 289.5 c 128,-1,31
 85 316 85 316 115 334 c 128,-1,32
 145 352 145 352 188 352 c 0,33,34
 236 352 236 352 267 330.5 c 128,-1,35
 298 309 298 309 316 278 c 1,36,37
 339 313 339 313 374.5 333.5 c 128,-1,38
 410 354 410 354 459 354 c 0,0,1
248 78 m 0,39,40
 264 92 264 92 273 113 c 128,-1,41
 282 134 282 134 287 167 c 1,42,43
 287 186 287 186 282 207.5 c 128,-1,44
 277 229 277 229 265.5 247 c 128,-1,45
 254 265 254 265 235 276.5 c 128,-1,46
 216 288 216 288 188 288 c 256,47,48
 160 288 160 288 141 276.5 c 128,-1,49
 122 265 122 265 110 247.5 c 128,-1,50
 98 230 98 230 93 210 c 128,-1,51
 88 190 88 190 88 173 c 0,52,53
 88 152 88 152 94.5 131.5 c 128,-1,54
 101 111 101 111 113.5 94.5 c 128,-1,55
 126 78 126 78 144.5 68 c 128,-1,56
 163 58 163 58 188 58 c 0,57,58
 223 58 223 58 248 78 c 0,39,40
458 293 m 0,59,60
 432 293 432 293 414 284.5 c 128,-1,61
 396 276 396 276 383.5 263 c 128,-1,62
 371 250 371 250 364.5 235.5 c 128,-1,63
 358 221 358 221 356 209 c 1,64,-1
 555 209 l 1,65,66
 552 243 552 243 526 268 c 128,-1,67
 500 293 500 293 458 293 c 0,59,60
EndSplineSet
EndChar
StartChar: florin
Encoding: 402 402 202
Width: 357
Flags: W
Fore
323 416 m 1,0,1
 314 420 314 420 303 424.5 c 128,-1,2
 292 429 292 429 280 430 c 128,-1,3
 268 431 268 431 256.5 428 c 128,-1,4
 245 425 245 425 236 416 c 0,5,6
 226 406 226 406 220.5 391 c 128,-1,7
 215 376 215 376 212 358 c 128,-1,8
 209 340 209 340 207 321 c 128,-1,9
 205 302 205 302 203 285 c 1,10,-1
 279 285 l 1,11,-1
 272 242 l 1,12,-1
 198 242 l 1,13,14
 190 178 l 128,-1,15
 186 146 186 146 181 114 c 0,16,17
 177 86 177 86 173.5 61.5 c 128,-1,18
 170 37 170 37 162.5 15 c 128,-1,19
 155 -7 155 -7 141.5 -25 c 128,-1,20
 128 -43 128 -43 106 -58 c 0,21,22
 84 -72 84 -72 52 -74 c 128,-1,23
 20 -76 20 -76 -3 -74 c 1,24,25
 -1 -69 -1 -69 3 -59.5 c 128,-1,26
 7 -50 7 -50 10 -42 c 0,27,28
 14 -32 14 -32 17 -21 c 1,29,30
 50 -26 50 -26 68.5 -15.5 c 128,-1,31
 87 -5 87 -5 97 14.5 c 128,-1,32
 107 34 107 34 111 59 c 128,-1,33
 115 84 115 84 119 108 c 0,34,35
 124 142 124 142 128 175 c 128,-1,36
 132 208 132 208 137 242 c 1,37,-1
 62 242 l 1,38,39
 64 253 64 253 66 263 c 0,40,41
 68 271 68 271 69.5 277.5 c 128,-1,42
 71 284 71 284 71 285 c 1,43,-1
 142 285 l 1,44,45
 146 323 146 323 151.5 364.5 c 128,-1,46
 157 406 157 406 179 439 c 0,47,48
 194 462 194 462 215.5 472.5 c 128,-1,49
 237 483 237 483 261 484 c 128,-1,50
 285 485 285 485 309 478 c 128,-1,51
 333 471 333 471 354 459 c 1,52,-1
 323 416 l 1,0,1
EndSplineSet
EndChar
StartChar: circumflex
Encoding: 710 710 203
Width: 358
Flags: W
Fore
177 527 m 1,0,1
 160 510 160 510 146 494.5 c 128,-1,2
 132 479 132 479 117 463 c 1,3,-1
 47 463 l 1,4,5
 58 475 58 475 73.5 492 c 128,-1,6
 89 509 89 509 103.5 524.5 c 128,-1,7
 118 540 118 540 128 551 c 128,-1,8
 137 561 137 561 138 562 c 1,9,-1
 216 562 l 1,10,11
 239 538 239 538 261 513 c 128,-1,12
 283 488 283 488 306 463 c 1,13,-1
 237 463 l 1,14,-1
 177 527 l 1,0,1
EndSplineSet
EndChar
StartChar: caron
Encoding: 711 711 204
Width: 350
Flags: W
Fore
237 603 m 1,0,-1
 306 603 l 1,1,2
 283 578 283 578 261 553 c 128,-1,3
 239 528 239 528 216 504 c 1,4,-1
 138 504 l 1,5,6
 128 515 l 130,-1,7
 118 526 118 526 103.5 541.5 c 128,-1,8
 89 557 89 557 73.5 574 c 128,-1,9
 58 591 58 591 47 603 c 1,10,-1
 117 603 l 1,11,12
 132 587 132 587 146 572 c 128,-1,13
 160 557 160 557 177 540 c 1,14,-1
 237 603 l 1,0,-1
EndSplineSet
EndChar
StartChar: breve
Encoding: 728 728 205
Width: 300
Flags: W
Fore
152 412 m 0,0,1
 97 412 97 412 64.5 442.5 c 128,-1,2
 32 473 32 473 32 528 c 1,3,-1
 90 528 l 1,4,5
 90 494 90 494 108.5 477.5 c 128,-1,6
 127 461 127 461 149.5 461 c 128,-1,7
 172 461 172 461 191 478 c 128,-1,8
 210 495 210 495 210 528 c 1,9,-1
 269 528 l 1,10,11
 269 476 269 476 237.5 444 c 128,-1,12
 206 412 206 412 152 412 c 0,0,1
EndSplineSet
EndChar
StartChar: dotaccent
Encoding: 729 729 206
Width: 158
Flags: W
Fore
130 461 m 256,0,1
 130 440 130 440 115.5 426 c 128,-1,2
 101 412 101 412 80 412 c 256,3,4
 59 412 59 412 44.5 426 c 128,-1,5
 30 440 30 440 30 461 c 256,6,7
 30 482 30 482 44.5 497 c 128,-1,8
 59 512 59 512 80 512 c 256,9,10
 101 512 101 512 115.5 497 c 128,-1,11
 130 482 130 482 130 461 c 256,0,1
EndSplineSet
EndChar
StartChar: ring
Encoding: 730 730 207
Width: 278
Flags: W
Fore
74 450 m 256,0,1
 74 479 74 479 93 498.5 c 128,-1,2
 112 518 112 518 141 518 c 256,3,4
 170 518 170 518 189.5 498.5 c 128,-1,5
 209 479 209 479 209 450 c 256,6,7
 209 421 209 421 189.5 402 c 128,-1,8
 170 383 170 383 141 383 c 256,9,10
 112 383 112 383 93 402 c 128,-1,11
 74 421 74 421 74 450 c 256,0,1
112 450 m 0,12,13
 112 438 112 438 120.5 429.5 c 128,-1,14
 129 421 129 421 141 421 c 0,15,16
 154 421 154 421 162.5 429.5 c 128,-1,17
 171 438 171 438 171 450 c 0,18,19
 171 463 171 463 162.5 471.5 c 128,-1,20
 154 480 154 480 141 480 c 0,21,22
 129 480 129 480 120.5 471.5 c 128,-1,23
 112 463 112 463 112 450 c 0,12,13
EndSplineSet
EndChar
StartChar: tilde
Encoding: 732 732 209
Width: 301
Flags: W
Fore
22 389 m 1,0,1
 22 416 22 416 30 437.5 c 128,-1,2
 38 459 38 459 53.5 470.5 c 128,-1,3
 69 482 69 482 91 482.5 c 128,-1,4
 113 483 113 483 140 468 c 0,5,6
 167 455 167 455 183.5 451.5 c 128,-1,7
 200 448 200 448 209 451 c 128,-1,8
 218 454 218 454 221 462 c 128,-1,9
 224 470 224 470 224 481 c 1,10,-1
 278 481 l 1,11,12
 279 462 279 462 273 442 c 128,-1,13
 267 422 267 422 253.5 408 c 128,-1,14
 240 394 240 394 218 390 c 128,-1,15
 196 386 196 386 166 399 c 0,16,17
 133 417 133 417 115 420 c 128,-1,18
 97 423 97 423 89 418 c 128,-1,19
 81 413 81 413 79.5 404 c 128,-1,20
 78 395 78 395 77 389 c 1,21,-1
 22 389 l 1,0,1
EndSplineSet
EndChar
StartChar: uni0E01
Encoding: 3585 3585 212
Width: 464
Flags: W
Fore
347 297 m 1,0,1
 346 298 346 298 338 307 c 128,-1,2
 330 316 330 316 315 326 c 128,-1,3
 300 336 300 336 278.5 344.5 c 128,-1,4
 257 353 257 353 230 353 c 0,5,6
 197 353 197 353 175 345.5 c 128,-1,7
 153 338 153 338 139.5 327 c 128,-1,8
 126 316 126 316 118.5 304.5 c 128,-1,9
 111 293 111 293 107 285 c 1,10,-1
 135 264 l 1,11,12
 144 275 144 275 154.5 282.5 c 128,-1,13
 165 290 165 290 182 296 c 1,14,15
 187 289 l 130,-1,16
 192 282 192 282 198 274 c 128,-1,17
 204 266 204 266 208.5 259.5 c 128,-1,18
 212 254 212 254 213 253 c 1,19,20
 187 243 187 243 174.5 223.5 c 128,-1,21
 162 204 162 204 162 178 c 2,22,-1
 162 0 l 1,23,-1
 93 0 l 1,24,-1
 93 181 l 2,25,26
 93 199 93 199 95 208 c 128,-1,27
 97 217 97 217 101 222 c 1,28,-1
 32 267 l 1,29,30
 34 273 34 273 43.5 295.5 c 128,-1,31
 53 318 53 318 75 342 c 128,-1,32
 97 366 97 366 134 385.5 c 128,-1,33
 171 405 171 405 228 406 c 0,34,35
 259 406 259 406 283.5 400 c 128,-1,36
 308 394 308 394 326.5 384.5 c 128,-1,37
 345 375 345 375 358 364 c 128,-1,38
 371 353 371 353 379 343 c 1,39,40
 382 348 382 348 392.5 346 c 128,-1,41
 403 344 403 344 416 330 c 0,42,43
 424 321 424 321 426.5 314.5 c 128,-1,44
 429 308 429 308 427.5 302.5 c 128,-1,45
 426 297 426 297 422 292 c 128,-1,46
 418 287 418 287 413 280 c 256,47,48
 408 273 408 273 406 266 c 128,-1,49
 404 259 404 259 404 245 c 2,50,-1
 404 0 l 1,51,-1
 335 0 l 1,52,-1
 335 255 l 2,53,54
 335 266 335 266 337 277.5 c 128,-1,55
 339 289 339 289 347 297 c 1,0,1
EndSplineSet
EndChar
StartChar: uni0E02
Encoding: 3586 3586 213
Width: 437
Flags: W
Fore
169 2 m 1,0,1
 165 0 165 0 161.5 -1.5 c 128,-1,2
 158 -3 158 -3 155 -5 c 0,3,4
 148 -8 148 -8 141 -4.5 c 128,-1,5
 134 -1 134 -1 128 5 c 128,-1,6
 122 11 122 11 117.5 18 c 128,-1,7
 113 25 113 25 111 30 c 0,8,9
 108 37 108 37 111.5 43 c 128,-1,10
 115 49 115 49 120.5 55 c 128,-1,11
 126 61 126 61 131 68 c 128,-1,12
 136 75 136 75 136 84 c 2,13,-1
 136 161 l 2,14,15
 136 173 136 173 141 183 c 128,-1,16
 146 193 146 193 154 201.5 c 128,-1,17
 162 210 162 210 171 217 c 128,-1,18
 180 224 180 224 188 231 c 0,19,20
 205 245 205 245 212.5 267.5 c 128,-1,21
 220 290 220 290 216 310.5 c 128,-1,22
 212 331 212 331 197 344 c 128,-1,23
 182 357 182 357 155 353 c 1,24,25
 162 343 162 343 166 332 c 128,-1,26
 170 321 170 321 170 308 c 0,27,28
 170 276 170 276 148 254 c 128,-1,29
 126 232 126 232 94 232 c 256,30,31
 62 232 62 232 40 254 c 128,-1,32
 18 276 18 276 18 308 c 0,33,34
 18 325 18 325 25.5 341.5 c 128,-1,35
 33 358 33 358 47.5 372 c 128,-1,36
 62 386 62 386 81.5 395.5 c 128,-1,37
 101 405 101 405 125 407 c 0,38,39
 196 415 196 415 236.5 386.5 c 128,-1,40
 277 358 277 358 277 300 c 0,41,42
 277 265 277 265 266 244 c 128,-1,43
 255 223 255 223 241.5 209.5 c 128,-1,44
 228 196 228 196 217 185.5 c 128,-1,45
 206 175 206 175 206 160 c 2,46,-1
 206 76 l 2,47,48
 206 74 206 74 204.5 69 c 128,-1,49
 203 64 203 64 200 62 c 1,50,-1
 293 62 l 2,51,52
 310 62 310 62 310 81 c 2,53,-1
 310 400 l 1,54,-1
 380 400 l 1,55,-1
 380 55 l 2,56,57
 380 29 380 29 361.5 15.5 c 128,-1,58
 343 2 343 2 318 2 c 2,59,-1
 169 2 l 1,0,1
125 308 m 256,60,61
 125 321 125 321 116 330 c 128,-1,62
 107 339 107 339 94 339 c 256,63,64
 81 339 81 339 72 330 c 128,-1,65
 63 321 63 321 63 308 c 256,66,67
 63 295 63 295 72 286 c 128,-1,68
 81 277 81 277 94 277 c 256,69,70
 107 277 107 277 116 286 c 128,-1,71
 125 295 125 295 125 308 c 256,60,61
EndSplineSet
EndChar
StartChar: uni0E03
Encoding: 3587 3587 214
Width: 450
Flags: W
Fore
116 262 m 256,0,1
 116 273 116 273 108 281 c 128,-1,2
 100 289 100 289 89 289 c 256,3,4
 78 289 78 289 70 281 c 128,-1,5
 62 273 62 273 62 262 c 256,6,7
 62 251 62 251 70 243 c 128,-1,8
 78 235 78 235 89 235 c 256,9,10
 100 235 100 235 108 243 c 128,-1,11
 116 251 116 251 116 262 c 256,0,1
162 163 m 2,12,13
 162 184 162 184 166 197.5 c 128,-1,14
 170 211 170 211 176.5 221 c 128,-1,15
 183 231 183 231 191.5 238.5 c 128,-1,16
 200 246 200 246 209 254 c 0,17,18
 213 258 213 258 220.5 264.5 c 128,-1,19
 228 271 228 271 235 278.5 c 128,-1,20
 242 286 242 286 247.5 292.5 c 128,-1,21
 253 299 253 299 253 304 c 0,22,23
 254 312 254 312 252 322 c 128,-1,24
 250 332 250 332 247 340 c 128,-1,25
 244 348 244 348 240 353.5 c 128,-1,26
 236 359 236 359 232 359 c 0,27,28
 225 358 225 358 218.5 354 c 128,-1,29
 212 350 212 350 206 345 c 1,30,31
 208 340 208 340 211 334.5 c 128,-1,32
 214 329 214 329 214.5 324 c 128,-1,33
 215 319 215 319 212 314.5 c 128,-1,34
 209 310 209 310 200 306 c 0,35,36
 197 304 197 304 192.5 302.5 c 128,-1,37
 188 301 188 301 183 301.5 c 128,-1,38
 178 302 178 302 173 307 c 128,-1,39
 168 312 168 312 164 323 c 0,40,41
 158 337 158 337 141.5 347 c 128,-1,42
 125 357 125 357 111 352 c 0,43,44
 98 347 98 347 90.5 339 c 128,-1,45
 83 331 83 331 80 323 c 1,46,47
 97 327 97 327 111 323 c 128,-1,48
 125 319 125 319 134.5 310 c 128,-1,49
 144 301 144 301 149.5 288 c 128,-1,50
 155 275 155 275 155 262 c 0,51,52
 155 235 155 235 135.5 217.5 c 128,-1,53
 116 200 116 200 89 200 c 0,54,55
 69 200 69 200 53.5 209.5 c 128,-1,56
 38 219 38 219 29 235 c 0,57,58
 18 255 18 255 16 279 c 128,-1,59
 14 303 14 303 20 325.5 c 128,-1,60
 26 348 26 348 40 367 c 128,-1,61
 54 386 54 386 77 397 c 0,62,63
 102 409 102 409 131.5 405.5 c 128,-1,64
 161 402 161 402 182 379 c 1,65,66
 206 399 206 399 216.5 403 c 128,-1,67
 227 407 227 407 237 407 c 0,68,69
 254 408 254 408 269 397 c 0,70,71
 282 388 282 388 293.5 366 c 128,-1,72
 305 344 305 344 308 300 c 1,73,74
 306 289 306 289 303 282.5 c 128,-1,75
 300 276 300 276 294 270 c 128,-1,76
 288 264 288 264 278.5 256.5 c 128,-1,77
 269 249 269 249 256 236 c 0,78,79
 246 226 246 226 238 217 c 128,-1,80
 230 208 230 208 230 193 c 2,81,-1
 230 78 l 2,82,83
 230 73 230 73 228 68 c 128,-1,84
 226 63 226 63 223 61 c 1,85,-1
 306 61 l 2,86,87
 316 61 316 61 319.5 66.5 c 128,-1,88
 323 72 323 72 323 80 c 2,89,-1
 323 400 l 1,90,-1
 393 400 l 1,91,-1
 393 54 l 2,92,93
 393 28 393 28 374.5 15 c 128,-1,94
 356 2 356 2 331 2 c 2,95,-1
 195 2 l 1,96,97
 191 0 191 0 188 -1.5 c 128,-1,98
 185 -3 185 -3 182 -5 c 0,99,100
 175 -8 175 -8 168 -4.5 c 128,-1,101
 161 -1 161 -1 155 5 c 128,-1,102
 149 11 149 11 144.5 18 c 128,-1,103
 140 25 140 25 138 30 c 0,104,105
 135 37 135 37 138 43 c 128,-1,106
 141 49 141 49 146.5 55 c 128,-1,107
 152 61 152 61 157 68 c 128,-1,108
 162 75 162 75 162 84 c 2,109,-1
 162 163 l 2,12,13
EndSplineSet
EndChar
StartChar: uni0E04
Encoding: 3588 3588 215
Width: 461
Flags: W
Fore
266 224 m 256,0,1
 266 237 266 237 257 246 c 128,-1,2
 248 255 248 255 234 255 c 0,3,4
 221 255 221 255 212 246 c 128,-1,5
 203 237 203 237 203 224 c 256,6,7
 203 211 203 211 212 202 c 128,-1,8
 221 193 221 193 234 193 c 0,9,10
 248 193 248 193 257 202 c 128,-1,11
 266 211 266 211 266 224 c 256,0,1
353 297 m 1,12,13
 352 299 352 299 345.5 308 c 128,-1,14
 339 317 339 317 325.5 327 c 128,-1,15
 312 337 312 337 290.5 345 c 128,-1,16
 269 353 269 353 237 353 c 0,17,18
 202 353 202 353 179.5 343.5 c 128,-1,19
 157 334 157 334 143.5 318.5 c 128,-1,20
 130 303 130 303 124.5 284.5 c 128,-1,21
 119 266 119 266 119 248 c 0,22,23
 119 228 119 228 120.5 214 c 128,-1,24
 122 200 122 200 124 189 c 128,-1,25
 126 178 126 178 128 168 c 128,-1,26
 130 158 130 158 132 147 c 1,27,28
 141 179 141 179 151.5 210.5 c 128,-1,29
 162 242 162 242 168 254 c 0,30,31
 177 273 177 273 194.5 285 c 128,-1,32
 212 297 212 297 234 297 c 0,33,34
 265 297 265 297 286 275.5 c 128,-1,35
 307 254 307 254 307 224 c 256,36,37
 307 194 307 194 286 172.5 c 128,-1,38
 265 151 265 151 234 151 c 0,39,40
 211 151 211 151 193 164 c 1,41,42
 181 127 181 127 169 94 c 0,43,44
 158 66 158 66 146.5 40 c 128,-1,45
 135 14 135 14 124 4 c 0,46,47
 105 -14 105 -14 81 10 c 0,48,49
 72 19 72 19 69 25.5 c 128,-1,50
 66 32 66 32 71 41 c 0,51,52
 75 48 75 48 79 54.5 c 128,-1,53
 83 61 83 61 85.5 68 c 128,-1,54
 88 75 88 75 87.5 84 c 128,-1,55
 87 93 87 93 84 106 c 0,56,57
 76 133 76 133 67.5 169.5 c 128,-1,58
 59 206 59 206 59 245 c 0,59,60
 59 318 59 318 105 362.5 c 128,-1,61
 151 407 151 407 235 407 c 0,62,63
 296 407 296 407 332 388.5 c 128,-1,64
 368 370 368 370 389 345 c 1,65,66
 394 347 394 347 402.5 344 c 128,-1,67
 411 341 411 341 422 330 c 0,68,69
 430 321 430 321 432.5 314.5 c 128,-1,70
 435 308 435 308 433.5 302.5 c 128,-1,71
 432 297 432 297 428 292 c 128,-1,72
 424 287 424 287 419 280 c 256,73,74
 414 273 414 273 412 266 c 128,-1,75
 410 259 410 259 410 245 c 2,76,-1
 410 0 l 1,77,-1
 341 0 l 1,78,-1
 341 255 l 2,79,80
 341 266 341 266 343 277.5 c 128,-1,81
 345 289 345 289 353 297 c 1,12,13
EndSplineSet
EndChar
StartChar: uni0E05
Encoding: 3589 3589 216
Width: 463
Flags: W
Fore
356 300 m 1,0,1
 348 317 348 317 335 328.5 c 128,-1,2
 322 340 322 340 298 346 c 1,3,4
 296 345 296 345 289 338 c 128,-1,5
 282 331 282 331 274 322.5 c 128,-1,6
 266 314 266 314 259.5 307.5 c 128,-1,7
 253 301 253 301 251 300 c 0,8,9
 240 295 240 295 232 299 c 128,-1,10
 224 303 224 303 217 312 c 0,11,12
 210 320 210 320 195.5 331 c 128,-1,13
 181 342 181 342 171 347 c 1,14,15
 138 336 138 336 127 315.5 c 128,-1,16
 116 295 116 295 116 260 c 0,17,18
 116 223 116 223 120.5 195 c 128,-1,19
 125 167 125 167 132 141 c 1,20,21
 141 169 141 169 151.5 196 c 128,-1,22
 162 223 162 223 168 236 c 0,23,24
 177 255 177 255 194.5 267 c 128,-1,25
 212 279 212 279 235 279 c 0,26,27
 265 279 265 279 286 257.5 c 128,-1,28
 307 236 307 236 307 206 c 256,29,30
 307 176 307 176 286 154.5 c 128,-1,31
 265 133 265 133 235 133 c 0,32,33
 223 133 223 133 210 137.5 c 128,-1,34
 197 142 197 142 191 148 c 1,35,36
 179 112 179 112 167 82 c 0,37,38
 156 56 156 56 144.5 32.5 c 128,-1,39
 133 9 133 9 123 2 c 0,40,41
 116 -3 116 -3 107 -4.5 c 128,-1,42
 98 -6 98 -6 87 4 c 0,43,44
 75 14 75 14 71 21 c 128,-1,45
 67 28 67 28 67.5 33 c 128,-1,46
 68 38 68 38 71 41.5 c 128,-1,47
 74 45 74 45 77 50 c 0,48,49
 80 54 80 54 83 61 c 0,50,51
 85 66 85 66 85.5 75 c 128,-1,52
 86 84 86 84 83 96 c 0,53,54
 75 124 75 124 65.5 168 c 128,-1,55
 56 212 56 212 56 260 c 0,56,57
 56 372 56 372 160 406 c 0,58,59
 170 410 170 410 179 405 c 1,60,61
 194 400 194 400 211.5 388.5 c 128,-1,62
 229 377 229 377 242 365 c 1,63,64
 263 386 263 386 277 398 c 128,-1,65
 291 410 291 410 301 408 c 0,66,67
 339 401 339 401 363.5 381.5 c 128,-1,68
 388 362 388 362 398 347 c 1,69,70
 411 345 411 345 425 330 c 0,71,72
 433 321 433 321 435.5 314.5 c 128,-1,73
 438 308 438 308 436.5 302.5 c 128,-1,74
 435 297 435 297 431 292 c 128,-1,75
 427 287 427 287 422 280 c 256,76,77
 417 273 417 273 415 266 c 128,-1,78
 413 259 413 259 413 245 c 2,79,-1
 413 0 l 1,80,-1
 344 0 l 1,81,-1
 344 258 l 2,82,83
 344 269 344 269 346 280.5 c 128,-1,84
 348 292 348 292 356 300 c 1,0,1
265 206 m 256,85,86
 265 219 265 219 256 228 c 128,-1,87
 247 237 247 237 234 237 c 256,88,89
 221 237 221 237 212 228 c 128,-1,90
 203 219 203 219 203 206 c 256,91,92
 203 193 203 193 212 184 c 128,-1,93
 221 175 221 175 234 175 c 256,94,95
 247 175 247 175 256 184 c 128,-1,96
 265 193 265 193 265 206 c 256,85,86
EndSplineSet
EndChar
StartChar: uni0E06
Encoding: 3590 3590 217
Width: 505
Flags: W
Fore
455 0 m 1,0,-1
 388 0 l 1,1,-1
 388 26 l 1,2,3
 375 53 375 53 358.5 72 c 128,-1,4
 342 91 342 91 324 104 c 128,-1,5
 306 117 306 117 288 124 c 128,-1,6
 270 131 270 131 255 134 c 1,7,-1
 255 70 l 2,8,9
 255 44 255 44 246 28.5 c 128,-1,10
 237 13 237 13 223.5 4.5 c 128,-1,11
 210 -4 210 -4 194.5 -6 c 128,-1,12
 179 -8 179 -8 166 -6 c 0,13,14
 152 -3 152 -3 139 5 c 128,-1,15
 126 13 126 13 116 26 c 128,-1,16
 106 39 106 39 101.5 57 c 128,-1,17
 97 75 97 75 99 97 c 0,18,19
 104 140 104 140 131 163 c 128,-1,20
 158 186 158 186 190 194 c 1,21,-1
 190 218 l 2,22,23
 190 236 190 236 193.5 247.5 c 128,-1,24
 197 259 197 259 203 267 c 128,-1,25
 209 275 209 275 217.5 281.5 c 128,-1,26
 226 288 226 288 235 296 c 0,27,28
 243 304 243 304 248.5 307.5 c 128,-1,29
 254 311 254 311 255 320 c 0,30,31
 256 328 256 328 252.5 336 c 128,-1,32
 249 344 249 344 244 349.5 c 128,-1,33
 239 355 239 355 233.5 357.5 c 128,-1,34
 228 360 228 360 224 358 c 0,35,36
 218 354 218 354 216 353.5 c 128,-1,37
 214 353 214 353 208 348 c 1,38,39
 217 334 217 334 212 325 c 128,-1,40
 207 316 207 316 196 311 c 0,41,42
 190 309 190 309 182 310 c 128,-1,43
 174 311 174 311 169 322 c 0,44,45
 163 336 163 336 146.5 346 c 128,-1,46
 130 356 130 356 115 351 c 0,47,48
 102 346 102 346 97 338.5 c 128,-1,49
 92 331 92 331 88 323 c 1,50,51
 105 327 105 327 119 323 c 128,-1,52
 133 319 133 319 142.5 309.5 c 128,-1,53
 152 300 152 300 157.5 287 c 128,-1,54
 163 274 163 274 163 261 c 0,55,56
 163 235 163 235 148 219 c 128,-1,57
 133 203 133 203 112.5 198.5 c 128,-1,58
 92 194 92 194 71.5 202 c 128,-1,59
 51 210 51 210 39 232 c 0,60,61
 28 251 28 251 26 275 c 128,-1,62
 24 299 24 299 29 323 c 128,-1,63
 34 347 34 347 47.5 366.5 c 128,-1,64
 61 386 61 386 82 396 c 0,65,66
 107 408 107 408 136.5 404.5 c 128,-1,67
 166 401 166 401 187 378 c 1,68,69
 203 390 203 390 217.5 397 c 128,-1,70
 232 404 232 404 242 407 c 0,71,72
 255 411 255 411 267 403 c 128,-1,73
 279 395 279 395 288.5 383.5 c 128,-1,74
 298 372 298 372 304 361.5 c 128,-1,75
 310 351 310 351 310 350 c 2,76,77
 317 336 317 336 316 325.5 c 128,-1,78
 315 315 315 315 309 306 c 128,-1,79
 303 297 303 297 294.5 289 c 128,-1,80
 286 281 286 281 277 273 c 0,81,82
 270 267 270 267 262.5 260 c 128,-1,83
 255 253 255 253 255 235 c 2,84,-1
 256 192 l 1,85,86
 271 190 271 190 290 183.5 c 128,-1,87
 309 177 309 177 328 166.5 c 128,-1,88
 347 156 347 156 363 143 c 128,-1,89
 379 130 379 130 388 114 c 1,90,-1
 388 400 l 1,91,-1
 455 400 l 1,92,-1
 455 0 l 1,0,-1
124 261 m 256,93,94
 124 272 124 272 116 280 c 128,-1,95
 108 288 108 288 97 288 c 256,96,97
 86 288 86 288 78 280 c 128,-1,98
 70 272 70 272 70 261 c 256,99,100
 70 250 70 250 78 242.5 c 128,-1,101
 86 235 86 235 97 235 c 256,102,103
 108 235 108 235 116 242.5 c 128,-1,104
 124 250 124 250 124 261 c 256,93,94
189 134 m 1,105,106
 174 132 174 132 160.5 120 c 128,-1,107
 147 108 147 108 147 84 c 0,108,109
 147 64 147 64 153.5 56 c 128,-1,110
 160 48 160 48 168 47 c 128,-1,111
 176 46 176 46 182.5 50.5 c 128,-1,112
 189 55 189 55 189 61 c 2,113,-1
 189 134 l 1,105,106
EndSplineSet
EndChar
StartChar: uni0E07
Encoding: 3591 3591 218
Width: 341
Flags: W
Fore
290 57 m 2,0,1
 290 33 290 33 270.5 18 c 128,-1,2
 251 3 251 3 231 -6 c 0,3,4
 217 -13 217 -13 205.5 -1 c 128,-1,5
 194 11 194 11 188 23 c 0,6,7
 185 28 185 28 186.5 32 c 128,-1,8
 188 36 188 36 184 41 c 0,9,10
 175 50 175 50 152 71.5 c 128,-1,11
 129 93 129 93 102 118 c 128,-1,12
 75 143 75 143 48.5 166.5 c 128,-1,13
 22 190 22 190 5 203 c 1,14,-1
 43 256 l 1,15,16
 58 244 58 244 82 221.5 c 128,-1,17
 106 199 106 199 132.5 173 c 128,-1,18
 159 147 159 147 184 122 c 128,-1,19
 209 97 209 97 226 82 c 1,20,-1
 226 257 l 1,21,22
 221 255 221 255 216 254 c 128,-1,23
 211 253 211 253 208 253 c 0,24,25
 176 253 176 253 154 275 c 128,-1,26
 132 297 132 297 132 329 c 256,27,28
 132 361 132 361 154 382.5 c 128,-1,29
 176 404 176 404 208 405 c 0,30,31
 239 405 239 405 255.5 394 c 128,-1,32
 272 383 272 383 280 369 c 0,33,34
 289 353 289 353 290 332 c 2,35,-1
 290 57 l 2,0,1
239 329 m 0,36,37
 239 343 239 343 230 351.5 c 128,-1,38
 221 360 221 360 208 360 c 256,39,40
 195 360 195 360 186 351.5 c 128,-1,41
 177 343 177 343 177 329 c 0,42,43
 177 316 177 316 186 307 c 128,-1,44
 195 298 195 298 208 298 c 256,45,46
 221 298 221 298 230 307 c 128,-1,47
 239 316 239 316 239 329 c 0,36,37
EndSplineSet
EndChar
StartChar: uni0E08
Encoding: 3592 3592 219
Width: 439
Flags: W
Fore
364 345 m 1,0,1
 367 350 367 350 377 347 c 128,-1,2
 387 344 387 344 400 330 c 0,3,4
 408 321 408 321 410.5 314.5 c 128,-1,5
 413 308 413 308 411.5 302.5 c 128,-1,6
 410 297 410 297 405.5 292 c 128,-1,7
 401 287 401 287 396 280 c 0,8,9
 388 270 388 270 385 258 c 2,10,-1
 351 41 l 2,11,12
 350 35 350 35 347.5 30 c 128,-1,13
 345 25 345 25 339.5 20 c 128,-1,14
 334 15 334 15 323.5 8.5 c 128,-1,15
 313 2 313 2 296 -8 c 0,16,17
 285 -14 285 -14 272.5 -4 c 128,-1,18
 260 6 260 6 249 24 c 0,19,20
 244 32 244 32 249.5 38 c 128,-1,21
 255 44 255 44 257 49 c 1,22,-1
 233 149 l 1,23,24
 218 137 218 137 196 137 c 0,25,26
 169 137 169 137 147.5 158 c 128,-1,27
 126 179 126 179 126 214 c 0,28,29
 126 241 126 241 145.5 264 c 128,-1,30
 165 287 165 287 200 287 c 0,31,32
 226 287 226 287 248 271.5 c 128,-1,33
 270 256 270 256 277 218 c 2,34,-1
 299 98 l 1,35,-1
 321 263 l 2,36,37
 325 289 325 289 334 296 c 1,38,39
 331 297 331 297 323.5 306 c 128,-1,40
 316 315 316 315 301.5 325.5 c 128,-1,41
 287 336 287 336 265 344.5 c 128,-1,42
 243 353 243 353 213 353 c 0,43,44
 144 353 144 353 113 315.5 c 128,-1,45
 82 278 82 278 82 209 c 1,46,-1
 22 209 l 1,47,48
 22 261 22 261 36.5 298.5 c 128,-1,49
 51 336 51 336 76.5 360 c 128,-1,50
 102 384 102 384 137 395.5 c 128,-1,51
 172 407 172 407 212 407 c 0,52,53
 270 407 270 407 306.5 388.5 c 128,-1,54
 343 370 343 370 364 345 c 1,0,1
233 212 m 0,55,56
 233 225 233 225 223.5 234.5 c 128,-1,57
 214 244 214 244 200 244 c 256,58,59
 186 244 186 244 177 234.5 c 128,-1,60
 168 225 168 225 168 212 c 0,61,62
 168 198 168 198 177 188.5 c 128,-1,63
 186 179 186 179 200 179 c 256,64,65
 214 179 214 179 223.5 188.5 c 128,-1,66
 233 198 233 198 233 212 c 0,55,56
EndSplineSet
EndChar
StartChar: uni0E09
Encoding: 3593 3593 220
Width: 470
Flags: W
Fore
382 346 m 1,0,1
 387 348 387 348 396 345 c 128,-1,2
 405 342 405 342 416 330 c 0,3,4
 424 321 424 321 426.5 314.5 c 128,-1,5
 429 308 429 308 427.5 302.5 c 128,-1,6
 426 297 426 297 422 292 c 128,-1,7
 418 287 418 287 413 280 c 256,8,9
 408 273 408 273 406 266 c 128,-1,10
 404 259 404 259 404 245 c 2,11,-1
 404 149 l 1,12,13
 422 141 422 141 432.5 120 c 128,-1,14
 443 99 443 99 443 79 c 0,15,16
 443 44 443 44 419 20 c 128,-1,17
 395 -4 395 -4 360 -4 c 0,18,19
 343 -4 343 -4 327.5 2.5 c 128,-1,20
 312 9 312 9 300.5 20 c 128,-1,21
 289 31 289 31 282.5 46 c 128,-1,22
 276 61 276 61 276 79 c 0,23,24
 276 81 276 81 277 88.5 c 128,-1,25
 278 96 278 96 282 102 c 1,26,27
 270 98 270 98 257 88.5 c 128,-1,28
 244 79 244 79 232 67 c 128,-1,29
 220 55 220 55 209 43 c 128,-1,30
 198 31 198 31 191 22 c 0,31,32
 187 17 187 17 179.5 7.5 c 128,-1,33
 172 -2 172 -2 164 -6 c 0,34,35
 151 -11 151 -11 138.5 0 c 128,-1,36
 126 11 126 11 121 21 c 0,37,38
 118 28 118 28 121 33.5 c 128,-1,39
 124 39 124 39 128.5 44.5 c 128,-1,40
 133 50 133 50 137.5 56 c 128,-1,41
 142 62 142 62 142 71 c 2,42,-1
 142 119 l 1,43,44
 112 119 112 119 90.5 140.5 c 128,-1,45
 69 162 69 162 69 192 c 256,46,47
 69 222 69 222 90.5 243.5 c 128,-1,48
 112 265 112 265 142 265 c 256,49,50
 172 265 172 265 193.5 243.5 c 128,-1,51
 215 222 215 222 215 192 c 0,52,53
 215 183 215 183 212 173.5 c 128,-1,54
 209 164 209 164 205 156 c 1,55,-1
 205 112 l 1,56,57
 233 138 233 138 267.5 153.5 c 128,-1,58
 302 169 302 169 338 167 c 1,59,-1
 338 260 l 2,60,61
 338 269 338 269 340.5 277.5 c 128,-1,62
 343 286 343 286 349 293 c 1,63,64
 346 297 346 297 338 306.5 c 128,-1,65
 330 316 330 316 315 326 c 128,-1,66
 300 336 300 336 276.5 343.5 c 128,-1,67
 253 351 253 351 220 351 c 0,68,69
 172 351 172 351 132.5 325 c 128,-1,70
 93 299 93 299 76 247 c 1,71,-1
 21 269 l 1,72,73
 47 333 47 333 95.5 371.5 c 128,-1,74
 144 410 144 410 221 410 c 0,75,76
 255 410 255 410 280.5 404 c 128,-1,77
 306 398 306 398 325.5 389 c 128,-1,78
 345 380 345 380 358.5 368.5 c 128,-1,79
 372 357 372 357 382 346 c 1,0,1
110 192 m 256,80,81
 110 178 110 178 119 169 c 128,-1,82
 128 160 128 160 142 160 c 256,83,84
 156 160 156 160 165 169 c 128,-1,85
 174 178 174 178 174 192 c 256,86,87
 174 206 174 206 165 215 c 128,-1,88
 156 224 156 224 142 224 c 256,89,90
 128 224 128 224 119 215 c 128,-1,91
 110 206 110 206 110 192 c 256,80,81
397 79 m 256,92,93
 397 94 397 94 387 105 c 128,-1,94
 377 116 377 116 361 116 c 256,95,96
 345 116 345 116 335 105 c 128,-1,97
 325 94 325 94 325 79 c 256,98,99
 325 64 325 64 335 53 c 128,-1,100
 345 42 345 42 361 42 c 256,101,102
 377 42 377 42 387 53 c 128,-1,103
 397 64 397 64 397 79 c 256,92,93
EndSplineSet
EndChar
StartChar: uni0E0A
Encoding: 3594 3594 221
Width: 437
Flags: W
Fore
169 2 m 1,0,1
 165 0 165 0 162 -1.5 c 128,-1,2
 159 -3 159 -3 156 -5 c 0,3,4
 149 -8 149 -8 142 -4.5 c 128,-1,5
 135 -1 135 -1 129 5 c 128,-1,6
 123 11 123 11 118 18 c 128,-1,7
 113 25 113 25 111 30 c 0,8,9
 108 37 108 37 111.5 43 c 128,-1,10
 115 49 115 49 120.5 55 c 128,-1,11
 126 61 126 61 131 68 c 128,-1,12
 136 75 136 75 136 84 c 2,13,-1
 136 161 l 2,14,15
 136 173 136 173 141 183 c 128,-1,16
 146 193 146 193 154 201.5 c 128,-1,17
 162 210 162 210 171 217 c 128,-1,18
 180 224 180 224 188 231 c 0,19,20
 205 245 205 245 212.5 267.5 c 128,-1,21
 220 290 220 290 216 310.5 c 128,-1,22
 212 331 212 331 197 344 c 128,-1,23
 182 357 182 357 155 353 c 1,24,25
 162 343 162 343 166 332 c 128,-1,26
 170 321 170 321 170 308 c 0,27,28
 170 276 170 276 148 254 c 128,-1,29
 126 232 126 232 94 232 c 256,30,31
 62 232 62 232 40 254 c 128,-1,32
 18 276 18 276 18 308 c 0,33,34
 18 325 18 325 25.5 341.5 c 128,-1,35
 33 358 33 358 47.5 372 c 128,-1,36
 62 386 62 386 81.5 395.5 c 128,-1,37
 101 405 101 405 125 407 c 0,38,39
 196 415 196 415 236.5 386.5 c 128,-1,40
 277 358 277 358 277 300 c 0,41,42
 277 265 277 265 266 244 c 128,-1,43
 255 223 255 223 241.5 209.5 c 128,-1,44
 228 196 228 196 217 185.5 c 128,-1,45
 206 175 206 175 206 160 c 2,46,-1
 206 76 l 2,47,48
 206 65 206 65 199 62 c 1,49,-1
 293 62 l 2,50,51
 310 62 310 62 310 81 c 2,52,-1
 310 265 l 2,53,54
 310 277 310 277 305 284.5 c 128,-1,55
 300 292 300 292 295 297 c 1,56,57
 288 302 288 302 280 305 c 1,58,59
 277 319 277 319 285.5 335.5 c 128,-1,60
 294 352 294 352 311 371 c 128,-1,61
 328 390 328 390 352.5 410.5 c 128,-1,62
 377 431 377 431 404 454 c 1,63,-1
 445 408 l 1,64,65
 419 389 419 389 395 369 c 128,-1,66
 371 349 371 349 351 320 c 1,67,68
 359 315 359 315 365 308 c 0,69,70
 370 302 370 302 374.5 292 c 128,-1,71
 379 282 379 282 380 268 c 2,72,-1
 380 55 l 2,73,74
 380 29 380 29 361.5 15.5 c 128,-1,75
 343 2 343 2 318 2 c 2,76,-1
 169 2 l 1,0,1
125 308 m 256,77,78
 125 321 125 321 116 330 c 128,-1,79
 107 339 107 339 94 339 c 256,80,81
 81 339 81 339 72 330 c 128,-1,82
 63 321 63 321 63 308 c 256,83,84
 63 295 63 295 72 286 c 128,-1,85
 81 277 81 277 94 277 c 256,86,87
 107 277 107 277 116 286 c 128,-1,88
 125 295 125 295 125 308 c 256,77,78
EndSplineSet
EndChar
StartChar: uni0E0B
Encoding: 3595 3595 222
Width: 459
Flags: W
Fore
116 262 m 256,0,1
 116 273 116 273 108 281 c 128,-1,2
 100 289 100 289 89 289 c 256,3,4
 78 289 78 289 70 281 c 128,-1,5
 62 273 62 273 62 262 c 256,6,7
 62 251 62 251 70 243 c 128,-1,8
 78 235 78 235 89 235 c 256,9,10
 100 235 100 235 108 243 c 128,-1,11
 116 251 116 251 116 262 c 256,0,1
162 163 m 2,12,13
 162 184 162 184 166 197.5 c 128,-1,14
 170 211 170 211 176.5 221 c 128,-1,15
 183 231 183 231 191.5 238.5 c 128,-1,16
 200 246 200 246 209 254 c 0,17,18
 213 258 213 258 220.5 264.5 c 128,-1,19
 228 271 228 271 235 278.5 c 128,-1,20
 242 286 242 286 247.5 292.5 c 128,-1,21
 253 299 253 299 253 304 c 0,22,23
 254 312 254 312 252 322 c 128,-1,24
 250 332 250 332 247 340 c 128,-1,25
 244 348 244 348 240 353.5 c 128,-1,26
 236 359 236 359 232 359 c 0,27,28
 225 358 225 358 218.5 354 c 128,-1,29
 212 350 212 350 206 345 c 1,30,31
 208 340 208 340 211 334.5 c 128,-1,32
 214 329 214 329 214.5 324 c 128,-1,33
 215 319 215 319 212 314.5 c 128,-1,34
 209 310 209 310 200 306 c 0,35,36
 197 304 197 304 192.5 302.5 c 128,-1,37
 188 301 188 301 183 301.5 c 128,-1,38
 178 302 178 302 173 307 c 128,-1,39
 168 312 168 312 164 323 c 0,40,41
 158 337 158 337 141.5 347 c 128,-1,42
 125 357 125 357 111 352 c 0,43,44
 98 347 98 347 90.5 339 c 128,-1,45
 83 331 83 331 80 323 c 1,46,47
 97 327 97 327 111 323 c 128,-1,48
 125 319 125 319 134.5 310 c 128,-1,49
 144 301 144 301 149.5 288 c 128,-1,50
 155 275 155 275 155 262 c 0,51,52
 155 235 155 235 135.5 217.5 c 128,-1,53
 116 200 116 200 89 200 c 0,54,55
 69 200 69 200 53.5 209.5 c 128,-1,56
 38 219 38 219 29 235 c 0,57,58
 18 255 18 255 16 279 c 128,-1,59
 14 303 14 303 20 325.5 c 128,-1,60
 26 348 26 348 40 367 c 128,-1,61
 54 386 54 386 77 397 c 0,62,63
 102 409 102 409 131.5 405.5 c 128,-1,64
 161 402 161 402 182 379 c 1,65,66
 206 399 206 399 216.5 403 c 128,-1,67
 227 407 227 407 237 407 c 0,68,69
 256 406 256 406 270 395 c 0,70,71
 282 386 282 386 292 366 c 128,-1,72
 302 346 302 346 301 310 c 1,73,74
 299 299 299 299 297 291 c 128,-1,75
 295 283 295 283 290 275 c 128,-1,76
 285 267 285 267 277 258 c 128,-1,77
 269 249 269 249 256 236 c 0,78,79
 246 226 246 226 238 217 c 128,-1,80
 230 208 230 208 230 193 c 2,81,-1
 230 78 l 2,82,83
 230 73 230 73 228 68 c 128,-1,84
 226 63 226 63 223 61 c 1,85,-1
 316 61 l 2,86,87
 326 61 326 61 329.5 66.5 c 128,-1,88
 333 72 333 72 333 80 c 2,89,-1
 333 265 l 2,90,91
 333 277 333 277 328 284.5 c 128,-1,92
 323 292 323 292 318 297 c 1,93,94
 311 302 311 302 303 305 c 1,95,96
 300 319 300 319 308 335.5 c 128,-1,97
 316 352 316 352 333 371 c 128,-1,98
 350 390 350 390 374 410.5 c 128,-1,99
 398 431 398 431 425 454 c 1,100,-1
 466 408 l 1,101,102
 440 389 440 389 417 369 c 128,-1,103
 394 349 394 349 374 320 c 1,104,105
 382 315 382 315 388 308 c 0,106,107
 393 302 393 302 397.5 292 c 128,-1,108
 402 282 402 282 403 268 c 2,109,-1
 403 54 l 2,110,111
 403 28 403 28 384.5 15 c 128,-1,112
 366 2 366 2 341 2 c 2,113,-1
 195 2 l 1,114,115
 191 0 191 0 187.5 -1.5 c 128,-1,116
 184 -3 184 -3 181 -5 c 0,117,118
 174 -8 174 -8 167 -4.5 c 128,-1,119
 160 -1 160 -1 154 5 c 128,-1,120
 148 11 148 11 143.5 18 c 128,-1,121
 139 25 139 25 137 30 c 0,122,123
 134 37 134 37 137.5 43 c 128,-1,124
 141 49 141 49 146.5 55 c 128,-1,125
 152 61 152 61 157 68 c 128,-1,126
 162 75 162 75 162 84 c 2,127,-1
 162 163 l 2,12,13
EndSplineSet
EndChar
StartChar: uni0E0C
Encoding: 3596 3596 223
Width: 649
Flags: W
Fore
342 129 m 1,0,1
 327 127 327 127 317 113 c 128,-1,2
 307 99 307 99 307 82 c 0,3,4
 307 62 307 62 312.5 53.5 c 128,-1,5
 318 45 318 45 324.5 43.5 c 128,-1,6
 331 42 331 42 336.5 46 c 128,-1,7
 342 50 342 50 342 56 c 2,8,-1
 342 129 l 1,0,1
201 75 m 256,9,10
 201 88 201 88 192 97 c 128,-1,11
 183 106 183 106 170 106 c 0,12,13
 156 106 156 106 147 97 c 128,-1,14
 138 88 138 88 138 75 c 256,15,16
 138 62 138 62 147 53 c 128,-1,17
 156 44 156 44 170 44 c 0,18,19
 183 44 183 44 192 53 c 128,-1,20
 201 62 201 62 201 75 c 256,9,10
382 345 m 1,21,22
 387 347 387 347 396 344.5 c 128,-1,23
 405 342 405 342 416 330 c 0,24,25
 424 321 424 321 426.5 314.5 c 128,-1,26
 429 308 429 308 427.5 302.5 c 128,-1,27
 426 297 426 297 422 292 c 128,-1,28
 418 287 418 287 413 280 c 256,29,30
 408 273 408 273 406 266 c 128,-1,31
 404 259 404 259 404 245 c 2,32,-1
 404 179 l 1,33,34
 429 177 429 177 461.5 161 c 128,-1,35
 494 145 494 145 521 120 c 1,36,-1
 521 400 l 1,37,-1
 589 400 l 1,38,-1
 589 0 l 1,39,-1
 521 0 l 1,40,-1
 521 43 l 1,41,42
 508 61 508 61 493 75 c 128,-1,43
 478 89 478 89 462 99 c 128,-1,44
 446 109 446 109 431.5 115.5 c 128,-1,45
 417 122 417 122 405 124 c 1,46,-1
 405 67 l 2,47,48
 405 44 405 44 396.5 29.5 c 128,-1,49
 388 15 388 15 376 7.5 c 128,-1,50
 364 0 364 0 350 -1.5 c 128,-1,51
 336 -3 336 -3 324 -1 c 0,52,53
 298 3 298 3 278.5 27 c 128,-1,54
 259 51 259 51 263 91 c 0,55,56
 267 126 267 126 288 146 c 128,-1,57
 309 166 309 166 335 175 c 1,58,-1
 335 259 l 2,59,60
 334 267 334 267 337.5 279.5 c 128,-1,61
 341 292 341 292 347 297 c 1,62,63
 344 298 344 298 335 307 c 128,-1,64
 326 316 326 316 312 326 c 128,-1,65
 298 336 298 336 277.5 344.5 c 128,-1,66
 257 353 257 353 230 353 c 0,67,68
 197 353 197 353 175 345.5 c 128,-1,69
 153 338 153 338 139.5 327 c 128,-1,70
 126 316 126 316 118.5 304.5 c 128,-1,71
 111 293 111 293 107 285 c 1,72,-1
 135 264 l 1,73,74
 144 275 144 275 154.5 282.5 c 128,-1,75
 165 290 165 290 182 296 c 1,76,77
 187 289 l 130,-1,78
 192 282 192 282 198 274 c 128,-1,79
 204 266 204 266 208.5 259.5 c 128,-1,80
 212 254 212 254 213 253 c 1,81,82
 162 233 162 233 162 178 c 2,83,-1
 162 149 l 1,84,85
 178 150 178 150 193 144.5 c 128,-1,86
 208 139 208 139 219 128.5 c 128,-1,87
 230 118 230 118 236.5 104.5 c 128,-1,88
 243 91 243 91 243 75 c 0,89,90
 243 43 243 43 220.5 21 c 128,-1,91
 198 -1 198 -1 166 -1 c 256,92,93
 134 -1 134 -1 113.5 21 c 128,-1,94
 93 43 93 43 93 75 c 2,95,-1
 93 181 l 2,96,97
 93 199 93 199 95 208 c 128,-1,98
 97 217 97 217 101 222 c 1,99,-1
 32 267 l 1,100,101
 34 273 34 273 43.5 295.5 c 128,-1,102
 53 318 53 318 75 342 c 128,-1,103
 97 366 97 366 134 385.5 c 128,-1,104
 171 405 171 405 228 406 c 0,105,106
 289 406 289 406 325.5 386.5 c 128,-1,107
 362 367 362 367 382 345 c 1,21,22
EndSplineSet
EndChar
StartChar: uni0E0D
Encoding: 3597 3597 224
Width: 644
Flags: W
Fore
201 72 m 0,0,1
 201 85 201 85 192 94 c 128,-1,2
 183 103 183 103 169 103 c 0,3,4
 156 103 156 103 147 94 c 128,-1,5
 138 85 138 85 138 72 c 0,6,7
 138 58 138 58 147 49 c 128,-1,8
 156 40 156 40 169 40 c 0,9,10
 183 40 183 40 192 49 c 128,-1,11
 201 58 201 58 201 72 c 0,0,1
398 -99 m 0,12,13
 396 -87 396 -87 386.5 -80 c 128,-1,14
 377 -73 377 -73 366 -75 c 256,15,16
 355 -77 355 -77 348 -86.5 c 128,-1,17
 341 -96 341 -96 343 -107 c 0,18,19
 345 -119 345 -119 354 -126 c 128,-1,20
 363 -133 363 -133 375 -131 c 0,21,22
 386 -129 386 -129 393 -119.5 c 128,-1,23
 400 -110 400 -110 398 -99 c 0,12,13
402 79 m 1,24,25
 403 74 403 74 400.5 68 c 128,-1,26
 398 62 398 62 395 60 c 1,27,-1
 498 60 l 2,28,29
 515 60 515 60 515 79 c 2,30,-1
 515 400 l 1,31,-1
 585 400 l 1,32,-1
 585 55 l 2,33,34
 585 15 585 15 583.5 -15 c 128,-1,35
 582 -45 582 -45 575 -67 c 1,36,-1
 575 -68 l 1,37,38
 572 -79 572 -79 568 -88 c 0,39,40
 561 -103 561 -103 553 -113 c 128,-1,41
 545 -123 545 -123 537 -131 c 0,42,43
 517 -150 517 -150 492.5 -161 c 128,-1,44
 468 -172 468 -172 442.5 -176 c 128,-1,45
 417 -180 417 -180 392 -177.5 c 128,-1,46
 367 -175 367 -175 348 -168 c 0,47,48
 331 -161 331 -161 318.5 -147.5 c 128,-1,49
 306 -134 306 -134 303 -114 c 0,50,51
 298 -85 298 -85 314.5 -62.5 c 128,-1,52
 331 -40 331 -40 360 -35 c 0,53,54
 388 -30 388 -30 410.5 -47 c 128,-1,55
 433 -64 433 -64 438 -92 c 0,56,57
 441 -106 441 -106 436 -122 c 1,58,59
 486 -111 486 -111 507 -80 c 0,60,61
 513 -72 513 -72 519 -53 c 128,-1,62
 525 -34 525 -34 527 0 c 1,63,-1
 369 0 l 1,64,-1
 357 -4 l 2,65,66
 351 -6 351 -6 344 -3 c 128,-1,67
 337 0 337 0 331 6 c 128,-1,68
 325 12 325 12 320.5 18.5 c 128,-1,69
 316 25 316 25 314 30 c 0,70,71
 311 37 311 37 313.5 41 c 128,-1,72
 316 45 316 45 320.5 49.5 c 128,-1,73
 325 54 325 54 329 59 c 128,-1,74
 333 64 333 64 333 73 c 2,75,-1
 333 259 l 2,76,77
 332 267 332 267 336 279 c 128,-1,78
 340 291 340 291 345 297 c 1,79,80
 342 298 342 298 333.5 307 c 128,-1,81
 325 316 325 316 311 326 c 128,-1,82
 297 336 297 336 277 344.5 c 128,-1,83
 257 353 257 353 230 353 c 0,84,85
 197 353 197 353 175 345.5 c 128,-1,86
 153 338 153 338 139.5 327 c 128,-1,87
 126 316 126 316 118.5 304.5 c 128,-1,88
 111 293 111 293 107 285 c 1,89,-1
 135 264 l 1,90,91
 144 275 144 275 154.5 282.5 c 128,-1,92
 165 290 165 290 182 296 c 1,93,94
 187 289 l 130,-1,95
 192 282 192 282 198 274 c 128,-1,96
 204 266 204 266 208.5 259.5 c 128,-1,97
 212 254 212 254 213 253 c 1,98,99
 187 243 187 243 174.5 223.5 c 128,-1,100
 162 204 162 204 162 178 c 2,101,-1
 162 147 l 1,102,103
 164 148 164 148 166 148 c 128,-1,104
 168 148 168 148 169 148 c 0,105,106
 201 148 201 148 223.5 126 c 128,-1,107
 246 104 246 104 246 72 c 256,108,109
 246 40 246 40 223.5 17.5 c 128,-1,110
 201 -5 201 -5 169 -5 c 256,111,112
 137 -5 137 -5 115 17.5 c 128,-1,113
 93 40 93 40 93 72 c 2,114,-1
 93 181 l 2,115,116
 93 199 93 199 95 208 c 128,-1,117
 97 217 97 217 101 222 c 1,118,-1
 32 267 l 1,119,120
 34 273 34 273 43.5 295.5 c 128,-1,121
 53 318 53 318 75 342 c 128,-1,122
 97 366 97 366 134 385.5 c 128,-1,123
 171 405 171 405 228 406 c 0,124,125
 289 406 289 406 324.5 386.5 c 128,-1,126
 360 367 360 367 380 345 c 1,127,128
 385 347 385 347 394 344.5 c 128,-1,129
 403 342 403 342 414 330 c 0,130,131
 422 321 422 321 424.5 314.5 c 128,-1,132
 427 308 427 308 425.5 302.5 c 128,-1,133
 424 297 424 297 420 292 c 128,-1,134
 416 287 416 287 411 280 c 256,135,136
 406 273 406 273 404 266 c 128,-1,137
 402 259 402 259 402 245 c 2,138,-1
 402 79 l 1,24,25
EndSplineSet
Substitution: 0 65534 'L026' uni0E0D.alt1
Substitution: 0 65534 'L026' uni0E0D.alt1
EndChar
StartChar: uni0E0E
Encoding: 3598 3598 225
Width: 485
Flags: W
Fore
427 -125 m 2,0,1
 427 -135 427 -135 421 -144 c 2,2,3
 421 -145 421 -145 409.5 -157.5 c 128,-1,4
 398 -170 398 -170 384.5 -185.5 c 128,-1,5
 371 -201 371 -201 358.5 -214.5 c 128,-1,6
 346 -228 346 -228 344 -231 c 0,7,8
 334 -242 334 -242 326.5 -244 c 128,-1,9
 319 -246 319 -246 305 -237 c 0,10,11
 297 -232 297 -232 288 -222.5 c 128,-1,12
 279 -213 279 -213 284 -203 c 1,13,14
 266 -183 266 -183 248 -172.5 c 128,-1,15
 230 -162 230 -162 216 -157 c 1,16,17
 217 -160 217 -160 217 -166 c 0,18,19
 217 -199 217 -199 194 -222 c 128,-1,20
 171 -245 171 -245 138 -245 c 0,21,22
 106 -245 106 -245 82.5 -222 c 128,-1,23
 59 -199 59 -199 59 -166 c 0,24,25
 59 -134 59 -134 82.5 -110.5 c 128,-1,26
 106 -87 106 -87 138 -87 c 0,27,28
 148 -87 148 -87 157 -90 c 1,29,-1
 157 -48 l 1,30,-1
 214 -48 l 1,31,-1
 214 -101 l 1,32,33
 234 -106 234 -106 262 -119.5 c 128,-1,34
 290 -133 290 -133 319 -162 c 1,35,36
 330 -151 330 -151 341 -139 c 128,-1,37
 352 -127 352 -127 358 -119 c 1,38,-1
 358 261 l 2,39,40
 357 269 357 269 361 281.5 c 128,-1,41
 365 294 365 294 370 300 c 1,42,43
 367 301 367 301 358 310 c 128,-1,44
 349 319 349 319 335 329 c 128,-1,45
 321 339 321 339 300.5 347 c 128,-1,46
 280 355 280 355 253 355 c 0,47,48
 220 355 220 355 198 347.5 c 128,-1,49
 176 340 176 340 162.5 329 c 128,-1,50
 149 318 149 318 141.5 306.5 c 128,-1,51
 134 295 134 295 130 287 c 1,52,-1
 158 266 l 1,53,54
 167 277 167 277 177.5 284.5 c 128,-1,55
 188 292 188 292 205 298 c 1,56,57
 210 291 l 130,-1,58
 215 284 215 284 221 276 c 128,-1,59
 227 268 227 268 231.5 261.5 c 128,-1,60
 235 256 235 256 236 255 c 1,61,62
 210 245 210 245 200.5 225.5 c 128,-1,63
 191 206 191 206 191 180 c 2,64,-1
 191 78 l 2,65,66
 191 62 191 62 186.5 46.5 c 128,-1,67
 182 31 182 31 171.5 19 c 128,-1,68
 161 7 161 7 145 0 c 128,-1,69
 129 -7 129 -7 107 -7 c 0,70,71
 75 -7 75 -7 52.5 15.5 c 128,-1,72
 30 38 30 38 30 70 c 256,73,74
 30 102 30 102 52.5 124.5 c 128,-1,75
 75 147 75 147 107 147 c 0,76,77
 111 147 111 147 114 146.5 c 128,-1,78
 117 146 117 146 121 145 c 1,79,-1
 121 183 l 2,80,81
 121 201 121 201 123 210 c 128,-1,82
 125 219 125 219 129 224 c 1,83,-1
 55 269 l 1,84,85
 57 275 57 275 66.5 297.5 c 128,-1,86
 76 320 76 320 98 344 c 128,-1,87
 120 368 120 368 157 387.5 c 128,-1,88
 194 407 194 407 251 408 c 0,89,90
 313 408 313 408 349 388.5 c 128,-1,91
 385 369 385 369 405 346 c 1,92,93
 410 348 410 348 419 345 c 128,-1,94
 428 342 428 342 439 330 c 0,95,96
 447 321 447 321 449.5 314.5 c 128,-1,97
 452 308 452 308 450.5 302.5 c 128,-1,98
 449 297 449 297 445 292 c 128,-1,99
 441 287 441 287 436 280 c 256,100,101
 431 273 431 273 429 266 c 128,-1,102
 427 259 427 259 427 245 c 2,103,-1
 427 -125 l 2,0,1
138 70 m 256,104,105
 138 83 138 83 129 92 c 128,-1,106
 120 101 120 101 107 101 c 0,107,108
 93 101 93 101 84 92 c 128,-1,109
 75 83 75 83 75 70 c 256,110,111
 75 57 75 57 84 48 c 128,-1,112
 93 39 93 39 107 39 c 0,113,114
 120 39 120 39 129 48 c 128,-1,115
 138 57 138 57 138 70 c 256,104,105
171 -166 m 256,116,117
 171 -152 171 -152 161.5 -142.5 c 128,-1,118
 152 -133 152 -133 138 -133 c 256,119,120
 124 -133 124 -133 114.5 -142.5 c 128,-1,121
 105 -152 105 -152 105 -166 c 256,122,123
 105 -180 105 -180 114.5 -190 c 128,-1,124
 124 -200 124 -200 138 -200 c 256,125,126
 152 -200 152 -200 161.5 -190 c 128,-1,127
 171 -180 171 -180 171 -166 c 256,116,117
EndSplineSet
Substitution: 0 65534 'L026' uni0E0E.alt1
Substitution: 0 65534 'L026' uni0E0E.alt1
EndChar
StartChar: uni0E0F
Encoding: 3599 3599 226
Width: 485
Flags: W
Fore
427 -133 m 2,0,1
 427 -134 427 -134 417.5 -147.5 c 128,-1,2
 408 -161 408 -161 396.5 -177.5 c 128,-1,3
 385 -194 385 -194 375 -207.5 c 128,-1,4
 366 -220 366 -220 365 -221 c 0,5,6
 358 -229 358 -229 351 -228.5 c 128,-1,7
 344 -228 344 -228 335 -225 c 0,8,9
 321 -220 321 -220 314 -211.5 c 128,-1,10
 307 -203 307 -203 309 -196 c 1,11,12
 286 -196 286 -196 271.5 -205 c 128,-1,13
 257 -214 257 -214 246 -237 c 0,14,15
 244 -242 244 -242 241 -243.5 c 128,-1,16
 238 -245 238 -245 234.5 -244.5 c 128,-1,17
 231 -244 231 -244 226.5 -242.5 c 128,-1,18
 222 -241 222 -241 218 -240 c 0,19,20
 207 -238 207 -238 199.5 -235 c 128,-1,21
 192 -232 192 -232 197 -224 c 1,22,23
 197 -222 197 -222 199.5 -218.5 c 128,-1,24
 202 -215 202 -215 204 -210 c 1,25,26
 196 -191 196 -191 186 -180.5 c 128,-1,27
 176 -170 176 -170 165 -162 c 1,28,29
 166 -174 166 -174 162 -188.5 c 128,-1,30
 158 -203 158 -203 148 -215.5 c 128,-1,31
 138 -228 138 -228 122.5 -236.5 c 128,-1,32
 107 -245 107 -245 86 -245 c 0,33,34
 53 -245 53 -245 30 -222 c 128,-1,35
 7 -199 7 -199 7 -166 c 0,36,37
 7 -141 7 -141 18 -124 c 128,-1,38
 29 -107 29 -107 44.5 -98 c 128,-1,39
 60 -89 60 -89 77 -87.5 c 128,-1,40
 94 -86 94 -86 105 -90 c 1,41,-1
 105 -37 l 1,42,-1
 161 -37 l 1,43,-1
 161 -100 l 1,44,45
 179 -108 179 -108 200 -123.5 c 128,-1,46
 221 -139 221 -139 238 -171 c 1,47,48
 261 -151 261 -151 281.5 -148.5 c 128,-1,49
 302 -146 302 -146 324 -156 c 1,50,-1
 358 -115 l 1,51,-1
 358 261 l 2,52,53
 357 269 357 269 360.5 281.5 c 128,-1,54
 364 294 364 294 370 299 c 1,55,56
 367 300 367 300 358 309 c 128,-1,57
 349 318 349 318 335 328 c 128,-1,58
 321 338 321 338 300.5 346.5 c 128,-1,59
 280 355 280 355 253 355 c 0,60,61
 220 355 220 355 198 347.5 c 128,-1,62
 176 340 176 340 162.5 329 c 128,-1,63
 149 318 149 318 141.5 306.5 c 128,-1,64
 134 295 134 295 130 287 c 1,65,-1
 158 266 l 1,66,67
 167 277 167 277 177.5 284.5 c 128,-1,68
 188 292 188 292 205 298 c 1,69,70
 210 291 l 130,-1,71
 215 284 215 284 221 276 c 128,-1,72
 227 268 227 268 231.5 261.5 c 128,-1,73
 235 256 235 256 236 255 c 1,74,75
 210 245 210 245 200.5 225.5 c 128,-1,76
 191 206 191 206 191 180 c 2,77,-1
 191 78 l 2,78,79
 191 62 191 62 186.5 46.5 c 128,-1,80
 182 31 182 31 171.5 19 c 128,-1,81
 161 7 161 7 145 0 c 128,-1,82
 129 -7 129 -7 107 -7 c 0,83,84
 75 -7 75 -7 52.5 15.5 c 128,-1,85
 30 38 30 38 30 70 c 256,86,87
 30 102 30 102 52.5 124.5 c 128,-1,88
 75 147 75 147 107 147 c 0,89,90
 111 147 111 147 114 146.5 c 128,-1,91
 117 146 117 146 121 145 c 1,92,-1
 121 183 l 2,93,94
 121 201 121 201 123 210 c 128,-1,95
 125 219 125 219 129 224 c 1,96,-1
 55 269 l 1,97,98
 57 275 57 275 66.5 297.5 c 128,-1,99
 76 320 76 320 98 344 c 128,-1,100
 120 368 120 368 157 387.5 c 128,-1,101
 194 407 194 407 251 408 c 0,102,103
 313 408 313 408 349 388.5 c 128,-1,104
 385 369 385 369 405 346 c 1,105,106
 410 348 410 348 419 345 c 128,-1,107
 428 342 428 342 439 330 c 0,108,109
 447 321 447 321 449.5 314.5 c 128,-1,110
 452 308 452 308 450.5 302.5 c 128,-1,111
 449 297 449 297 445 292 c 128,-1,112
 441 287 441 287 436 280 c 256,113,114
 431 273 431 273 429 266 c 128,-1,115
 427 259 427 259 427 245 c 2,116,-1
 427 -133 l 2,0,1
138 70 m 256,117,118
 138 83 138 83 129 92 c 128,-1,119
 120 101 120 101 107 101 c 0,120,121
 93 101 93 101 84 92 c 128,-1,122
 75 83 75 83 75 70 c 256,123,124
 75 57 75 57 84 48 c 128,-1,125
 93 39 93 39 107 39 c 0,126,127
 120 39 120 39 129 48 c 128,-1,128
 138 57 138 57 138 70 c 256,117,118
119 -166 m 256,129,130
 119 -152 119 -152 110.5 -142.5 c 128,-1,131
 102 -133 102 -133 86 -133 c 0,132,133
 72 -133 72 -133 62.5 -142.5 c 128,-1,134
 53 -152 53 -152 53 -166 c 256,135,136
 53 -180 53 -180 62.5 -190 c 128,-1,137
 72 -200 72 -200 86 -200 c 256,138,139
 100 -200 100 -200 109.5 -190 c 128,-1,140
 119 -180 119 -180 119 -166 c 256,129,130
EndSplineSet
Substitution: 0 65534 'L026' uni0E0F.alt1
Substitution: 0 65534 'L026' uni0E0F.alt1
EndChar
StartChar: uni0E10
Encoding: 3600 3600 227
Width: 418
Flags: W
Fore
332 -206 m 1,0,1
 333 -211 333 -211 323 -224 c 0,2,3
 313 -236 313 -236 305 -234 c 128,-1,4
 297 -232 297 -232 295 -230 c 1,5,6
 252 -208 252 -208 209 -237 c 0,7,8
 197 -245 197 -245 192 -242.5 c 128,-1,9
 187 -240 187 -240 178 -235 c 0,10,11
 166 -228 166 -228 164.5 -227 c 128,-1,12
 163 -226 163 -226 166 -219 c 1,13,14
 155 -193 155 -193 141.5 -181 c 128,-1,15
 128 -169 128 -169 116 -163 c 1,16,17
 119 -194 119 -194 98.5 -219.5 c 128,-1,18
 78 -245 78 -245 41 -245 c 0,19,20
 10 -245 10 -245 -12 -223.5 c 128,-1,21
 -34 -202 -34 -202 -34 -170 c 0,22,23
 -34 -148 -34 -148 -25 -132 c 128,-1,24
 -16 -116 -16 -116 -2 -107 c 128,-1,25
 12 -98 12 -98 28.5 -95.5 c 128,-1,26
 45 -93 45 -93 60 -97 c 1,27,-1
 60 -38 l 1,28,-1
 117 -38 l 1,29,-1
 117 -110 l 1,30,31
 140 -118 140 -118 163 -135 c 128,-1,32
 186 -152 186 -152 203 -187 c 1,33,34
 220 -179 220 -179 239 -177 c 128,-1,35
 258 -175 258 -175 275 -177 c 1,36,-1
 275 -146 l 1,37,38
 265 -149 265 -149 252 -146.5 c 128,-1,39
 239 -144 239 -144 227 -136 c 128,-1,40
 215 -128 215 -128 207 -115 c 128,-1,41
 199 -102 199 -102 199 -83 c 0,42,43
 199 -57 199 -57 218 -38 c 128,-1,44
 237 -19 237 -19 263 -19 c 0,45,46
 288 -19 288 -19 310 -35.5 c 128,-1,47
 332 -52 332 -52 332 -81 c 2,48,-1
 332 -206 l 1,0,1
74 -170 m 256,49,50
 74 -156 74 -156 64.5 -146.5 c 128,-1,51
 55 -137 55 -137 41 -137 c 256,52,53
 27 -137 27 -137 17.5 -146.5 c 128,-1,54
 8 -156 8 -156 8 -170 c 256,55,56
 8 -184 8 -184 17.5 -193.5 c 128,-1,57
 27 -203 27 -203 41 -203 c 256,58,59
 55 -203 55 -203 64.5 -193.5 c 128,-1,60
 74 -184 74 -184 74 -170 c 256,49,50
289 -83 m 256,61,62
 289 -72 289 -72 281.5 -65 c 128,-1,63
 274 -58 274 -58 263 -58 c 256,64,65
 252 -58 252 -58 245 -65 c 128,-1,66
 238 -72 238 -72 238 -83 c 256,67,68
 238 -94 238 -94 245 -101.5 c 128,-1,69
 252 -109 252 -109 263 -109 c 256,70,71
 274 -109 274 -109 281.5 -101.5 c 128,-1,72
 289 -94 289 -94 289 -83 c 256,61,62
182 159 m 0,73,74
 182 172 182 172 173 181.5 c 128,-1,75
 164 191 164 191 150 191 c 256,76,77
 136 191 136 191 126.5 181.5 c 128,-1,78
 117 172 117 172 117 159 c 0,79,80
 117 145 117 145 126.5 136 c 128,-1,81
 136 127 136 127 150 127 c 256,82,83
 164 127 164 127 173 136 c 128,-1,84
 182 145 182 145 182 159 c 0,73,74
362 218 m 0,85,86
 357 210 357 210 351.5 202.5 c 128,-1,87
 346 195 346 195 344 184 c 2,88,-1
 323 44 l 2,89,90
 322 38 322 38 314.5 31.5 c 128,-1,91
 307 25 307 25 297.5 18.5 c 128,-1,92
 288 12 288 12 277 6 c 128,-1,93
 266 0 266 0 257 -6 c 0,94,95
 253 -8 253 -8 252 -8 c 128,-1,96
 251 -8 251 -8 248 -10 c 0,97,98
 241 -13 241 -13 234 -9.5 c 128,-1,99
 227 -6 227 -6 221 0 c 128,-1,100
 215 6 215 6 210.5 13 c 128,-1,101
 206 20 206 20 204 25 c 0,102,103
 200 33 200 33 203.5 38 c 128,-1,104
 207 43 207 43 213 50 c 1,105,106
 211 58 211 58 205 71 c 128,-1,107
 199 84 199 84 193 103 c 1,108,109
 187 95 187 95 175.5 91.5 c 128,-1,110
 164 88 164 88 153 87 c 0,111,112
 140 86 140 86 127 90.5 c 128,-1,113
 114 95 114 95 103 104 c 128,-1,114
 92 113 92 113 85 127 c 128,-1,115
 78 141 78 141 78 160 c 0,116,117
 78 195 78 195 101 213.5 c 128,-1,118
 124 232 124 232 151 232 c 0,119,120
 169 232 169 232 187 222 c 128,-1,121
 205 212 205 212 213 197 c 0,122,123
 219 188 219 188 225.5 174 c 128,-1,124
 232 160 232 160 239 143 c 128,-1,125
 246 126 246 126 252 107.5 c 128,-1,126
 258 89 258 89 261 72 c 1,127,-1
 278 192 l 2,128,129
 280 200 280 200 282 209.5 c 128,-1,130
 284 219 284 219 292 230 c 1,131,132
 284 237 284 237 265 245 c 128,-1,133
 246 253 246 253 219 258.5 c 128,-1,134
 192 264 192 264 158 265.5 c 128,-1,135
 124 267 124 267 87 262 c 1,136,137
 80 250 80 250 72 246.5 c 128,-1,138
 64 243 64 243 42 254 c 0,139,140
 29 261 29 261 30.5 269.5 c 128,-1,141
 32 278 32 278 42 298 c 0,142,143
 54 322 54 322 71.5 343.5 c 128,-1,144
 89 365 89 365 112.5 381 c 128,-1,145
 136 397 136 397 165.5 405.5 c 128,-1,146
 195 414 195 414 230 412 c 0,147,148
 258 410 258 410 283.5 404.5 c 128,-1,149
 309 399 309 399 330 393.5 c 128,-1,150
 351 388 351 388 368 383.5 c 128,-1,151
 385 379 385 379 397 379 c 1,152,-1
 378 335 l 1,153,154
 371 330 371 330 353.5 333.5 c 128,-1,155
 336 337 336 337 314 343 c 128,-1,156
 292 349 292 349 268 355 c 128,-1,157
 244 361 244 361 225 361 c 0,158,159
 176 361 176 361 153.5 348.5 c 128,-1,160
 131 336 131 336 119 318 c 1,161,162
 201 322 201 322 251.5 307 c 128,-1,163
 302 292 302 292 326 277 c 1,164,165
 328 280 328 280 338.5 278.5 c 128,-1,166
 349 277 349 277 361 263 c 0,167,168
 375 246 375 246 373 237.5 c 128,-1,169
 371 229 371 229 362 218 c 0,85,86
EndSplineSet
Substitution: 0 65534 'L026' uni0E10.alt1
Substitution: 0 65534 'L026' uni0E10.alt1
EndChar
StartChar: uni0E11
Encoding: 3601 3601 228
Width: 544
Flags: W
Fore
120 262 m 256,0,1
 120 273 120 273 112 281 c 128,-1,2
 104 289 104 289 93 289 c 256,3,4
 82 289 82 289 74.5 281 c 128,-1,5
 67 273 67 273 67 262 c 256,6,7
 67 251 67 251 74.5 243 c 128,-1,8
 82 235 82 235 93 235 c 256,9,10
 104 235 104 235 112 243 c 128,-1,11
 120 251 120 251 120 262 c 256,0,1
489 0 m 1,12,-1
 420 0 l 1,13,-1
 420 290 l 2,14,15
 420 295 420 295 421.5 309.5 c 128,-1,16
 423 324 423 324 431 335 c 1,17,18
 429 337 429 337 418.5 340.5 c 128,-1,19
 408 344 408 344 405 344 c 1,20,-1
 257 39 l 2,21,22
 254 32 254 32 242 20.5 c 128,-1,23
 230 9 230 9 216 1 c 0,24,25
 212 -1 212 -1 209.5 -2 c 128,-1,26
 207 -3 207 -3 204 -5 c 0,27,28
 197 -8 197 -8 190.5 -4.5 c 128,-1,29
 184 -1 184 -1 178 5 c 128,-1,30
 172 11 172 11 167.5 18 c 128,-1,31
 163 25 163 25 161 30 c 0,32,33
 158 37 158 37 160.5 42.5 c 128,-1,34
 163 48 163 48 167.5 54 c 128,-1,35
 172 60 172 60 176 66.5 c 128,-1,36
 180 73 180 73 180 82 c 2,37,-1
 180 220 l 1,38,39
 177 237 177 237 187.5 253.5 c 128,-1,40
 198 270 198 270 212 284 c 0,41,42
 216 288 216 288 222 293.5 c 128,-1,43
 228 299 228 299 234 305 c 128,-1,44
 240 311 240 311 244.5 316 c 128,-1,45
 249 321 249 321 248 324 c 0,46,47
 244 338 244 338 237.5 348 c 128,-1,48
 231 358 231 358 223 357 c 0,49,50
 213 356 213 356 201 345 c 1,51,52
 206 334 206 334 201.5 325.5 c 128,-1,53
 197 317 197 317 186 312 c 0,54,55
 180 309 180 309 172 310.5 c 128,-1,56
 164 312 164 312 159 323 c 0,57,58
 153 337 153 337 139.5 347 c 128,-1,59
 126 357 126 357 112 352 c 0,60,61
 99 347 99 347 93.5 339 c 128,-1,62
 88 331 88 331 84 323 c 1,63,64
 101 327 101 327 115 323 c 128,-1,65
 129 319 129 319 138.5 310 c 128,-1,66
 148 301 148 301 153.5 288 c 128,-1,67
 159 275 159 275 159 262 c 0,68,69
 159 235 159 235 140 215.5 c 128,-1,70
 121 196 121 196 93 196 c 0,71,72
 74 196 74 196 58.5 206 c 128,-1,73
 43 216 43 216 35 232 c 0,74,75
 24 251 24 251 21.5 275.5 c 128,-1,76
 19 300 19 300 24.5 323.5 c 128,-1,77
 30 347 30 347 43.5 367 c 128,-1,78
 57 387 57 387 78 397 c 0,79,80
 103 409 103 409 129.5 405 c 128,-1,81
 156 401 156 401 177 378 c 1,82,83
 201 399 201 399 214.5 403 c 128,-1,84
 228 407 228 407 238 408 c 0,85,86
 251 409 251 409 263 399.5 c 128,-1,87
 275 390 275 390 284 378 c 128,-1,88
 293 366 293 366 298.5 355 c 128,-1,89
 304 344 304 344 304 343 c 1,90,91
 306 338 306 338 307 335 c 128,-1,92
 308 332 308 332 306 323 c 0,93,94
 305 316 305 316 296 307.5 c 128,-1,95
 287 299 287 299 276.5 289.5 c 128,-1,96
 266 280 266 280 257.5 268 c 128,-1,97
 249 256 249 256 249 243 c 2,98,-1
 249 134 l 1,99,-1
 374 407 l 1,100,101
 398 407 398 407 423 401 c 128,-1,102
 448 395 448 395 462 384 c 1,103,104
 465 389 465 389 476.5 387.5 c 128,-1,105
 488 386 488 386 501 372 c 0,106,107
 509 363 509 363 511.5 356.5 c 128,-1,108
 514 350 514 350 512.5 344.5 c 128,-1,109
 511 339 511 339 507 334 c 128,-1,110
 503 329 503 329 498 322 c 256,111,112
 493 315 493 315 491 308 c 128,-1,113
 489 301 489 301 489 287 c 2,114,-1
 489 0 l 1,12,-1
EndSplineSet
EndChar
StartChar: uni0E12
Encoding: 3602 3602 229
Width: 642
Flags: W
Fore
346 126 m 1,0,1
 331 124 331 124 321 110.5 c 128,-1,2
 311 97 311 97 311 80 c 0,3,4
 311 60 311 60 316.5 51.5 c 128,-1,5
 322 43 322 43 328.5 41 c 128,-1,6
 335 39 335 39 340.5 43 c 128,-1,7
 346 47 346 47 346 53 c 2,8,-1
 346 126 l 1,0,1
258 225 m 0,9,10
 258 238 258 238 249.5 246.5 c 128,-1,11
 241 255 241 255 229 255 c 0,12,13
 216 255 216 255 207.5 246.5 c 128,-1,14
 199 238 199 238 199 225 c 0,15,16
 199 213 199 213 207.5 204.5 c 128,-1,17
 216 196 216 196 229 196 c 0,18,19
 241 196 241 196 249.5 204.5 c 128,-1,20
 258 213 258 213 258 225 c 0,9,10
410 171 m 1,21,22
 435 169 435 169 466 154 c 128,-1,23
 497 139 497 139 524 115 c 1,24,-1
 524 400 l 1,25,-1
 591 400 l 1,26,-1
 591 0 l 1,27,-1
 524 0 l 1,28,-1
 524 41 l 1,29,30
 511 58 511 58 496 71 c 128,-1,31
 481 84 481 84 465.5 93.5 c 128,-1,32
 450 103 450 103 435.5 109 c 128,-1,33
 421 115 421 115 409 117 c 1,34,-1
 409 64 l 2,35,36
 409 41 409 41 400.5 26.5 c 128,-1,37
 392 12 392 12 380 4.5 c 128,-1,38
 368 -3 368 -3 354 -4.5 c 128,-1,39
 340 -6 340 -6 328 -4 c 256,40,41
 316 -2 316 -2 303.5 5.5 c 128,-1,42
 291 13 291 13 282 25 c 128,-1,43
 273 37 273 37 268 53 c 128,-1,44
 263 69 263 69 265 89 c 0,45,46
 269 125 269 125 292.5 145.5 c 128,-1,47
 316 166 316 166 343 174 c 1,48,-1
 343 265 l 2,49,50
 343 273 343 273 346 282.5 c 128,-1,51
 349 292 349 292 355 298 c 1,52,53
 352 305.5 l 130,-1,54
 349 313 349 313 342.5 322 c 128,-1,55
 336 331 336 331 324.5 339 c 128,-1,56
 313 347 313 347 297 350 c 1,57,58
 295 349 295 349 287.5 344 c 128,-1,59
 280 339 280 339 272 333 c 128,-1,60
 264 327 264 327 257 322 c 128,-1,61
 250 317 250 317 249 316 c 1,62,63
 238 311 238 311 233.5 314 c 128,-1,64
 229 317 229 317 215 328 c 0,65,66
 204 336 204 336 193.5 341.5 c 128,-1,67
 183 347 183 347 173 351 c 1,68,69
 139 340 139 340 126 315.5 c 128,-1,70
 113 291 113 291 113 256 c 0,71,72
 115 206 115 206 125.5 169 c 128,-1,73
 136 132 136 132 141 102 c 1,74,75
 147 109 147 109 156 119.5 c 128,-1,76
 165 130 165 130 174 139.5 c 128,-1,77
 183 149 183 149 189.5 156 c 128,-1,78
 196 163 196 163 197 164 c 1,79,80
 179 170 179 170 167.5 187 c 128,-1,81
 156 204 156 204 156 225 c 0,82,83
 156 255 156 255 177.5 276.5 c 128,-1,84
 199 298 199 298 229 298 c 0,85,86
 258 298 258 298 279.5 276.5 c 128,-1,87
 301 255 301 255 301 225 c 0,88,89
 301 194 301 194 281.5 171.5 c 128,-1,90
 262 149 262 149 244 132 c 0,91,92
 227 116 227 116 208.5 96 c 128,-1,93
 190 76 190 76 174 58 c 128,-1,94
 158 40 158 40 146 26 c 128,-1,95
 134 12 134 12 130 8 c 0,96,97
 119 -2 119 -2 109.5 -5 c 128,-1,98
 100 -8 100 -8 87 5 c 0,99,100
 73 19 73 19 70 26 c 128,-1,101
 67 33 67 33 75 44 c 0,102,103
 80 51 80 51 84 57 c 128,-1,104
 88 63 88 63 87 73 c 0,105,106
 85 94 85 94 79.5 114.5 c 128,-1,107
 74 135 74 135 68 157.5 c 128,-1,108
 62 180 62 180 57 204.5 c 128,-1,109
 52 229 52 229 52 259 c 0,110,111
 52 371 52 371 158 406 c 0,112,113
 170 410 170 410 182 405 c 0,114,115
 197 400 197 400 213 389.5 c 128,-1,116
 229 379 229 379 242 367 c 1,117,118
 263 388 263 388 279.5 399.5 c 128,-1,119
 296 411 296 411 305 409 c 0,120,121
 341 399 341 399 364 383.5 c 128,-1,122
 387 368 387 368 398 348 c 1,123,124
 404 350 404 350 410.5 344 c 128,-1,125
 417 338 417 338 425 330 c 0,126,127
 433 321 433 321 435.5 314.5 c 128,-1,128
 438 308 438 308 436.5 302.5 c 128,-1,129
 435 297 435 297 430.5 292 c 128,-1,130
 426 287 426 287 421 280 c 256,131,132
 416 273 416 273 413 266 c 128,-1,133
 410 259 410 259 410 245 c 2,134,-1
 410 171 l 1,21,22
EndSplineSet
EndChar
StartChar: uni0E13
Encoding: 3603 3603 230
Width: 664
Flags: W
Fore
207 72 m 0,0,1
 207 85 207 85 198 94 c 128,-1,2
 189 103 189 103 176 103 c 0,3,4
 162 103 162 103 153 94 c 128,-1,5
 144 85 144 85 144 72 c 0,6,7
 144 58 144 58 153 49 c 128,-1,8
 162 40 162 40 176 40 c 0,9,10
 189 40 189 40 198 49 c 128,-1,11
 207 58 207 58 207 72 c 0,0,1
590 77 m 0,12,13
 590 94 590 94 579.5 105 c 128,-1,14
 569 116 569 116 552 116 c 256,15,16
 535 116 535 116 524.5 105 c 128,-1,17
 514 94 514 94 514 77 c 0,18,19
 514 61 514 61 524.5 50 c 128,-1,20
 535 39 535 39 552 39 c 256,21,22
 569 39 569 39 579.5 50 c 128,-1,23
 590 61 590 61 590 77 c 0,12,13
402 126 m 1,24,25
 431 153 431 153 465 164 c 128,-1,26
 499 175 499 175 537 173 c 1,27,28
 540 176 540 176 540 186 c 2,29,-1
 540 376 l 1,30,-1
 607 376 l 1,31,-1
 607 168 l 1,32,33
 605 158 l 128,-1,34
 604 153 604 153 600 149 c 1,35,36
 617 137 617 137 627.5 118 c 128,-1,37
 638 99 638 99 638 77 c 0,38,39
 638 40 638 40 612.5 15 c 128,-1,40
 587 -10 587 -10 551 -10 c 0,41,42
 514 -10 514 -10 489 15 c 128,-1,43
 464 40 464 40 464 77 c 0,44,45
 464 79 464 79 465.5 89 c 128,-1,46
 467 99 467 99 471 106 c 1,47,48
 450 100 450 100 433.5 86.5 c 128,-1,49
 417 73 417 73 405 57 c 128,-1,50
 393 41 393 41 384 26.5 c 128,-1,51
 375 12 375 12 368 4 c 0,52,53
 363 -2 363 -2 355.5 -0.5 c 128,-1,54
 348 1 348 1 340.5 6 c 128,-1,55
 333 11 333 11 326.5 17.5 c 128,-1,56
 320 24 320 24 318 29 c 0,57,58
 315 36 315 36 317 40.5 c 128,-1,59
 319 45 319 45 323 49.5 c 128,-1,60
 327 54 327 54 330.5 59 c 128,-1,61
 334 64 334 64 334 73 c 2,62,-1
 333 259 l 2,63,64
 332 267 332 267 336 278 c 128,-1,65
 340 289 340 289 345 297 c 1,66,67
 342 298 342 298 333.5 307 c 128,-1,68
 325 316 325 316 311 326 c 128,-1,69
 297 336 297 336 277 344.5 c 128,-1,70
 257 353 257 353 230 353 c 0,71,72
 197 353 197 353 175 345.5 c 128,-1,73
 153 338 153 338 139.5 327 c 128,-1,74
 126 316 126 316 118.5 304.5 c 128,-1,75
 111 293 111 293 107 285 c 1,76,-1
 135 264 l 1,77,78
 144 275 144 275 154.5 282.5 c 128,-1,79
 165 290 165 290 182 296 c 1,80,81
 187 289 l 130,-1,82
 192 282 192 282 198 274 c 128,-1,83
 204 266 204 266 208.5 259.5 c 128,-1,84
 212 254 212 254 213 253 c 1,85,86
 187 243 187 243 174.5 223.5 c 128,-1,87
 162 204 162 204 162 178 c 2,88,-1
 162 144 l 1,89,90
 177 149 177 149 192.5 145.5 c 128,-1,91
 208 142 208 142 221.5 132.5 c 128,-1,92
 235 123 235 123 243.5 107.5 c 128,-1,93
 252 92 252 92 252 72 c 0,94,95
 252 40 252 40 230 17.5 c 128,-1,96
 208 -5 208 -5 176 -5 c 0,97,98
 165 -5 165 -5 150.5 -1.5 c 128,-1,99
 136 2 136 2 123.5 11.5 c 128,-1,100
 111 21 111 21 102 36.5 c 128,-1,101
 93 52 93 52 93 76 c 2,102,-1
 93 181 l 2,103,104
 93 199 93 199 95 208 c 128,-1,105
 97 217 97 217 101 222 c 1,106,-1
 32 267 l 1,107,108
 34 273 34 273 43.5 295.5 c 128,-1,109
 53 318 53 318 75 342 c 128,-1,110
 97 366 97 366 134 385.5 c 128,-1,111
 171 405 171 405 228 406 c 0,112,113
 288 406 288 406 324 387 c 128,-1,114
 360 368 360 368 380 346 c 1,115,116
 385 348 385 348 394 345 c 128,-1,117
 403 342 403 342 414 330 c 0,118,119
 422 321 422 321 424.5 314.5 c 128,-1,120
 427 308 427 308 425.5 302.5 c 128,-1,121
 424 297 424 297 420 292 c 128,-1,122
 416 287 416 287 411 280 c 256,123,124
 406 273 406 273 404 266 c 128,-1,125
 402 259 402 259 402 245 c 2,126,-1
 402 126 l 1,24,25
EndSplineSet
EndChar
StartChar: uni0E14
Encoding: 3604 3604 231
Width: 458
Flags: W
Fore
410 0 m 1,0,-1
 341 0 l 1,1,-1
 341 258 l 2,2,3
 341 272 341 272 345 282 c 128,-1,4
 349 292 349 292 354 297 c 1,5,6
 351 298 351 298 344.5 306.5 c 128,-1,7
 338 315 338 315 324.5 324.5 c 128,-1,8
 311 334 311 334 289.5 342 c 128,-1,9
 268 350 268 350 234 350 c 0,10,11
 176 350 176 350 146 321.5 c 128,-1,12
 116 293 116 293 115 247 c 0,13,14
 115 218 115 218 118 197.5 c 128,-1,15
 121 177 121 177 125.5 161 c 128,-1,16
 130 145 130 145 134.5 131 c 128,-1,17
 139 117 139 117 141 102 c 1,18,19
 147 109 147 109 156.5 119.5 c 128,-1,20
 166 130 166 130 175.5 139.5 c 128,-1,21
 185 149 185 149 192 155.5 c 128,-1,22
 199 162 199 162 200 163 c 1,23,24
 181 170 181 170 169 187.5 c 128,-1,25
 157 205 157 205 157 228 c 0,26,27
 157 260 157 260 179 282 c 128,-1,28
 201 304 201 304 233 304 c 256,29,30
 265 304 265 304 287 282 c 128,-1,31
 309 260 309 260 309 228 c 0,32,33
 309 211 309 211 303 197 c 128,-1,34
 297 183 297 183 288 171 c 128,-1,35
 279 159 279 159 268.5 149 c 128,-1,36
 258 139 258 139 249 130 c 0,37,38
 231 113 231 113 212 93.5 c 128,-1,39
 193 74 193 74 176.5 56.5 c 128,-1,40
 160 39 160 39 147.5 25.5 c 128,-1,41
 135 12 135 12 130 8 c 0,42,43
 119 -2 119 -2 109.5 -5 c 128,-1,44
 100 -8 100 -8 87 5 c 0,45,46
 73 19 73 19 70 26 c 128,-1,47
 67 33 67 33 75 44 c 0,48,49
 80 51 80 51 84 57 c 128,-1,50
 88 63 88 63 87 73 c 0,51,52
 85 94 85 94 80 113.5 c 128,-1,53
 75 133 75 133 69 153.5 c 128,-1,54
 63 174 63 174 58.5 197.5 c 128,-1,55
 54 221 54 221 54 251 c 0,56,57
 56 322 56 322 104.5 364 c 128,-1,58
 153 406 153 406 233 407 c 0,59,60
 297 407 297 407 331.5 388.5 c 128,-1,61
 366 370 366 370 387 346 c 1,62,63
 392 348 392 348 401.5 345 c 128,-1,64
 411 342 411 342 422 330 c 0,65,66
 430 321 430 321 432.5 314.5 c 128,-1,67
 435 308 435 308 433.5 302.5 c 128,-1,68
 432 297 432 297 428 292 c 128,-1,69
 424 287 424 287 419 280 c 256,70,71
 414 273 414 273 412 266 c 128,-1,72
 410 259 410 259 410 245 c 2,73,-1
 410 0 l 1,0,-1
264 228 m 256,74,75
 264 241 264 241 255 250 c 128,-1,76
 246 259 246 259 233 259 c 256,77,78
 220 259 220 259 211 250 c 128,-1,79
 202 241 202 241 202 228 c 256,80,81
 202 215 202 215 211 206 c 128,-1,82
 220 197 220 197 233 197 c 256,83,84
 246 197 246 197 255 206 c 128,-1,85
 264 215 264 215 264 228 c 256,74,75
EndSplineSet
EndChar
StartChar: uni0E15
Encoding: 3605 3605 232
Width: 463
Flags: W
Fore
413 0 m 1,0,-1
 344 0 l 1,1,-1
 344 264 l 2,2,3
 344 272 344 272 347 281.5 c 128,-1,4
 350 291 350 291 356 297 c 1,5,6
 353.5 304 l 130,-1,7
 351 311 351 311 345 319.5 c 128,-1,8
 339 328 339 328 329.5 336 c 128,-1,9
 320 344 320 344 305 347 c 1,10,11
 303 346 303 346 294.5 338.5 c 128,-1,12
 286 331 286 331 276.5 323 c 128,-1,13
 267 315 267 315 259 308 c 128,-1,14
 251 301 251 301 250 300 c 1,15,16
 239 295 239 295 233 298.5 c 128,-1,17
 227 302 227 302 219 311 c 0,18,19
 212 319 212 319 196 331 c 128,-1,20
 180 343 180 343 170 348 c 1,21,22
 136 330 136 330 127.5 310.5 c 128,-1,23
 119 291 119 291 119 262 c 256,24,25
 119 233 119 233 122.5 210 c 128,-1,26
 126 187 126 187 130.5 167.5 c 128,-1,27
 135 148 135 148 140 131.5 c 128,-1,28
 145 115 145 115 147 100 c 1,29,30
 153 107 153 107 161.5 115.5 c 128,-1,31
 170 124 170 124 178.5 131 c 128,-1,32
 187 138 187 138 193 143 c 128,-1,33
 199 148 199 148 200 149 c 1,34,35
 193 150 193 150 185.5 155.5 c 128,-1,36
 178 161 178 161 172 169.5 c 128,-1,37
 166 178 166 178 162 188.5 c 128,-1,38
 158 199 158 199 158 210 c 0,39,40
 158 242 158 242 180 264 c 128,-1,41
 202 286 202 286 234 286 c 256,42,43
 266 286 266 286 288 264 c 128,-1,44
 310 242 310 242 310 210 c 0,45,46
 310 189 310 189 301 172.5 c 128,-1,47
 292 156 292 156 279 143 c 128,-1,48
 266 130 266 130 252.5 120.5 c 128,-1,49
 239 111 239 111 230 103 c 0,50,51
 192 71 192 71 169 43 c 128,-1,52
 146 15 146 15 136 6 c 0,53,54
 125 -4 125 -4 115.5 -7 c 128,-1,55
 106 -10 106 -10 93 3 c 0,56,57
 79 17 79 17 76 24 c 128,-1,58
 73 31 73 31 81 42 c 0,59,60
 86 49 86 49 90 55 c 128,-1,61
 94 61 94 61 93 71 c 0,62,63
 91 92 91 92 85.5 113.5 c 128,-1,64
 80 135 80 135 74 158 c 128,-1,65
 68 181 68 181 63 206.5 c 128,-1,66
 58 232 58 232 58 262 c 0,67,68
 58 318 58 318 81.5 353 c 128,-1,69
 105 388 105 388 159 405 c 0,70,71
 171 409 171 409 182 403 c 1,72,73
 198 398 198 398 213.5 387.5 c 128,-1,74
 229 377 229 377 242 365 c 1,75,76
 263 386 263 386 280 398 c 128,-1,77
 297 410 297 410 306 408 c 0,78,79
 341 400 341 400 363.5 383.5 c 128,-1,80
 386 367 386 367 397 347 c 1,81,82
 403 349 403 349 410 343.5 c 128,-1,83
 417 338 417 338 425 330 c 0,84,85
 433 321 433 321 435.5 314.5 c 128,-1,86
 438 308 438 308 436.5 302.5 c 128,-1,87
 435 297 435 297 431 292 c 128,-1,88
 427 287 427 287 422 280 c 256,89,90
 417 273 417 273 415 266 c 128,-1,91
 413 259 413 259 413 245 c 2,92,-1
 413 0 l 1,0,-1
265 210 m 256,93,94
 265 223 265 223 256 232 c 128,-1,95
 247 241 247 241 234 241 c 256,96,97
 221 241 221 241 212 232 c 128,-1,98
 203 223 203 223 203 210 c 256,99,100
 203 197 203 197 212 188 c 128,-1,101
 221 179 221 179 234 179 c 256,102,103
 247 179 247 179 256 188 c 128,-1,104
 265 197 265 197 265 210 c 256,93,94
EndSplineSet
EndChar
StartChar: uni0E16
Encoding: 3606 3606 233
Width: 461
Flags: W
Fore
208 72 m 0,0,1
 208 85 208 85 199 94 c 128,-1,2
 190 103 190 103 177 103 c 0,3,4
 163 103 163 103 154 94 c 128,-1,5
 145 85 145 85 145 72 c 0,6,7
 145 58 145 58 154 49 c 128,-1,8
 163 40 163 40 177 40 c 0,9,10
 190 40 190 40 199 49 c 128,-1,11
 208 58 208 58 208 72 c 0,0,1
347 297 m 1,12,13
 346 298 346 298 338 307 c 128,-1,14
 330 316 330 316 315 326 c 128,-1,15
 300 336 300 336 278.5 344.5 c 128,-1,16
 257 353 257 353 230 353 c 0,17,18
 197 353 197 353 175 345.5 c 128,-1,19
 153 338 153 338 139.5 327 c 128,-1,20
 126 316 126 316 118.5 304.5 c 128,-1,21
 111 293 111 293 107 285 c 1,22,-1
 135 264 l 1,23,24
 144 275 144 275 154.5 282.5 c 128,-1,25
 165 290 165 290 182 296 c 1,26,27
 187 289 l 130,-1,28
 192 282 192 282 198 274 c 128,-1,29
 204 266 204 266 208.5 259.5 c 128,-1,30
 212 254 212 254 213 253 c 1,31,32
 187 243 187 243 174.5 223.5 c 128,-1,33
 162 204 162 204 162 178 c 2,34,-1
 162 146 l 1,35,36
 170 148 170 148 177 148 c 0,37,38
 209 148 209 148 231 126 c 128,-1,39
 253 104 253 104 253 72 c 256,40,41
 253 40 253 40 231 17.5 c 128,-1,42
 209 -5 209 -5 177 -5 c 0,43,44
 166 -5 166 -5 151.5 -1.5 c 128,-1,45
 137 2 137 2 124 11.5 c 128,-1,46
 111 21 111 21 102 36.5 c 128,-1,47
 93 52 93 52 93 76 c 2,48,-1
 93 181 l 2,49,50
 93 199 93 199 95 208 c 128,-1,51
 97 217 97 217 101 222 c 1,52,-1
 32 267 l 1,53,54
 34 273 34 273 43.5 295.5 c 128,-1,55
 53 318 53 318 75 342 c 128,-1,56
 97 366 97 366 134 385.5 c 128,-1,57
 171 405 171 405 228 406 c 0,58,59
 259 406 259 406 283.5 400 c 128,-1,60
 308 394 308 394 326.5 384.5 c 128,-1,61
 345 375 345 375 358 364 c 128,-1,62
 371 353 371 353 379 343 c 1,63,64
 382 348 382 348 392.5 346 c 128,-1,65
 403 344 403 344 416 330 c 0,66,67
 424 321 424 321 426.5 314.5 c 128,-1,68
 429 308 429 308 427.5 302.5 c 128,-1,69
 426 297 426 297 422 292 c 128,-1,70
 418 287 418 287 413 280 c 256,71,72
 408 273 408 273 406 266 c 128,-1,73
 404 259 404 259 404 245 c 2,74,-1
 404 0 l 1,75,-1
 335 0 l 1,76,-1
 335 255 l 2,77,78
 335 266 335 266 337 277.5 c 128,-1,79
 339 289 339 289 347 297 c 1,12,13
EndSplineSet
EndChar
